<svg width="460" height="520" viewBox="0 0 460 520" fill="none" xmlns="http://www.w3.org/2000/svg">
<g clip-path="url(#clip0)">
<path d="M31.2669 212.767C32.0709 122.43 152.661 32.0944 204.112 34.3341C257.976 34.3341 461.37 217.993 443.684 303.849C425.997 389.706 230.642 480.788 155.072 482.281C79.5028 483.775 30.463 303.103 31.2669 212.767Z" fill="url(#paint0_linear)" fill-opacity="0.5"/>
<path d="M52.3857 156.513C78.5381 70.0413 219.651 17.225 268.401 33.8303C320.095 48.9638 463.696 282.37 422.6 359.799C381.503 437.228 168.426 469.755 95.4811 449.956C22.536 430.157 26.2333 242.984 52.3857 156.513Z" fill="url(#paint1_linear)" fill-opacity="0.5"/>
<mask id="mask0" mask-type="alpha" maskUnits="userSpaceOnUse" x="29" y="180" width="400" height="80">
<rect x="29.1455" y="180.984" width="399.709" height="78.0321" fill="url(#paint2_linear)"/>
</mask>
<g mask="url(#mask0)">
<g filter="url(#filter0_d)">
<path d="M-126.736 215.817C-126.736 212.132 -123.748 209.145 -120.063 209.145H741.99C745.675 209.145 748.663 212.132 748.663 215.817V237.835C748.663 241.52 745.675 244.508 741.99 244.508H-120.063C-123.748 244.508 -126.736 241.52 -126.736 237.835V215.817Z" fill="white"/>
</g>
<path d="M417.719 220.488C417.719 218.645 419.213 217.152 421.055 217.152H505.126C506.968 217.152 508.462 218.645 508.462 220.488V233.165C508.462 235.007 506.968 236.501 505.126 236.501H421.055C419.213 236.501 417.719 235.007 417.719 233.165V220.488Z" fill="white"/>
<path fill-rule="evenodd" clip-rule="evenodd" d="M505.126 217.819H421.055C419.581 217.819 418.387 219.014 418.387 220.488V233.165C418.387 234.639 419.581 235.834 421.055 235.834H505.126C506.6 235.834 507.795 234.639 507.795 233.165V220.488C507.795 219.014 506.6 217.819 505.126 217.819ZM421.055 217.152C419.213 217.152 417.719 218.645 417.719 220.488V233.165C417.719 235.007 419.213 236.501 421.055 236.501H505.126C506.968 236.501 508.462 235.007 508.462 233.165V220.488C508.462 218.645 506.968 217.152 505.126 217.152H421.055Z" fill="#C4C4C4"/>
<path d="M303.624 220.488C303.624 218.645 305.118 217.152 306.96 217.152H391.03C392.873 217.152 394.367 218.645 394.367 220.488V233.165C394.367 235.007 392.873 236.501 391.03 236.501H306.96C305.118 236.501 303.624 235.007 303.624 233.165V220.488Z" fill="white"/>
<path fill-rule="evenodd" clip-rule="evenodd" d="M391.03 217.819H306.96C305.486 217.819 304.291 219.014 304.291 220.488V233.165C304.291 234.639 305.486 235.834 306.96 235.834H391.03C392.504 235.834 393.699 234.639 393.699 233.165V220.488C393.699 219.014 392.504 217.819 391.03 217.819ZM306.96 217.152C305.118 217.152 303.624 218.645 303.624 220.488V233.165C303.624 235.007 305.118 236.501 306.96 236.501H391.03C392.873 236.501 394.367 235.007 394.367 233.165V220.488C394.367 218.645 392.873 217.152 391.03 217.152H306.96Z" fill="#C4C4C4"/>
<path d="M430.92 222.665H431.304V229.829H430.172V225.409L428.155 228.057H427.77L425.742 225.398V229.829H424.61V222.665H425.005L427.963 226.605L430.92 222.665Z" fill="#242424"/>
<path d="M437.112 226.658V229.829H436.066V229.242C435.675 229.711 435.116 229.946 434.39 229.946C433.842 229.946 433.401 229.807 433.066 229.53C432.732 229.252 432.565 228.886 432.565 228.43C432.565 227.975 432.739 227.612 433.088 227.341C433.436 227.071 433.906 226.936 434.497 226.936H435.981V226.594C435.981 226.231 435.881 225.953 435.682 225.761C435.49 225.569 435.216 225.473 434.86 225.473C434.326 225.473 433.842 225.733 433.408 226.252L432.757 225.591C433.269 224.843 434.006 224.47 434.967 224.47C435.621 224.47 436.141 224.662 436.525 225.046C436.917 225.43 437.112 225.968 437.112 226.658ZM435.981 227.843V227.747H434.636C434.017 227.747 433.707 227.96 433.707 228.388C433.707 228.601 433.789 228.772 433.952 228.9C434.123 229.021 434.347 229.081 434.625 229.081C435.009 229.081 435.33 228.964 435.586 228.729C435.849 228.494 435.981 228.199 435.981 227.843Z" fill="#242424"/>
<path d="M441.672 224.587V225.58H441.331C440.875 225.58 440.505 225.708 440.22 225.964C439.936 226.22 439.793 226.576 439.793 227.032V229.829H438.672V224.587H439.719V225.27C440.11 224.779 440.619 224.534 441.245 224.534C441.388 224.534 441.53 224.551 441.672 224.587Z" fill="#242424"/>
<path d="M442.241 227.203C442.226 226.455 442.497 225.811 443.052 225.27C443.607 224.722 444.262 224.455 445.016 224.47C445.998 224.47 446.735 224.875 447.226 225.687L446.436 226.306C446.066 225.772 445.596 225.505 445.027 225.505C444.557 225.505 444.166 225.669 443.853 225.996C443.54 226.324 443.383 226.726 443.383 227.203C443.383 227.686 443.54 228.092 443.853 228.42C444.166 228.747 444.557 228.911 445.027 228.911C445.582 228.911 446.052 228.647 446.436 228.121L447.226 228.729C446.991 229.113 446.682 229.412 446.297 229.626C445.913 229.839 445.486 229.946 445.016 229.946C444.241 229.946 443.582 229.679 443.041 229.145C442.508 228.612 442.241 227.964 442.241 227.203Z" fill="#242424"/>
<path d="M453.042 226.551V229.829H451.921V226.711C451.921 226.348 451.818 226.057 451.611 225.836C451.405 225.608 451.127 225.494 450.779 225.494C450.43 225.494 450.142 225.608 449.914 225.836C449.693 226.064 449.583 226.356 449.583 226.711V229.829H448.462V221.822H449.583V225.11C449.946 224.683 450.451 224.47 451.099 224.47C451.69 224.47 452.159 224.662 452.508 225.046C452.864 225.423 453.042 225.925 453.042 226.551Z" fill="#242424"/>
<path d="M309.853 229.829V228.857C310.209 228.893 310.451 228.911 310.579 228.911C310.956 228.911 311.234 228.84 311.412 228.697C311.59 228.555 311.679 228.309 311.679 227.961V222.783H312.81V228.078C312.81 228.69 312.636 229.156 312.287 229.476C311.946 229.79 311.458 229.946 310.825 229.946C310.533 229.946 310.209 229.907 309.853 229.829Z" fill="#242424"/>
<path d="M318.618 226.658V229.829H317.571V229.242C317.18 229.711 316.621 229.946 315.895 229.946C315.347 229.946 314.906 229.807 314.572 229.53C314.237 229.252 314.07 228.886 314.07 228.43C314.07 227.975 314.244 227.612 314.593 227.341C314.942 227.071 315.411 226.936 316.002 226.936H317.486V226.594C317.486 226.231 317.386 225.954 317.187 225.761C316.995 225.569 316.721 225.473 316.365 225.473C315.831 225.473 315.347 225.733 314.913 226.252L314.262 225.591C314.774 224.843 315.511 224.47 316.472 224.47C317.127 224.47 317.646 224.662 318.031 225.046C318.422 225.43 318.618 225.968 318.618 226.658ZM317.486 227.843V227.747H316.141C315.522 227.747 315.212 227.961 315.212 228.388C315.212 228.601 315.294 228.772 315.458 228.9C315.629 229.021 315.853 229.081 316.13 229.081C316.515 229.081 316.835 228.964 317.091 228.729C317.354 228.494 317.486 228.199 317.486 227.843Z" fill="#242424"/>
<path d="M324.758 226.551V229.829H323.637V226.701C323.637 226.338 323.53 226.046 323.316 225.825C323.11 225.598 322.836 225.484 322.494 225.484C322.146 225.484 321.857 225.598 321.63 225.825C321.409 226.053 321.299 226.345 321.299 226.701V229.829H320.178V224.587H321.224V225.1C321.622 224.68 322.146 224.47 322.793 224.47C323.398 224.47 323.875 224.658 324.224 225.035C324.58 225.413 324.758 225.918 324.758 226.551Z" fill="#242424"/>
<path d="M326.265 227.63V224.587H327.375V227.715C327.375 228.071 327.485 228.359 327.706 228.58C327.927 228.8 328.211 228.911 328.56 228.911C328.895 228.911 329.169 228.8 329.382 228.58C329.603 228.359 329.713 228.071 329.713 227.715V224.587H330.834V227.63C330.834 228.32 330.617 228.879 330.183 229.306C329.756 229.733 329.215 229.946 328.56 229.946C327.891 229.946 327.34 229.736 326.905 229.316C326.478 228.889 326.265 228.327 326.265 227.63Z" fill="#242424"/>
<path d="M336.57 226.658V229.829H335.524V229.242C335.133 229.711 334.574 229.946 333.848 229.946C333.3 229.946 332.859 229.807 332.524 229.53C332.19 229.252 332.022 228.886 332.022 228.43C332.022 227.975 332.197 227.612 332.545 227.341C332.894 227.071 333.364 226.936 333.955 226.936H335.439V226.594C335.439 226.231 335.339 225.954 335.14 225.761C334.947 225.569 334.673 225.473 334.318 225.473C333.784 225.473 333.3 225.733 332.866 226.252L332.215 225.591C332.727 224.843 333.464 224.47 334.424 224.47C335.079 224.47 335.599 224.662 335.983 225.046C336.374 225.43 336.57 225.968 336.57 226.658ZM335.439 227.843V227.747H334.093C333.474 227.747 333.165 227.961 333.165 228.388C333.165 228.601 333.247 228.772 333.41 228.9C333.581 229.021 333.805 229.081 334.083 229.081C334.467 229.081 334.787 228.964 335.044 228.729C335.307 228.494 335.439 228.199 335.439 227.843Z" fill="#242424"/>
<path d="M341.13 224.587V225.58H340.788C340.333 225.58 339.963 225.708 339.678 225.964C339.394 226.22 339.251 226.576 339.251 227.032V229.829H338.13V224.587H339.176V225.27C339.568 224.779 340.077 224.534 340.703 224.534C340.845 224.534 340.988 224.551 341.13 224.587Z" fill="#242424"/>
<path d="M345.785 224.587H346.98L344.429 230.427C344.208 230.925 343.945 231.288 343.639 231.516C343.333 231.75 342.956 231.868 342.507 231.868C342.208 231.868 341.92 231.832 341.643 231.761V230.811C341.934 230.839 342.141 230.854 342.262 230.854C342.803 230.854 343.183 230.597 343.404 230.085L343.617 229.594L341.525 224.587H342.731L344.237 228.398L345.785 224.587Z" fill="#242424"/>
<path d="M384.025 229.161L380.846 225.158L387.203 225.158L384.025 229.161Z" fill="#048DFD"/>
<path d="M112.056 228.857H114.842V229.829H109.985V229.573C110.462 229.238 110.817 228.914 111.052 228.601C111.287 228.281 111.405 227.929 111.405 227.544C111.405 227.43 111.401 227.356 111.394 227.32H110.092V226.349H111.042L110.817 225.932C110.576 225.462 110.455 225.025 110.455 224.619C110.455 224.035 110.657 223.566 111.063 223.21C111.476 222.847 111.999 222.665 112.632 222.665C113.209 222.665 113.696 222.822 114.095 223.135C114.493 223.448 114.775 223.904 114.938 224.502L113.967 224.854C113.732 224.085 113.308 223.701 112.696 223.701C112.362 223.701 112.095 223.804 111.896 224.011C111.704 224.21 111.607 224.473 111.607 224.801C111.607 225.128 111.75 225.53 112.035 226.007C112.148 226.206 112.209 226.32 112.216 226.349H113.913V227.32H112.526C112.533 227.348 112.536 227.42 112.536 227.534C112.536 228.053 112.376 228.494 112.056 228.857Z" fill="#C4C4C4"/>
<path d="M118.011 222.783H118.406V229.829H117.275V224.117L115.844 224.576L115.567 223.584L118.011 222.783Z" fill="#C4C4C4"/>
<path d="M120.292 231.729L120.399 228.697H121.701L121.2 231.729H120.292Z" fill="#C4C4C4"/>
<path d="M128.131 227.993C128.131 228.583 127.892 229.057 127.416 229.412C126.946 229.768 126.334 229.946 125.579 229.946C124.818 229.946 124.199 229.768 123.722 229.412C123.245 229.057 123.007 228.583 123.007 227.993C123.007 227.146 123.515 226.537 124.533 226.167C123.736 225.733 123.338 225.167 123.338 224.47C123.338 223.9 123.547 223.459 123.967 223.146C124.394 222.826 124.932 222.665 125.579 222.665C126.22 222.665 126.75 222.826 127.17 223.146C127.59 223.459 127.8 223.9 127.8 224.47C127.8 225.174 127.401 225.74 126.604 226.167C127.622 226.544 128.131 227.153 128.131 227.993ZM124.416 224.512C124.416 224.761 124.501 224.968 124.672 225.132C124.85 225.295 125.149 225.47 125.569 225.655C125.989 225.477 126.284 225.306 126.455 225.142C126.633 224.971 126.722 224.761 126.722 224.512C126.722 224.235 126.615 224.014 126.401 223.85C126.195 223.68 125.921 223.594 125.579 223.594C125.231 223.594 124.95 223.68 124.736 223.85C124.523 224.014 124.416 224.235 124.416 224.512ZM126.989 227.95C126.989 227.644 126.878 227.398 126.658 227.213C126.437 227.028 126.074 226.843 125.569 226.658C125.071 226.836 124.708 227.021 124.48 227.213C124.259 227.405 124.149 227.651 124.149 227.95C124.149 228.277 124.273 228.537 124.523 228.729C124.779 228.914 125.131 229.007 125.579 229.007C126.028 229.007 126.373 228.914 126.615 228.729C126.864 228.537 126.989 228.277 126.989 227.95Z" fill="#C4C4C4"/>
<path d="M134.494 227.63V228.601H133.533V229.829H132.401V228.601H128.878V228.292L131.131 222.783H132.294L130.298 227.63H132.401V225.462H133.533V227.63H134.494Z" fill="#C4C4C4"/>
<path d="M135.332 226.242C135.332 225.167 135.56 224.306 136.015 223.658C136.471 222.996 137.14 222.665 138.022 222.665C138.905 222.665 139.57 222.993 140.018 223.648C140.474 224.295 140.702 225.16 140.702 226.242C140.702 227.338 140.47 228.231 140.008 228.921C139.552 229.605 138.89 229.946 138.022 229.946C137.154 229.946 136.488 229.601 136.026 228.911C135.563 228.22 135.332 227.331 135.332 226.242ZM139.527 226.252C139.527 224.551 139.026 223.701 138.022 223.701C137.012 223.701 136.506 224.551 136.506 226.252C136.506 228.025 137.012 228.911 138.022 228.911C139.026 228.911 139.527 228.025 139.527 226.252Z" fill="#C4C4C4"/>
<path d="M142.071 231.729L142.177 228.697H143.48L142.978 231.729H142.071Z" fill="#C4C4C4"/>
<path d="M144.788 226.242C144.788 225.167 145.015 224.306 145.471 223.658C145.926 222.996 146.595 222.665 147.478 222.665C148.36 222.665 149.026 222.993 149.474 223.648C149.93 224.295 150.158 225.16 150.158 226.242C150.158 227.338 149.926 228.231 149.464 228.921C149.008 229.605 148.346 229.946 147.478 229.946C146.61 229.946 145.944 229.601 145.482 228.911C145.019 228.22 144.788 227.331 144.788 226.242ZM148.983 226.252C148.983 224.551 148.481 223.701 147.478 223.701C146.467 223.701 145.962 224.551 145.962 226.252C145.962 228.025 146.467 228.911 147.478 228.911C148.481 228.911 148.983 228.025 148.983 226.252Z" fill="#C4C4C4"/>
<path d="M151.46 226.242C151.46 225.167 151.688 224.306 152.143 223.658C152.599 222.996 153.268 222.665 154.15 222.665C155.033 222.665 155.698 222.993 156.147 223.648C156.602 224.295 156.83 225.16 156.83 226.242C156.83 227.338 156.598 228.231 156.136 228.921C155.68 229.605 155.018 229.946 154.15 229.946C153.282 229.946 152.616 229.601 152.154 228.911C151.691 228.22 151.46 227.331 151.46 226.242ZM155.655 226.252C155.655 224.551 155.154 223.701 154.15 223.701C153.14 223.701 152.634 224.551 152.634 226.252C152.634 228.025 153.14 228.911 154.15 228.911C155.154 228.911 155.655 228.025 155.655 226.252Z" fill="#C4C4C4"/>
<path d="M158.132 226.242C158.132 225.167 158.36 224.306 158.815 223.658C159.271 222.996 159.94 222.665 160.822 222.665C161.705 222.665 162.37 222.993 162.819 223.648C163.274 224.295 163.502 225.16 163.502 226.242C163.502 227.338 163.271 228.231 162.808 228.921C162.353 229.605 161.691 229.946 160.822 229.946C159.954 229.946 159.289 229.601 158.826 228.911C158.364 228.22 158.132 227.331 158.132 226.242ZM162.328 226.252C162.328 224.551 161.826 223.701 160.822 223.701C159.812 223.701 159.307 224.551 159.307 226.252C159.307 228.025 159.812 228.911 160.822 228.911C161.826 228.911 162.328 228.025 162.328 226.252Z" fill="#C4C4C4"/>
<path d="M110.293 195.8V189.195H114.536V190.146H111.354V192.117H113.976V193.078H111.354V195.8H110.293Z" fill="#242424"/>
<path d="M115.52 193.128V189.195H116.581V193.198C116.581 193.745 116.731 194.172 117.031 194.479C117.338 194.786 117.742 194.94 118.242 194.94C118.736 194.94 119.133 194.786 119.433 194.479C119.733 194.172 119.884 193.745 119.884 193.198V189.195H120.945V193.128C120.945 193.982 120.691 194.659 120.184 195.16C119.683 195.66 119.036 195.91 118.242 195.91C117.435 195.91 116.778 195.66 116.271 195.16C115.77 194.659 115.52 193.982 115.52 193.128Z" fill="#242424"/>
<path d="M128.454 189.085H128.814V195.8H127.754V191.657L125.862 194.139H125.502L123.6 191.647V195.8H122.539V189.085H122.91L125.682 192.778L128.454 189.085Z" fill="#242424"/>
<path d="M143.824 194.466L140.646 190.463L147.002 190.463L143.824 194.466Z" fill="#242424"/>
<path d="M183.057 194.479L183.807 193.909C184.288 194.609 184.865 194.96 185.539 194.96C185.879 194.96 186.153 194.876 186.36 194.709C186.573 194.543 186.68 194.319 186.68 194.039C186.68 193.812 186.61 193.635 186.47 193.508C186.329 193.375 186.076 193.222 185.709 193.048L184.978 192.708C184.465 192.474 184.078 192.217 183.817 191.937C183.564 191.65 183.437 191.297 183.437 190.876C183.437 190.349 183.637 189.919 184.038 189.585C184.438 189.252 184.932 189.085 185.519 189.085C185.979 189.085 186.396 189.192 186.77 189.405C187.15 189.619 187.444 189.905 187.651 190.266L186.91 190.836C186.55 190.302 186.086 190.036 185.519 190.036C185.225 190.036 184.985 190.106 184.798 190.246C184.611 190.386 184.518 190.583 184.518 190.836C184.525 190.956 184.538 191.056 184.558 191.137C184.585 191.21 184.648 191.29 184.748 191.377C184.848 191.457 184.918 191.507 184.958 191.527C184.998 191.547 185.128 191.614 185.349 191.727C185.389 191.747 185.419 191.764 185.439 191.777L186.179 192.117C186.733 192.371 187.134 192.641 187.38 192.928C187.634 193.215 187.761 193.572 187.761 193.999C187.761 194.566 187.551 195.026 187.13 195.38C186.716 195.734 186.189 195.911 185.549 195.911C185.015 195.911 184.531 195.784 184.098 195.53C183.664 195.277 183.317 194.926 183.057 194.479Z" fill="#242424"/>
<path d="M193.471 193.689H189.808C189.875 194.089 190.052 194.406 190.339 194.639C190.632 194.866 190.989 194.98 191.41 194.98C191.93 194.98 192.407 194.786 192.841 194.399L193.341 195.12C192.787 195.647 192.134 195.911 191.38 195.911C190.632 195.911 190.005 195.667 189.498 195.18C188.991 194.686 188.737 194.076 188.737 193.348C188.724 192.641 188.971 192.034 189.478 191.527C189.985 191.013 190.586 190.763 191.28 190.776C191.927 190.776 192.467 190.993 192.901 191.427C193.335 191.854 193.551 192.388 193.551 193.028C193.551 193.222 193.525 193.442 193.471 193.689ZM189.828 192.868H192.501C192.494 192.501 192.37 192.211 192.13 191.997C191.89 191.777 191.593 191.667 191.24 191.667C190.893 191.667 190.589 191.777 190.329 191.997C190.075 192.211 189.908 192.501 189.828 192.868Z" fill="#242424"/>
<path d="M198.609 190.886H199.58V195.29C199.58 196.057 199.356 196.651 198.909 197.071C198.469 197.498 197.872 197.712 197.118 197.712C196.21 197.712 195.423 197.402 194.756 196.781L195.336 196.051C195.917 196.518 196.49 196.751 197.058 196.751C197.511 196.751 197.868 196.631 198.128 196.391C198.395 196.151 198.529 195.804 198.529 195.35V195C198.142 195.467 197.588 195.7 196.867 195.7C196.18 195.7 195.61 195.47 195.156 195.01C194.702 194.543 194.475 193.952 194.475 193.238C194.475 192.524 194.702 191.937 195.156 191.477C195.61 191.01 196.18 190.776 196.867 190.776C197.648 190.776 198.229 191.046 198.609 191.587V190.886ZM198.539 193.228C198.539 192.748 198.399 192.378 198.118 192.117C197.838 191.85 197.485 191.717 197.058 191.717C196.631 191.717 196.274 191.857 195.987 192.137C195.7 192.418 195.556 192.785 195.556 193.238C195.556 193.699 195.7 194.072 195.987 194.359C196.28 194.639 196.637 194.78 197.058 194.78C197.465 194.78 197.811 194.646 198.098 194.379C198.392 194.106 198.539 193.722 198.539 193.228Z" fill="#242424"/>
<path d="M208.475 192.728V195.8H207.414V192.878C207.414 192.531 207.321 192.254 207.134 192.047C206.954 191.84 206.707 191.737 206.393 191.737C206.073 191.737 205.813 191.84 205.613 192.047C205.412 192.247 205.312 192.508 205.312 192.828V195.8H204.261V192.878C204.261 192.538 204.168 192.264 203.981 192.057C203.794 191.844 203.544 191.737 203.231 191.737C202.91 191.737 202.65 191.844 202.45 192.057C202.25 192.264 202.15 192.538 202.15 192.878V195.8H201.099V190.886H202.08V191.347C202.447 190.966 202.92 190.776 203.501 190.776C204.181 190.776 204.678 191.033 204.992 191.547C205.386 191.033 205.94 190.776 206.653 190.776C207.214 190.776 207.658 190.956 207.985 191.317C208.311 191.67 208.475 192.141 208.475 192.728Z" fill="#242424"/>
<path d="M214.358 193.689H210.695C210.762 194.089 210.938 194.406 211.225 194.639C211.519 194.866 211.876 194.98 212.296 194.98C212.817 194.98 213.294 194.786 213.727 194.399L214.228 195.12C213.674 195.647 213.02 195.911 212.266 195.911C211.519 195.911 210.892 195.667 210.385 195.18C209.878 194.686 209.624 194.076 209.624 193.348C209.611 192.641 209.858 192.034 210.365 191.527C210.872 191.013 211.472 190.763 212.166 190.776C212.813 190.776 213.354 190.993 213.788 191.427C214.221 191.854 214.438 192.388 214.438 193.028C214.438 193.222 214.411 193.442 214.358 193.689ZM210.715 192.868H213.387C213.381 192.501 213.257 192.211 213.017 191.997C212.777 191.777 212.48 191.667 212.126 191.667C211.779 191.667 211.476 191.777 211.215 191.997C210.962 192.211 210.795 192.501 210.715 192.868Z" fill="#242424"/>
<path d="M219.936 192.728V195.8H218.885V192.868C218.885 192.528 218.785 192.254 218.585 192.047C218.391 191.834 218.134 191.727 217.814 191.727C217.487 191.727 217.217 191.834 217.003 192.047C216.796 192.261 216.693 192.534 216.693 192.868V195.8H215.642V190.886H216.623V191.367C216.997 190.973 217.487 190.776 218.094 190.776C218.661 190.776 219.108 190.953 219.435 191.307C219.769 191.66 219.936 192.134 219.936 192.728Z" fill="#242424"/>
<path d="M224.321 194.91V195.8C223.974 195.874 223.684 195.911 223.451 195.911C222.877 195.911 222.43 195.767 222.11 195.48C221.796 195.193 221.639 194.766 221.639 194.199V191.797H220.838V190.886H221.639V189.595H222.7V190.886H224.161V191.797H222.7V194.109C222.7 194.416 222.777 194.636 222.93 194.77C223.09 194.896 223.337 194.96 223.671 194.96C223.784 194.96 224.001 194.943 224.321 194.91Z" fill="#242424"/>
<path d="M229.29 192.828V195.8H228.309V195.25C227.942 195.69 227.418 195.911 226.738 195.911C226.224 195.911 225.81 195.78 225.497 195.52C225.183 195.26 225.026 194.916 225.026 194.489C225.026 194.062 225.19 193.722 225.517 193.468C225.844 193.215 226.284 193.088 226.838 193.088H228.229V192.768C228.229 192.428 228.136 192.167 227.949 191.987C227.769 191.807 227.512 191.717 227.178 191.717C226.678 191.717 226.224 191.961 225.817 192.448L225.207 191.827C225.687 191.127 226.377 190.776 227.278 190.776C227.892 190.776 228.379 190.956 228.739 191.317C229.106 191.677 229.29 192.181 229.29 192.828ZM228.229 193.939V193.849H226.968C226.388 193.849 226.097 194.049 226.097 194.449C226.097 194.649 226.174 194.81 226.327 194.93C226.488 195.043 226.698 195.1 226.958 195.1C227.318 195.1 227.619 194.99 227.859 194.77C228.106 194.549 228.229 194.272 228.229 193.939Z" fill="#242424"/>
<path d="M233.675 194.91V195.8C233.328 195.874 233.038 195.911 232.804 195.911C232.23 195.911 231.783 195.767 231.463 195.48C231.149 195.193 230.993 194.766 230.993 194.199V191.797H230.192V190.886H230.993V189.595H232.054V190.886H233.515V191.797H232.054V194.109C232.054 194.416 232.13 194.636 232.284 194.77C232.444 194.896 232.691 194.96 233.024 194.96C233.138 194.96 233.355 194.943 233.675 194.91Z" fill="#242424"/>
<path d="M234.74 195.8V190.886H235.791V195.8H234.74ZM234.76 189.545C234.62 189.412 234.55 189.248 234.55 189.055C234.55 188.861 234.62 188.698 234.76 188.564C234.9 188.424 235.07 188.354 235.271 188.354C235.464 188.354 235.631 188.424 235.771 188.564C235.911 188.698 235.981 188.861 235.981 189.055C235.981 189.248 235.911 189.412 235.771 189.545C235.631 189.679 235.464 189.745 235.271 189.745C235.07 189.745 234.9 189.679 234.76 189.545Z" fill="#242424"/>
<path d="M237 193.338C236.987 192.638 237.237 192.034 237.751 191.527C238.271 191.013 238.885 190.763 239.593 190.776C240.307 190.763 240.924 191.013 241.444 191.527C241.965 192.041 242.218 192.644 242.205 193.338C242.218 194.039 241.965 194.646 241.444 195.16C240.924 195.674 240.307 195.924 239.593 195.911C238.885 195.924 238.271 195.674 237.751 195.16C237.237 194.639 236.987 194.032 237 193.338ZM241.124 193.348C241.124 192.895 240.977 192.514 240.684 192.207C240.39 191.894 240.03 191.737 239.603 191.737C239.169 191.737 238.805 191.894 238.512 192.207C238.218 192.514 238.071 192.895 238.071 193.348C238.071 193.802 238.215 194.182 238.502 194.489C238.795 194.79 239.159 194.94 239.593 194.94C240.026 194.94 240.39 194.786 240.684 194.479C240.977 194.172 241.124 193.795 241.124 193.348Z" fill="#242424"/>
<path d="M247.703 192.728V195.8H246.652V192.868C246.652 192.528 246.552 192.254 246.352 192.047C246.159 191.834 245.902 191.727 245.581 191.727C245.254 191.727 244.984 191.834 244.771 192.047C244.564 192.261 244.46 192.534 244.46 192.868V195.8H243.41V190.886H244.39V191.367C244.764 190.973 245.254 190.776 245.862 190.776C246.429 190.776 246.876 190.953 247.203 191.307C247.536 191.66 247.703 192.134 247.703 192.728Z" fill="#242424"/>
<path d="M259.921 194.466L256.743 190.463L263.099 190.463L259.921 194.466Z" fill="#242424"/>
<path d="M182.189 220.488C182.189 218.645 183.683 217.152 185.525 217.152H269.596C271.438 217.152 272.932 218.645 272.932 220.488V233.165C272.932 235.007 271.438 236.501 269.596 236.501H185.525C183.683 236.501 182.189 235.007 182.189 233.165V220.488Z" fill="white"/>
<path fill-rule="evenodd" clip-rule="evenodd" d="M269.596 217.819H185.525C184.051 217.819 182.856 219.014 182.856 220.488V233.165C182.856 234.639 184.051 235.834 185.525 235.834H269.596C271.07 235.834 272.265 234.639 272.265 233.165V220.488C272.265 219.014 271.07 217.819 269.596 217.819ZM185.525 217.152C183.683 217.152 182.189 218.645 182.189 220.488V233.165C182.189 235.007 183.683 236.501 185.525 236.501H269.596C271.438 236.501 272.932 235.007 272.932 233.165V220.488C272.932 218.645 271.438 217.152 269.596 217.152H185.525Z" fill="#C4C4C4"/>
<path d="M193.81 229.829L193.308 228.654H190.137L189.635 229.829H188.429L191.536 222.665H191.92L195.027 229.829H193.81ZM192.902 227.683L191.728 224.769L190.543 227.683H192.902Z" fill="#242424"/>
<path d="M200.878 229.829L200.376 228.654H197.206L196.704 229.829H195.497L198.604 222.665H198.988L202.095 229.829H200.878ZM199.971 227.683L198.796 224.769L197.611 227.683H199.971Z" fill="#242424"/>
<path d="M207.946 229.829L207.445 228.654H204.274L203.772 229.829H202.566L205.672 222.665H206.057L209.163 229.829H207.946ZM207.039 227.683L205.865 224.769L204.68 227.683H207.039Z" fill="#242424"/>
<path d="M262.59 229.162L259.412 225.158L265.768 225.158L262.59 229.162Z" fill="#048DFD"/>
<path fill-rule="evenodd" clip-rule="evenodd" d="M288.278 244.508L288.278 209.145L288.945 209.145L288.945 244.508L288.278 244.508Z" fill="#E5E5E5"/>
<path d="M72.3474 221.155C70.8332 221.155 69.5951 222.393 69.5951 223.907C69.5951 224.362 69.7708 224.826 69.9965 225.341C70.2222 225.855 70.507 226.4 70.7992 226.903C71.3832 227.91 71.9747 228.752 71.9747 228.752L72.3474 229.297L72.7201 228.752C72.7201 228.752 73.3112 227.91 73.8956 226.903C74.1878 226.399 74.4726 225.855 74.6983 225.341C74.924 224.826 75.0997 224.362 75.0997 223.907C75.0997 222.393 73.8616 221.155 72.3474 221.155ZM67.7459 222.044L64.0905 223.606V232.408L67.7746 230.817L71.4443 232.193L75.0997 230.63V226.631C74.8075 227.192 74.4832 227.729 74.1823 228.208V230.028L71.8887 231.003V230.257L71.215 229.283C71.1434 229.179 71.0589 229.055 70.9713 228.924V231.046L68.219 230.014V223.19L68.7207 223.377C68.7656 223.067 68.846 222.768 68.9644 222.488L67.7459 222.044ZM72.3474 222.072C73.3653 222.072 74.1823 222.889 74.1823 223.907C74.1823 224.085 74.0715 224.504 73.8669 224.968C73.6628 225.432 73.374 225.959 73.0928 226.444C72.7185 227.089 72.557 227.319 72.3474 227.635C72.1378 227.319 71.9763 227.089 71.602 226.444C71.3208 225.959 71.0325 225.432 70.8279 224.968C70.6238 224.504 70.5125 224.085 70.5125 223.907C70.5125 222.889 71.3295 222.072 72.3474 222.072ZM67.3015 223.219V230.028L65.0079 231.003V224.208L67.3015 223.219Z" fill="#048DFD"/>
<path d="M55.9123 195.8L55.4419 194.699H52.4694L51.999 195.8H50.8681L53.7805 189.085H54.1408L57.0533 195.8H55.9123ZM55.0616 193.789L53.9607 191.056L52.8498 193.789H55.0616Z" fill="#242424"/>
<path d="M61.6022 188.294H62.663V195.8H61.6822V195.1C61.3019 195.64 60.7281 195.91 59.9608 195.91C59.2735 195.91 58.6997 195.667 58.2393 195.18C57.7856 194.686 57.5588 194.076 57.5588 193.348C57.5454 192.628 57.7723 192.017 58.2393 191.517C58.7064 191.01 59.2802 190.763 59.9608 190.776C60.668 190.776 61.2152 191.013 61.6022 191.487V188.294ZM61.1918 194.529C61.4787 194.249 61.6222 193.855 61.6222 193.348C61.6222 192.841 61.4754 192.448 61.1818 192.167C60.8949 191.88 60.5479 191.737 60.1409 191.737C59.7139 191.737 59.3536 191.887 59.06 192.187C58.7731 192.488 58.6297 192.871 58.6297 193.338C58.6297 193.805 58.7731 194.192 59.06 194.499C59.3469 194.8 59.7072 194.95 60.1409 194.95C60.5546 194.95 60.9049 194.81 61.1918 194.529Z" fill="#242424"/>
<path d="M67.916 188.294H68.9769V195.8H67.9961V195.1C67.6158 195.64 67.042 195.91 66.2746 195.91C65.5874 195.91 65.0136 195.667 64.5532 195.18C64.0995 194.686 63.8726 194.076 63.8726 193.348C63.8593 192.628 64.0862 192.017 64.5532 191.517C65.0203 191.01 65.5941 190.763 66.2746 190.776C66.9819 190.776 67.529 191.013 67.916 191.487V188.294ZM67.5057 194.529C67.7926 194.249 67.936 193.855 67.936 193.348C67.936 192.841 67.7892 192.448 67.4957 192.167C67.2088 191.88 66.8618 191.737 66.4548 191.737C66.0278 191.737 65.6675 191.887 65.3739 192.187C65.087 192.488 64.9435 192.871 64.9435 193.338C64.9435 193.805 65.087 194.192 65.3739 194.499C65.6608 194.8 66.0211 194.95 66.4548 194.95C66.8685 194.95 67.2188 194.81 67.5057 194.529Z" fill="#242424"/>
<path d="M73.3091 190.886V191.817H72.9889C72.5618 191.817 72.2149 191.937 71.948 192.177C71.6811 192.418 71.5476 192.751 71.5476 193.178V195.8H70.4968V190.886H71.4776V191.527C71.8446 191.066 72.3216 190.836 72.9088 190.836C73.0422 190.836 73.1757 190.853 73.3091 190.886Z" fill="#242424"/>
<path d="M78.5759 193.689H74.9128C74.9795 194.089 75.1563 194.406 75.4432 194.639C75.7368 194.866 76.0938 194.98 76.5141 194.98C77.0346 194.98 77.5116 194.786 77.9453 194.399L78.4458 195.12C77.892 195.647 77.2381 195.91 76.4841 195.91C75.7368 195.91 75.1096 195.667 74.6025 195.18C74.0955 194.686 73.8419 194.076 73.8419 193.348C73.8286 192.641 74.0754 192.034 74.5825 191.527C75.0896 191.013 75.6901 190.763 76.384 190.776C77.0312 190.776 77.5717 190.993 78.0054 191.427C78.4391 191.854 78.6559 192.388 78.6559 193.028C78.6559 193.222 78.6292 193.442 78.5759 193.689ZM74.9328 192.868H77.6051C77.5984 192.501 77.4749 192.211 77.2347 191.997C76.9945 191.777 76.6976 191.667 76.344 191.667C75.997 191.667 75.6935 191.777 75.4332 191.997C75.1797 192.211 75.0129 192.501 74.9328 192.868Z" fill="#242424"/>
<path d="M79.3997 194.96L80.0002 194.299C80.4472 194.766 80.9076 195 81.3813 195C81.6149 195 81.805 194.953 81.9518 194.86C82.0986 194.76 82.172 194.623 82.172 194.449C82.172 194.316 82.122 194.209 82.0219 194.129C81.9218 194.042 81.7416 193.946 81.4814 193.839L80.981 193.629C80.534 193.442 80.207 193.242 80.0002 193.028C79.8 192.808 79.6999 192.531 79.6999 192.197C79.6999 191.764 79.8601 191.42 80.1803 191.167C80.5073 190.906 80.9243 190.776 81.4314 190.776C82.1386 190.776 82.7058 191.03 83.1328 191.537L82.5623 192.187C82.2421 191.854 81.8584 191.687 81.4114 191.687C80.9643 191.687 80.7408 191.844 80.7408 192.157C80.7408 192.277 80.7875 192.381 80.8809 192.468C80.9743 192.548 81.1445 192.638 81.3913 192.738L81.8617 192.928C82.3355 193.128 82.6758 193.342 82.8826 193.569C83.0961 193.789 83.2029 194.069 83.2029 194.409C83.2029 194.883 83.0294 195.253 82.6824 195.52C82.3355 195.78 81.9018 195.91 81.3813 195.91C80.5473 195.91 79.8868 195.594 79.3997 194.96Z" fill="#242424"/>
<path d="M83.9543 194.96L84.5548 194.299C85.0018 194.766 85.4622 195 85.9359 195C86.1695 195 86.3596 194.953 86.5064 194.86C86.6532 194.76 86.7266 194.623 86.7266 194.449C86.7266 194.316 86.6765 194.209 86.5765 194.129C86.4764 194.042 86.2962 193.946 86.036 193.839L85.5356 193.629C85.0885 193.442 84.7616 193.242 84.5548 193.028C84.3546 192.808 84.2545 192.531 84.2545 192.197C84.2545 191.764 84.4146 191.42 84.7349 191.167C85.0619 190.906 85.4789 190.776 85.986 190.776C86.6932 190.776 87.2604 191.03 87.6874 191.537L87.1169 192.187C86.7966 191.854 86.413 191.687 85.9659 191.687C85.5189 191.687 85.2954 191.844 85.2954 192.157C85.2954 192.277 85.3421 192.381 85.4355 192.468C85.5289 192.548 85.6991 192.638 85.9459 192.738L86.4163 192.928C86.89 193.128 87.2303 193.342 87.4372 193.569C87.6507 193.789 87.7574 194.069 87.7574 194.409C87.7574 194.883 87.584 195.253 87.237 195.52C86.8901 195.78 86.4564 195.91 85.9359 195.91C85.1019 195.91 84.4413 195.594 83.9543 194.96Z" fill="#242424"/>
</g>
<mask id="mask1" mask-type="alpha" maskUnits="userSpaceOnUse" x="31" y="260" width="400" height="80">
<rect x="31.1455" y="260.984" width="399.709" height="78.0321" fill="url(#paint3_linear)"/>
</mask>
<g mask="url(#mask1)">
<g filter="url(#filter1_d)">
<path d="M-126.736 299.903C-126.736 296.218 -123.748 293.231 -120.063 293.231H741.99C745.675 293.231 748.663 296.218 748.663 299.903V321.922C748.663 325.607 745.675 328.594 741.99 328.594H-120.063C-123.748 328.594 -126.736 325.607 -126.736 321.922V299.903Z" fill="white"/>
</g>
<path d="M328.773 272.66C328.773 273.237 328.57 273.711 328.165 274.082C327.76 274.453 327.227 274.639 326.568 274.639H323.651V267.837H326.032C326.643 267.837 327.134 268.009 327.505 268.352C327.883 268.689 328.072 269.122 328.072 269.651C328.072 270.18 327.883 270.606 327.505 270.929C327.904 271.059 328.213 271.276 328.433 271.578C328.66 271.88 328.773 272.241 328.773 272.66ZM325.929 268.796H324.723V270.63H325.929C326.258 270.63 326.516 270.547 326.702 270.383C326.887 270.218 326.98 269.991 326.98 269.702C326.98 269.421 326.887 269.201 326.702 269.043C326.523 268.878 326.265 268.796 325.929 268.796ZM327.67 272.629C327.67 272.299 327.564 272.042 327.351 271.856C327.138 271.664 326.846 271.568 326.475 271.568H324.723V273.68H326.475C326.853 273.68 327.145 273.588 327.351 273.402C327.564 273.21 327.67 272.952 327.67 272.629Z" fill="#242424"/>
<path d="M329.95 274.639V269.579H331.032V274.639H329.95ZM329.97 268.198C329.826 268.06 329.754 267.892 329.754 267.693C329.754 267.494 329.826 267.325 329.97 267.188C330.114 267.044 330.29 266.971 330.496 266.971C330.695 266.971 330.867 267.044 331.011 267.188C331.155 267.325 331.227 267.494 331.227 267.693C331.227 267.892 331.155 268.06 331.011 268.198C330.867 268.335 330.695 268.404 330.496 268.404C330.29 268.404 330.114 268.335 329.97 268.198Z" fill="#242424"/>
<path d="M335.492 269.579V270.537H335.163C334.723 270.537 334.366 270.661 334.091 270.908C333.816 271.156 333.679 271.499 333.679 271.939V274.639H332.596V269.579H333.606V270.238C333.984 269.764 334.475 269.527 335.08 269.527C335.217 269.527 335.355 269.544 335.492 269.579Z" fill="#242424"/>
<path d="M339.47 273.722V274.639C339.113 274.714 338.814 274.752 338.574 274.752C337.983 274.752 337.522 274.604 337.193 274.309C336.87 274.014 336.708 273.574 336.708 272.99V270.517H335.884V269.579H336.708V268.249H337.801V269.579H339.305V270.517H337.801V272.897C337.801 273.213 337.88 273.44 338.038 273.577C338.203 273.708 338.457 273.773 338.8 273.773C338.917 273.773 339.14 273.756 339.47 273.722Z" fill="#242424"/>
<path d="M344.988 271.475V274.639H343.906V271.63C343.906 271.279 343.807 270.997 343.607 270.785C343.408 270.565 343.14 270.455 342.803 270.455C342.467 270.455 342.189 270.565 341.969 270.785C341.756 271.004 341.649 271.286 341.649 271.63V274.639H340.567V266.91H341.649V270.084C342 269.672 342.487 269.465 343.113 269.465C343.683 269.465 344.136 269.651 344.473 270.022C344.816 270.386 344.988 270.87 344.988 271.475Z" fill="#242424"/>
<path d="M350.339 266.91H351.431V274.639H350.421V273.917C350.03 274.474 349.439 274.752 348.649 274.752C347.941 274.752 347.35 274.501 346.876 274C346.409 273.491 346.175 272.863 346.175 272.114C346.162 271.372 346.395 270.743 346.876 270.228C347.357 269.706 347.948 269.452 348.649 269.465C349.377 269.465 349.94 269.709 350.339 270.197V266.91ZM349.916 273.33C350.212 273.041 350.359 272.636 350.359 272.114C350.359 271.592 350.208 271.186 349.906 270.898C349.611 270.602 349.253 270.455 348.834 270.455C348.395 270.455 348.024 270.609 347.721 270.918C347.426 271.228 347.278 271.623 347.278 272.104C347.278 272.585 347.426 272.983 347.721 273.299C348.017 273.608 348.388 273.763 348.834 273.763C349.26 273.763 349.621 273.619 349.916 273.33Z" fill="#242424"/>
<path d="M357.015 271.578V274.639H356.006V274.072C355.628 274.525 355.088 274.752 354.388 274.752C353.859 274.752 353.433 274.618 353.11 274.35C352.787 274.082 352.625 273.728 352.625 273.289C352.625 272.849 352.794 272.499 353.13 272.238C353.467 271.977 353.92 271.846 354.491 271.846H355.923V271.516C355.923 271.166 355.827 270.898 355.635 270.712C355.449 270.527 355.184 270.434 354.841 270.434C354.326 270.434 353.859 270.685 353.439 271.186L352.811 270.547C353.305 269.826 354.017 269.465 354.944 269.465C355.576 269.465 356.078 269.651 356.449 270.022C356.827 270.393 357.015 270.912 357.015 271.578ZM355.923 272.722V272.629H354.625C354.027 272.629 353.728 272.835 353.728 273.248C353.728 273.454 353.807 273.619 353.965 273.742C354.13 273.859 354.346 273.917 354.614 273.917C354.985 273.917 355.294 273.804 355.542 273.577C355.796 273.351 355.923 273.065 355.923 272.722Z" fill="#242424"/>
<path d="M362.046 269.579H363.2L360.737 275.216C360.524 275.697 360.27 276.047 359.975 276.267C359.679 276.494 359.315 276.607 358.882 276.607C358.594 276.607 358.315 276.573 358.047 276.504V275.587C358.329 275.614 358.528 275.628 358.645 275.628C359.167 275.628 359.535 275.381 359.748 274.886L359.954 274.412L357.934 269.579H359.099L360.552 273.258L362.046 269.579Z" fill="#242424"/>
<path d="M331.975 284.292C331.954 283.323 332.301 282.492 333.015 281.798C333.73 281.104 334.575 280.764 335.551 280.778C336.169 280.778 336.736 280.918 337.251 281.2C337.766 281.482 338.172 281.863 338.467 282.344L337.643 282.952C337.141 282.169 336.447 281.777 335.561 281.777C334.86 281.777 334.276 282.018 333.809 282.499C333.342 282.973 333.108 283.57 333.108 284.292C333.108 285.013 333.342 285.614 333.809 286.095C334.276 286.569 334.86 286.806 335.561 286.806C336.447 286.806 337.141 286.415 337.643 285.631L338.467 286.239C338.172 286.727 337.766 287.112 337.251 287.394C336.743 287.669 336.176 287.806 335.551 287.806C334.575 287.82 333.73 287.48 333.015 286.786C332.301 286.092 331.954 285.26 331.975 284.292Z" fill="#242424"/>
<path d="M343.671 284.632V287.693H342.661V287.126C342.283 287.579 341.743 287.806 341.043 287.806C340.514 287.806 340.088 287.672 339.765 287.404C339.442 287.136 339.28 286.782 339.28 286.343C339.28 285.903 339.449 285.552 339.785 285.291C340.122 285.03 340.575 284.9 341.146 284.9H342.578V284.57C342.578 284.22 342.482 283.952 342.29 283.766C342.104 283.581 341.84 283.488 341.496 283.488C340.981 283.488 340.514 283.739 340.094 284.24L339.466 283.601C339.96 282.88 340.672 282.519 341.599 282.519C342.231 282.519 342.733 282.705 343.104 283.076C343.482 283.447 343.671 283.965 343.671 284.632ZM342.578 285.776V285.683H341.28C340.682 285.683 340.383 285.889 340.383 286.301C340.383 286.507 340.462 286.672 340.62 286.796C340.785 286.913 341.001 286.971 341.269 286.971C341.64 286.971 341.949 286.858 342.197 286.631C342.451 286.404 342.578 286.119 342.578 285.776Z" fill="#242424"/>
<path d="M348.072 282.633V283.591H347.743C347.303 283.591 346.946 283.715 346.671 283.962C346.396 284.209 346.259 284.553 346.259 284.993V287.693H345.176V282.633H346.186V283.292C346.564 282.818 347.056 282.581 347.66 282.581C347.798 282.581 347.935 282.598 348.072 282.633Z" fill="#242424"/>
<path d="M352.784 279.963H353.877V287.693H352.867V286.971C352.475 287.528 351.884 287.806 351.094 287.806C350.387 287.806 349.796 287.555 349.322 287.054C348.855 286.545 348.621 285.917 348.621 285.168C348.607 284.426 348.841 283.797 349.322 283.282C349.803 282.76 350.394 282.505 351.094 282.519C351.823 282.519 352.386 282.763 352.784 283.251V279.963ZM352.362 286.384C352.657 286.095 352.805 285.69 352.805 285.168C352.805 284.646 352.654 284.24 352.352 283.952C352.056 283.656 351.699 283.508 351.28 283.508C350.84 283.508 350.469 283.663 350.167 283.972C349.871 284.281 349.724 284.676 349.724 285.157C349.724 285.638 349.871 286.037 350.167 286.353C350.462 286.662 350.833 286.817 351.28 286.817C351.706 286.817 352.066 286.672 352.362 286.384Z" fill="#242424"/>
<path d="M343.362 301.821C338.378 301.821 334.362 305.837 334.362 310.821C334.362 315.805 338.378 319.821 343.362 319.821C348.346 319.821 352.362 315.805 352.362 310.821C352.362 309.853 352.232 308.888 351.886 307.987L350.761 309.091C350.899 309.645 350.977 310.199 350.977 310.821C350.977 315.046 347.586 318.437 343.362 318.437C339.138 318.437 335.746 315.046 335.746 310.821C335.746 306.597 339.138 303.206 343.362 303.206C345.439 303.206 347.305 304.034 348.619 305.348L349.592 304.374C348 302.781 345.785 301.821 343.362 301.821ZM351.172 304.785L343.362 312.595L340.398 309.632L339.403 310.627L342.864 314.088L343.362 314.564L343.859 314.088L352.167 305.781L351.172 304.785Z" fill="#3EDC24"/>
<path d="M430.855 301.821C425.87 301.821 421.855 305.837 421.855 310.821C421.855 315.805 425.87 319.821 430.855 319.821C435.839 319.821 439.855 315.805 439.855 310.821C439.855 309.853 439.725 308.888 439.379 307.987L438.254 309.091C438.392 309.645 438.47 310.199 438.47 310.821C438.47 315.046 435.079 318.437 430.855 318.437C426.63 318.437 423.239 315.046 423.239 310.821C423.239 306.597 426.63 303.206 430.855 303.206C432.931 303.206 434.797 304.034 436.112 305.348L437.085 304.374C435.492 302.781 433.278 301.821 430.855 301.821ZM438.665 304.785L430.855 312.595L427.891 309.632L426.895 310.627L430.357 314.088L430.855 314.564L431.352 314.088L439.66 305.781L438.665 304.785Z" fill="#3EDC24"/>
<path d="M112.056 312.944H114.842V313.915H109.985V313.659C110.462 313.324 110.817 313.001 111.052 312.687C111.287 312.367 111.405 312.015 111.405 311.631C111.405 311.517 111.401 311.442 111.394 311.406H110.092V310.435H111.042L110.817 310.018C110.576 309.549 110.455 309.111 110.455 308.705C110.455 308.122 110.657 307.652 111.063 307.296C111.476 306.933 111.999 306.752 112.632 306.752C113.209 306.752 113.696 306.908 114.095 307.221C114.493 307.535 114.775 307.99 114.938 308.588L113.967 308.94C113.732 308.172 113.308 307.787 112.696 307.787C112.362 307.787 112.095 307.89 111.896 308.097C111.704 308.296 111.607 308.56 111.607 308.887C111.607 309.214 111.75 309.616 112.035 310.093C112.148 310.293 112.209 310.406 112.216 310.435H113.913V311.406H112.526C112.533 311.435 112.536 311.506 112.536 311.62C112.536 312.139 112.376 312.581 112.056 312.944Z" fill="#C4C4C4"/>
<path d="M118.011 306.869H118.406V313.915H117.275V308.204L115.844 308.663L115.567 307.67L118.011 306.869Z" fill="#C4C4C4"/>
<path d="M120.292 315.815L120.399 312.783H121.701L121.2 315.815H120.292Z" fill="#C4C4C4"/>
<path d="M128.131 312.079C128.131 312.67 127.892 313.143 127.416 313.499C126.946 313.855 126.334 314.033 125.579 314.033C124.818 314.033 124.199 313.855 123.722 313.499C123.245 313.143 123.007 312.67 123.007 312.079C123.007 311.232 123.515 310.623 124.533 310.253C123.736 309.819 123.338 309.253 123.338 308.556C123.338 307.987 123.547 307.545 123.967 307.232C124.394 306.912 124.932 306.752 125.579 306.752C126.22 306.752 126.75 306.912 127.17 307.232C127.59 307.545 127.8 307.987 127.8 308.556C127.8 309.261 127.401 309.826 126.604 310.253C127.622 310.631 128.131 311.239 128.131 312.079ZM124.416 308.599C124.416 308.848 124.501 309.054 124.672 309.218C124.85 309.382 125.149 309.556 125.569 309.741C125.989 309.563 126.284 309.392 126.455 309.229C126.633 309.058 126.722 308.848 126.722 308.599C126.722 308.321 126.615 308.1 126.401 307.937C126.195 307.766 125.921 307.681 125.579 307.681C125.231 307.681 124.95 307.766 124.736 307.937C124.523 308.1 124.416 308.321 124.416 308.599ZM126.989 312.036C126.989 311.73 126.878 311.485 126.658 311.3C126.437 311.115 126.074 310.929 125.569 310.744C125.071 310.922 124.708 311.107 124.48 311.3C124.259 311.492 124.149 311.737 124.149 312.036C124.149 312.364 124.273 312.623 124.523 312.816C124.779 313.001 125.131 313.093 125.579 313.093C126.028 313.093 126.373 313.001 126.615 312.816C126.864 312.623 126.989 312.364 126.989 312.036Z" fill="#C4C4C4"/>
<path d="M134.494 311.716V312.687H133.533V313.915H132.401V312.687H128.878V312.378L131.131 306.869H132.294L130.298 311.716H132.401V309.549H133.533V311.716H134.494Z" fill="#C4C4C4"/>
<path d="M135.332 310.328C135.332 309.253 135.56 308.392 136.015 307.745C136.471 307.083 137.14 306.752 138.022 306.752C138.905 306.752 139.57 307.079 140.018 307.734C140.474 308.382 140.702 309.246 140.702 310.328C140.702 311.424 140.47 312.317 140.008 313.008C139.552 313.691 138.89 314.033 138.022 314.033C137.154 314.033 136.488 313.687 136.026 312.997C135.563 312.307 135.332 311.417 135.332 310.328ZM139.527 310.339C139.527 308.638 139.026 307.787 138.022 307.787C137.012 307.787 136.506 308.638 136.506 310.339C136.506 312.111 137.012 312.997 138.022 312.997C139.026 312.997 139.527 312.111 139.527 310.339Z" fill="#C4C4C4"/>
<path d="M142.071 315.815L142.177 312.783H143.48L142.978 315.815H142.071Z" fill="#C4C4C4"/>
<path d="M144.788 310.328C144.788 309.253 145.015 308.392 145.471 307.745C145.926 307.083 146.595 306.752 147.478 306.752C148.36 306.752 149.026 307.079 149.474 307.734C149.93 308.382 150.158 309.246 150.158 310.328C150.158 311.424 149.926 312.317 149.464 313.008C149.008 313.691 148.346 314.033 147.478 314.033C146.61 314.033 145.944 313.687 145.482 312.997C145.019 312.307 144.788 311.417 144.788 310.328ZM148.983 310.339C148.983 308.638 148.481 307.787 147.478 307.787C146.467 307.787 145.962 308.638 145.962 310.339C145.962 312.111 146.467 312.997 147.478 312.997C148.481 312.997 148.983 312.111 148.983 310.339Z" fill="#C4C4C4"/>
<path d="M151.46 310.328C151.46 309.253 151.688 308.392 152.143 307.745C152.599 307.083 153.268 306.752 154.15 306.752C155.033 306.752 155.698 307.079 156.147 307.734C156.602 308.382 156.83 309.246 156.83 310.328C156.83 311.424 156.598 312.317 156.136 313.008C155.68 313.691 155.018 314.033 154.15 314.033C153.282 314.033 152.616 313.687 152.154 312.997C151.691 312.307 151.46 311.417 151.46 310.328ZM155.655 310.339C155.655 308.638 155.154 307.787 154.15 307.787C153.14 307.787 152.634 308.638 152.634 310.339C152.634 312.111 153.14 312.997 154.15 312.997C155.154 312.997 155.655 312.111 155.655 310.339Z" fill="#C4C4C4"/>
<path d="M158.132 310.328C158.132 309.253 158.36 308.392 158.815 307.745C159.271 307.083 159.94 306.752 160.822 306.752C161.705 306.752 162.37 307.079 162.819 307.734C163.274 308.382 163.502 309.246 163.502 310.328C163.502 311.424 163.271 312.317 162.808 313.008C162.353 313.691 161.691 314.033 160.822 314.033C159.954 314.033 159.289 313.687 158.826 312.997C158.364 312.307 158.132 311.417 158.132 310.328ZM162.328 310.339C162.328 308.638 161.826 307.787 160.822 307.787C159.812 307.787 159.307 308.638 159.307 310.339C159.307 312.111 159.812 312.997 160.822 312.997C161.826 312.997 162.328 312.111 162.328 310.339Z" fill="#C4C4C4"/>
<path d="M110.293 279.887V273.281H114.536V274.232H111.354V276.204H113.976V277.164H111.354V279.887H110.293Z" fill="#242424"/>
<path d="M115.52 277.214V273.281H116.581V277.285C116.581 277.832 116.731 278.259 117.031 278.566C117.338 278.873 117.742 279.026 118.242 279.026C118.736 279.026 119.133 278.873 119.433 278.566C119.733 278.259 119.884 277.832 119.884 277.285V273.281H120.945V277.214C120.945 278.069 120.691 278.746 120.184 279.246C119.683 279.747 119.036 279.997 118.242 279.997C117.435 279.997 116.778 279.747 116.271 279.246C115.77 278.746 115.52 278.069 115.52 277.214Z" fill="#242424"/>
<path d="M128.454 273.171H128.814V279.887H127.754V275.743L125.862 278.225H125.502L123.6 275.733V279.887H122.539V273.171H122.91L125.682 276.864L128.454 273.171Z" fill="#242424"/>
<path d="M143.824 278.552L140.646 274.549L147.002 274.549L143.824 278.552Z" fill="#242424"/>
<path d="M183.057 278.566L183.807 277.995C184.288 278.696 184.865 279.046 185.539 279.046C185.879 279.046 186.153 278.963 186.36 278.796C186.573 278.629 186.68 278.405 186.68 278.125C186.68 277.898 186.61 277.722 186.47 277.595C186.329 277.461 186.076 277.308 185.709 277.134L184.978 276.794C184.465 276.561 184.078 276.304 183.817 276.023C183.564 275.737 183.437 275.383 183.437 274.963C183.437 274.435 183.637 274.005 184.038 273.672C184.438 273.338 184.932 273.171 185.519 273.171C185.979 273.171 186.396 273.278 186.77 273.491C187.15 273.705 187.444 273.992 187.651 274.352L186.91 274.923C186.55 274.389 186.086 274.122 185.519 274.122C185.225 274.122 184.985 274.192 184.798 274.332C184.611 274.472 184.518 274.669 184.518 274.923C184.525 275.043 184.538 275.143 184.558 275.223C184.585 275.296 184.648 275.376 184.748 275.463C184.848 275.543 184.918 275.593 184.958 275.613C184.998 275.633 185.128 275.7 185.349 275.813C185.389 275.833 185.419 275.85 185.439 275.863L186.179 276.204C186.733 276.457 187.134 276.727 187.38 277.014C187.634 277.301 187.761 277.658 187.761 278.085C187.761 278.652 187.551 279.113 187.13 279.466C186.716 279.82 186.189 279.997 185.549 279.997C185.015 279.997 184.531 279.87 184.098 279.616C183.664 279.363 183.317 279.013 183.057 278.566Z" fill="#242424"/>
<path d="M193.471 277.775H189.808C189.875 278.175 190.052 278.492 190.339 278.726C190.632 278.953 190.989 279.066 191.41 279.066C191.93 279.066 192.407 278.873 192.841 278.486L193.341 279.206C192.787 279.733 192.134 279.997 191.38 279.997C190.632 279.997 190.005 279.753 189.498 279.266C188.991 278.772 188.737 278.162 188.737 277.435C188.724 276.727 188.971 276.12 189.478 275.613C189.985 275.099 190.586 274.849 191.28 274.863C191.927 274.863 192.467 275.079 192.901 275.513C193.335 275.94 193.551 276.474 193.551 277.114C193.551 277.308 193.525 277.528 193.471 277.775ZM189.828 276.954H192.501C192.494 276.587 192.37 276.297 192.13 276.084C191.89 275.863 191.593 275.753 191.24 275.753C190.893 275.753 190.589 275.863 190.329 276.084C190.075 276.297 189.908 276.587 189.828 276.954Z" fill="#242424"/>
<path d="M198.609 274.973H199.58V279.376C199.58 280.144 199.356 280.737 198.909 281.158C198.469 281.585 197.872 281.798 197.118 281.798C196.21 281.798 195.423 281.488 194.756 280.868L195.336 280.137C195.917 280.604 196.49 280.838 197.058 280.838C197.511 280.838 197.868 280.717 198.128 280.477C198.395 280.237 198.529 279.89 198.529 279.436V279.086C198.142 279.553 197.588 279.787 196.867 279.787C196.18 279.787 195.61 279.556 195.156 279.096C194.702 278.629 194.475 278.039 194.475 277.325C194.475 276.611 194.702 276.023 195.156 275.563C195.61 275.096 196.18 274.863 196.867 274.863C197.648 274.863 198.229 275.133 198.609 275.673V274.973ZM198.539 277.315C198.539 276.834 198.399 276.464 198.118 276.204C197.838 275.937 197.485 275.803 197.058 275.803C196.631 275.803 196.274 275.943 195.987 276.224C195.7 276.504 195.556 276.871 195.556 277.325C195.556 277.785 195.7 278.159 195.987 278.446C196.28 278.726 196.637 278.866 197.058 278.866C197.465 278.866 197.811 278.732 198.098 278.466C198.392 278.192 198.539 277.808 198.539 277.315Z" fill="#242424"/>
<path d="M208.475 276.814V279.887H207.414V276.964C207.414 276.617 207.321 276.34 207.134 276.134C206.954 275.927 206.707 275.823 206.393 275.823C206.073 275.823 205.813 275.927 205.613 276.134C205.412 276.334 205.312 276.594 205.312 276.914V279.887H204.261V276.964C204.261 276.624 204.168 276.35 203.981 276.144C203.794 275.93 203.544 275.823 203.231 275.823C202.91 275.823 202.65 275.93 202.45 276.144C202.25 276.35 202.15 276.624 202.15 276.964V279.887H201.099V274.973H202.08V275.433C202.447 275.053 202.92 274.863 203.501 274.863C204.181 274.863 204.678 275.119 204.992 275.633C205.386 275.119 205.94 274.863 206.653 274.863C207.214 274.863 207.658 275.043 207.985 275.403C208.311 275.757 208.475 276.227 208.475 276.814Z" fill="#242424"/>
<path d="M214.358 277.775H210.695C210.762 278.175 210.938 278.492 211.225 278.726C211.519 278.953 211.876 279.066 212.296 279.066C212.817 279.066 213.294 278.873 213.727 278.486L214.228 279.206C213.674 279.733 213.02 279.997 212.266 279.997C211.519 279.997 210.892 279.753 210.385 279.266C209.878 278.772 209.624 278.162 209.624 277.435C209.611 276.727 209.858 276.12 210.365 275.613C210.872 275.099 211.472 274.849 212.166 274.863C212.813 274.863 213.354 275.079 213.788 275.513C214.221 275.94 214.438 276.474 214.438 277.114C214.438 277.308 214.411 277.528 214.358 277.775ZM210.715 276.954H213.387C213.381 276.587 213.257 276.297 213.017 276.084C212.777 275.863 212.48 275.753 212.126 275.753C211.779 275.753 211.476 275.863 211.215 276.084C210.962 276.297 210.795 276.587 210.715 276.954Z" fill="#242424"/>
<path d="M219.936 276.814V279.887H218.885V276.954C218.885 276.614 218.785 276.34 218.585 276.134C218.391 275.92 218.134 275.813 217.814 275.813C217.487 275.813 217.217 275.92 217.003 276.134C216.796 276.347 216.693 276.621 216.693 276.954V279.887H215.642V274.973H216.623V275.453C216.997 275.059 217.487 274.863 218.094 274.863C218.661 274.863 219.108 275.039 219.435 275.393C219.769 275.747 219.936 276.22 219.936 276.814Z" fill="#242424"/>
<path d="M224.321 278.996V279.887C223.974 279.96 223.684 279.997 223.451 279.997C222.877 279.997 222.43 279.853 222.11 279.566C221.796 279.28 221.639 278.853 221.639 278.285V275.883H220.838V274.973H221.639V273.682H222.7V274.973H224.161V275.883H222.7V278.195C222.7 278.502 222.777 278.722 222.93 278.856C223.09 278.983 223.337 279.046 223.671 279.046C223.784 279.046 224.001 279.029 224.321 278.996Z" fill="#242424"/>
<path d="M229.29 276.914V279.887H228.309V279.336C227.942 279.777 227.418 279.997 226.738 279.997C226.224 279.997 225.81 279.867 225.497 279.606C225.183 279.346 225.026 279.003 225.026 278.576C225.026 278.149 225.19 277.808 225.517 277.555C225.844 277.301 226.284 277.174 226.838 277.174H228.229V276.854C228.229 276.514 228.136 276.254 227.949 276.074C227.769 275.893 227.512 275.803 227.178 275.803C226.678 275.803 226.224 276.047 225.817 276.534L225.207 275.913C225.687 275.213 226.377 274.863 227.278 274.863C227.892 274.863 228.379 275.043 228.739 275.403C229.106 275.763 229.29 276.267 229.29 276.914ZM228.229 278.025V277.935H226.968C226.388 277.935 226.097 278.135 226.097 278.536C226.097 278.736 226.174 278.896 226.327 279.016C226.488 279.129 226.698 279.186 226.958 279.186C227.318 279.186 227.619 279.076 227.859 278.856C228.106 278.636 228.229 278.359 228.229 278.025Z" fill="#242424"/>
<path d="M233.675 278.996V279.887C233.328 279.96 233.038 279.997 232.804 279.997C232.23 279.997 231.783 279.853 231.463 279.566C231.149 279.28 230.993 278.853 230.993 278.285V275.883H230.192V274.973H230.993V273.682H232.054V274.973H233.515V275.883H232.054V278.195C232.054 278.502 232.13 278.722 232.284 278.856C232.444 278.983 232.691 279.046 233.024 279.046C233.138 279.046 233.355 279.029 233.675 278.996Z" fill="#242424"/>
<path d="M234.74 279.887V274.973H235.791V279.887H234.74ZM234.76 273.631C234.62 273.498 234.55 273.335 234.55 273.141C234.55 272.948 234.62 272.784 234.76 272.651C234.9 272.511 235.07 272.44 235.271 272.44C235.464 272.44 235.631 272.511 235.771 272.651C235.911 272.784 235.981 272.948 235.981 273.141C235.981 273.335 235.911 273.498 235.771 273.631C235.631 273.765 235.464 273.832 235.271 273.832C235.07 273.832 234.9 273.765 234.76 273.631Z" fill="#242424"/>
<path d="M237 277.425C236.987 276.724 237.237 276.12 237.751 275.613C238.271 275.099 238.885 274.849 239.593 274.863C240.307 274.849 240.924 275.099 241.444 275.613C241.965 276.127 242.218 276.731 242.205 277.425C242.218 278.125 241.965 278.732 241.444 279.246C240.924 279.76 240.307 280.01 239.593 279.997C238.885 280.01 238.271 279.76 237.751 279.246C237.237 278.726 236.987 278.119 237 277.425ZM241.124 277.435C241.124 276.981 240.977 276.601 240.684 276.294C240.39 275.98 240.03 275.823 239.603 275.823C239.169 275.823 238.805 275.98 238.512 276.294C238.218 276.601 238.071 276.981 238.071 277.435C238.071 277.888 238.215 278.269 238.502 278.576C238.795 278.876 239.159 279.026 239.593 279.026C240.026 279.026 240.39 278.873 240.684 278.566C240.977 278.259 241.124 277.882 241.124 277.435Z" fill="#242424"/>
<path d="M247.703 276.814V279.887H246.652V276.954C246.652 276.614 246.552 276.34 246.352 276.134C246.159 275.92 245.902 275.813 245.581 275.813C245.254 275.813 244.984 275.92 244.771 276.134C244.564 276.347 244.46 276.621 244.46 276.954V279.887H243.41V274.973H244.39V275.453C244.764 275.059 245.254 274.863 245.862 274.863C246.429 274.863 246.876 275.039 247.203 275.393C247.536 275.747 247.703 276.22 247.703 276.814Z" fill="#242424"/>
<path d="M259.921 278.552L256.743 274.549L263.099 274.549L259.921 278.552Z" fill="#242424"/>
<path d="M182.189 304.574C182.189 302.732 183.683 301.238 185.525 301.238H269.596C271.438 301.238 272.932 302.732 272.932 304.574V317.251C272.932 319.094 271.438 320.587 269.596 320.587H185.525C183.683 320.587 182.189 319.094 182.189 317.251V304.574Z" fill="white"/>
<path fill-rule="evenodd" clip-rule="evenodd" d="M269.596 301.905H185.525C184.051 301.905 182.856 303.1 182.856 304.574V317.251C182.856 318.725 184.051 319.92 185.525 319.92H269.596C271.07 319.92 272.265 318.725 272.265 317.251V304.574C272.265 303.1 271.07 301.905 269.596 301.905ZM185.525 301.238C183.683 301.238 182.189 302.732 182.189 304.574V317.251C182.189 319.094 183.683 320.587 185.525 320.587H269.596C271.438 320.587 272.932 319.094 272.932 317.251V304.574C272.932 302.732 271.438 301.238 269.596 301.238H185.525Z" fill="#C4C4C4"/>
<path d="M193.81 313.915L193.308 312.741H190.137L189.635 313.915H188.429L191.536 306.752H191.92L195.027 313.915H193.81ZM192.902 311.769L191.728 308.855L190.543 311.769H192.902Z" fill="#242424"/>
<path d="M200.878 313.915L200.376 312.741H197.206L196.704 313.915H195.497L198.604 306.752H198.988L202.095 313.915H200.878ZM199.971 311.769L198.796 308.855L197.611 311.769H199.971Z" fill="#242424"/>
<path d="M207.946 313.915L207.445 312.741H204.274L203.772 313.915H202.566L205.672 306.752H206.057L209.163 313.915H207.946ZM207.039 311.769L205.865 308.855L204.68 311.769H207.039Z" fill="#242424"/>
<path d="M262.59 313.248L259.412 309.245L265.768 309.245L262.59 313.248Z" fill="#048DFD"/>
<path fill-rule="evenodd" clip-rule="evenodd" d="M288.278 328.594L288.278 293.231L288.945 293.231L288.945 328.594L288.278 328.594Z" fill="#E5E5E5"/>
<path d="M72.3474 305.241C70.8332 305.241 69.5951 306.479 69.5951 307.993C69.5951 308.448 69.7708 308.913 69.9965 309.427C70.2222 309.941 70.507 310.486 70.7992 310.989C71.3832 311.996 71.9747 312.839 71.9747 312.839L72.3474 313.383L72.7201 312.839C72.7201 312.839 73.3112 311.996 73.8956 310.989C74.1878 310.486 74.4726 309.941 74.6983 309.427C74.924 308.913 75.0997 308.448 75.0997 307.993C75.0997 306.479 73.8616 305.241 72.3474 305.241ZM67.7459 306.13L64.0905 307.692V316.494L67.7746 314.903L71.4443 316.279L75.0997 314.716V310.717C74.8075 311.278 74.4832 311.815 74.1823 312.294V314.114L71.8887 315.089V314.344L71.215 313.369C71.1434 313.265 71.0589 313.141 70.9713 313.011V315.132L68.219 314.1V307.277L68.7207 307.463C68.7656 307.153 68.846 306.854 68.9644 306.574L67.7459 306.13ZM72.3474 306.159C73.3653 306.159 74.1823 306.975 74.1823 307.993C74.1823 308.171 74.0715 308.59 73.8669 309.054C73.6628 309.518 73.374 310.045 73.0928 310.531C72.7185 311.176 72.557 311.406 72.3474 311.721C72.1378 311.406 71.9763 311.176 71.602 310.531C71.3208 310.045 71.0325 309.518 70.8279 309.054C70.6238 308.59 70.5125 308.171 70.5125 307.993C70.5125 306.975 71.3295 306.159 72.3474 306.159ZM67.3015 307.305V314.114L65.0079 315.089V308.294L67.3015 307.305Z" fill="#048DFD"/>
<path d="M55.9123 279.887L55.4419 278.786H52.4694L51.999 279.887H50.8681L53.7805 273.171H54.1408L57.0533 279.887H55.9123ZM55.0616 277.875L53.9607 275.143L52.8498 277.875H55.0616Z" fill="#242424"/>
<path d="M61.6022 272.38H62.663V279.887H61.6822V279.186C61.3019 279.727 60.7281 279.997 59.9608 279.997C59.2735 279.997 58.6997 279.753 58.2393 279.266C57.7856 278.772 57.5588 278.162 57.5588 277.435C57.5454 276.714 57.7723 276.104 58.2393 275.603C58.7064 275.096 59.2802 274.849 59.9608 274.863C60.668 274.863 61.2152 275.099 61.6022 275.573V272.38ZM61.1918 278.616C61.4787 278.335 61.6222 277.942 61.6222 277.435C61.6222 276.928 61.4754 276.534 61.1818 276.254C60.8949 275.967 60.5479 275.823 60.1409 275.823C59.7139 275.823 59.3536 275.973 59.06 276.274C58.7731 276.574 58.6297 276.958 58.6297 277.425C58.6297 277.892 58.7731 278.279 59.06 278.586C59.3469 278.886 59.7072 279.036 60.1409 279.036C60.5546 279.036 60.9049 278.896 61.1918 278.616Z" fill="#242424"/>
<path d="M67.916 272.38H68.9769V279.887H67.9961V279.186C67.6158 279.727 67.042 279.997 66.2746 279.997C65.5874 279.997 65.0136 279.753 64.5532 279.266C64.0995 278.772 63.8726 278.162 63.8726 277.435C63.8593 276.714 64.0862 276.104 64.5532 275.603C65.0203 275.096 65.5941 274.849 66.2746 274.863C66.9819 274.863 67.529 275.099 67.916 275.573V272.38ZM67.5057 278.616C67.7926 278.335 67.936 277.942 67.936 277.435C67.936 276.928 67.7892 276.534 67.4957 276.254C67.2088 275.967 66.8618 275.823 66.4548 275.823C66.0278 275.823 65.6675 275.973 65.3739 276.274C65.087 276.574 64.9435 276.958 64.9435 277.425C64.9435 277.892 65.087 278.279 65.3739 278.586C65.6608 278.886 66.0211 279.036 66.4548 279.036C66.8685 279.036 67.2188 278.896 67.5057 278.616Z" fill="#242424"/>
<path d="M73.3091 274.973V275.903H72.9889C72.5618 275.903 72.2149 276.023 71.948 276.264C71.6811 276.504 71.5476 276.837 71.5476 277.265V279.887H70.4968V274.973H71.4776V275.613C71.8446 275.153 72.3216 274.923 72.9088 274.923C73.0422 274.923 73.1757 274.939 73.3091 274.973Z" fill="#242424"/>
<path d="M78.5759 277.775H74.9128C74.9795 278.175 75.1563 278.492 75.4432 278.726C75.7368 278.953 76.0938 279.066 76.5141 279.066C77.0346 279.066 77.5116 278.873 77.9453 278.486L78.4458 279.206C77.892 279.733 77.2381 279.997 76.4841 279.997C75.7368 279.997 75.1096 279.753 74.6025 279.266C74.0955 278.772 73.8419 278.162 73.8419 277.435C73.8286 276.727 74.0754 276.12 74.5825 275.613C75.0896 275.099 75.6901 274.849 76.384 274.863C77.0312 274.863 77.5717 275.079 78.0054 275.513C78.4391 275.94 78.6559 276.474 78.6559 277.114C78.6559 277.308 78.6292 277.528 78.5759 277.775ZM74.9328 276.954H77.6051C77.5984 276.587 77.4749 276.297 77.2347 276.084C76.9945 275.863 76.6976 275.753 76.344 275.753C75.997 275.753 75.6935 275.863 75.4332 276.084C75.1797 276.297 75.0129 276.587 74.9328 276.954Z" fill="#242424"/>
<path d="M79.3997 279.046L80.0002 278.385C80.4472 278.853 80.9076 279.086 81.3813 279.086C81.6149 279.086 81.805 279.039 81.9518 278.946C82.0986 278.846 82.172 278.709 82.172 278.536C82.172 278.402 82.122 278.295 82.0219 278.215C81.9218 278.129 81.7416 278.032 81.4814 277.925L80.981 277.715C80.534 277.528 80.207 277.328 80.0002 277.114C79.8 276.894 79.6999 276.617 79.6999 276.284C79.6999 275.85 79.8601 275.506 80.1803 275.253C80.5073 274.993 80.9243 274.863 81.4314 274.863C82.1386 274.863 82.7058 275.116 83.1328 275.623L82.5623 276.274C82.2421 275.94 81.8584 275.773 81.4114 275.773C80.9643 275.773 80.7408 275.93 80.7408 276.244C80.7408 276.364 80.7875 276.467 80.8809 276.554C80.9743 276.634 81.1445 276.724 81.3913 276.824L81.8617 277.014C82.3355 277.214 82.6758 277.428 82.8826 277.655C83.0961 277.875 83.2029 278.155 83.2029 278.496C83.2029 278.969 83.0294 279.34 82.6824 279.606C82.3355 279.867 81.9018 279.997 81.3813 279.997C80.5473 279.997 79.8868 279.68 79.3997 279.046Z" fill="#242424"/>
<path d="M83.9543 279.046L84.5548 278.385C85.0018 278.853 85.4622 279.086 85.9359 279.086C86.1695 279.086 86.3596 279.039 86.5064 278.946C86.6532 278.846 86.7266 278.709 86.7266 278.536C86.7266 278.402 86.6765 278.295 86.5765 278.215C86.4764 278.129 86.2962 278.032 86.036 277.925L85.5356 277.715C85.0885 277.528 84.7616 277.328 84.5548 277.114C84.3546 276.894 84.2545 276.617 84.2545 276.284C84.2545 275.85 84.4146 275.506 84.7349 275.253C85.0619 274.993 85.4789 274.863 85.986 274.863C86.6932 274.863 87.2604 275.116 87.6874 275.623L87.1169 276.274C86.7966 275.94 86.413 275.773 85.9659 275.773C85.5189 275.773 85.2954 275.93 85.2954 276.244C85.2954 276.364 85.3421 276.467 85.4355 276.554C85.5289 276.634 85.6991 276.724 85.9459 276.824L86.4163 277.014C86.89 277.214 87.2303 277.428 87.4372 277.655C87.6507 277.875 87.7574 278.155 87.7574 278.496C87.7574 278.969 87.584 279.34 87.237 279.606C86.8901 279.867 86.4564 279.997 85.9359 279.997C85.1019 279.997 84.4413 279.68 83.9543 279.046Z" fill="#242424"/>
</g>
<path d="M327.068 195.741H325.786L323.794 193.039H322.512V195.741H321.388V188.748H323.942C324.648 188.748 325.221 188.949 325.659 189.352C326.097 189.748 326.316 190.26 326.316 190.888C326.316 191.348 326.195 191.75 325.955 192.096C325.722 192.443 325.394 192.697 324.97 192.859L327.068 195.741ZM322.512 189.744V192.043H323.921C324.302 192.043 324.603 191.941 324.822 191.736C325.048 191.524 325.161 191.245 325.161 190.899C325.161 190.553 325.048 190.274 324.822 190.062C324.603 189.85 324.302 189.744 323.921 189.744H322.512Z" fill="#242424"/>
<path d="M332.527 193.506H328.649C328.72 193.929 328.907 194.265 329.211 194.512C329.521 194.752 329.899 194.873 330.344 194.873C330.895 194.873 331.4 194.668 331.86 194.258L332.389 195.021C331.803 195.579 331.111 195.858 330.313 195.858C329.521 195.858 328.857 195.6 328.32 195.084C327.784 194.562 327.515 193.915 327.515 193.145C327.501 192.397 327.762 191.754 328.299 191.217C328.836 190.673 329.472 190.408 330.207 190.422C330.892 190.422 331.464 190.652 331.923 191.111C332.382 191.563 332.612 192.128 332.612 192.806C332.612 193.011 332.584 193.244 332.527 193.506ZM328.67 192.637H331.499C331.492 192.248 331.362 191.941 331.107 191.715C330.853 191.482 330.539 191.365 330.164 191.365C329.797 191.365 329.475 191.482 329.2 191.715C328.932 191.941 328.755 192.248 328.67 192.637Z" fill="#242424"/>
<path d="M337.304 190.539H338.49L335.979 195.858H335.598L333.076 190.539H334.263L335.788 193.982L337.304 190.539Z" fill="#242424"/>
<path d="M339.495 195.741V190.539H340.608V195.741H339.495ZM339.516 189.119C339.368 188.978 339.294 188.805 339.294 188.6C339.294 188.395 339.368 188.222 339.516 188.08C339.665 187.932 339.845 187.858 340.057 187.858C340.262 187.858 340.438 187.932 340.587 188.08C340.735 188.222 340.809 188.395 340.809 188.6C340.809 188.805 340.735 188.978 340.587 189.119C340.438 189.26 340.262 189.331 340.057 189.331C339.845 189.331 339.665 189.26 339.516 189.119Z" fill="#242424"/>
<path d="M346.9 193.506H343.022C343.093 193.929 343.28 194.265 343.583 194.512C343.894 194.752 344.272 194.873 344.717 194.873C345.268 194.873 345.773 194.668 346.232 194.258L346.762 195.021C346.176 195.579 345.484 195.858 344.685 195.858C343.894 195.858 343.23 195.6 342.693 195.084C342.157 194.562 341.888 193.915 341.888 193.145C341.874 192.397 342.135 191.754 342.672 191.217C343.209 190.673 343.845 190.408 344.579 190.422C345.265 190.422 345.837 190.652 346.296 191.111C346.755 191.563 346.985 192.128 346.985 192.806C346.985 193.011 346.957 193.244 346.9 193.506ZM343.043 192.637H345.872C345.865 192.248 345.734 191.941 345.48 191.715C345.226 191.482 344.911 191.365 344.537 191.365C344.17 191.365 343.848 191.482 343.573 191.715C343.304 191.941 343.128 192.248 343.043 192.637Z" fill="#242424"/>
<path d="M354.908 190.539H356.095L353.785 195.858H353.404L351.772 192.393L350.14 195.858H349.759L347.449 190.539H348.635L350.002 193.94L351.581 190.422H351.963L353.563 193.898L354.908 190.539Z" fill="#242424"/>
<path d="M361.942 188.748H362.334V195.741H361.211V190.073L359.791 190.528L359.515 189.543L361.942 188.748Z" fill="#242424"/>
</g>
<defs>
<filter id="filter0_d" x="-137.736" y="198.145" width="897.398" height="57.3629" filterUnits="userSpaceOnUse" color-interpolation-filters="sRGB">
<feFlood flood-opacity="0" result="BackgroundImageFix"/>
<feColorMatrix in="SourceAlpha" type="matrix" values="0 0 0 0 0 0 0 0 0 0 0 0 0 0 0 0 0 0 127 0"/>
<feOffset/>
<feGaussianBlur stdDeviation="5.5"/>
<feColorMatrix type="matrix" values="0 0 0 0 0 0 0 0 0 0 0 0 0 0 0 0 0 0 0.1 0"/>
<feBlend mode="normal" in2="BackgroundImageFix" result="effect1_dropShadow"/>
<feBlend mode="normal" in="SourceGraphic" in2="effect1_dropShadow" result="shape"/>
</filter>
<filter id="filter1_d" x="-137.736" y="282.231" width="897.398" height="57.3629" filterUnits="userSpaceOnUse" color-interpolation-filters="sRGB">
<feFlood flood-opacity="0" result="BackgroundImageFix"/>
<feColorMatrix in="SourceAlpha" type="matrix" values="0 0 0 0 0 0 0 0 0 0 0 0 0 0 0 0 0 0 127 0"/>
<feOffset/>
<feGaussianBlur stdDeviation="5.5"/>
<feColorMatrix type="matrix" values="0 0 0 0 0 0 0 0 0 0 0 0 0 0 0 0 0 0 0.1 0"/>
<feBlend mode="normal" in2="BackgroundImageFix" result="effect1_dropShadow"/>
<feBlend mode="normal" in="SourceGraphic" in2="effect1_dropShadow" result="shape"/>
</filter>
<linearGradient id="paint0_linear" x1="238.014" y1="34.2933" x2="238.014" y2="482.291" gradientUnits="userSpaceOnUse">
<stop stop-color="#ED0874"/>
<stop offset="1" stop-color="#048DFD"/>
</linearGradient>
<linearGradient id="paint1_linear" x1="300.948" y1="43.3161" x2="175.079" y2="473.268" gradientUnits="userSpaceOnUse">
<stop stop-color="#ED0874"/>
<stop offset="1" stop-color="#048DFD"/>
</linearGradient>
<linearGradient id="paint2_linear" x1="29.1455" y1="216.332" x2="428.855" y2="216.332" gradientUnits="userSpaceOnUse">
<stop stop-opacity="0"/>
<stop offset="0.0572917" stop-color="#8C8C8C"/>
<stop offset="0.473958" stop-color="white"/>
<stop offset="0.958333" stop-color="#9A9A9A"/>
<stop offset="1" stop-opacity="0"/>
</linearGradient>
<linearGradient id="paint3_linear" x1="31.1455" y1="296.332" x2="430.855" y2="296.332" gradientUnits="userSpaceOnUse">
<stop stop-opacity="0"/>
<stop offset="0.0572917" stop-color="#8C8C8C"/>
<stop offset="0.473958" stop-color="white"/>
<stop offset="0.958333" stop-color="#9A9A9A"/>
<stop offset="1" stop-opacity="0"/>
</linearGradient>
<clipPath id="clip0">
<rect width="460" height="520" fill="white"/>
</clipPath>
</defs>
</svg>
