<svg xmlns="http://www.w3.org/2000/svg" xmlns:xlink="http://www.w3.org/1999/xlink" viewBox="0 0 473.97 252.49">
  <defs>
    <linearGradient id="linear-gradient" x1="10.02" y1="137.51" x2="395.21" y2="137.51" gradientUnits="userSpaceOnUse">
      <stop offset="0" stop-color="#008fff"/>
      <stop offset="1" stop-color="#ed0874"/>
    </linearGradient>
    <linearGradient id="linear-gradient-2" x1="10.02" y1="87.07" x2="395.21" y2="87.07" xlink:href="#linear-gradient"/>
    <linearGradient id="linear-gradient-3" x1="10.02" y1="110.71" x2="395.21" y2="110.71" xlink:href="#linear-gradient"/>
    <linearGradient id="linear-gradient-4" x1="10.02" y1="113.45" x2="395.21" y2="113.45" xlink:href="#linear-gradient"/>
  </defs>
  <g id="Layer_2" data-name="Layer 2">
    <g id="Layer_1-2" data-name="Layer 1">
      <g>
        <path d="M305.25,189.42c-15.05,0-22.37,10.82-22.37,22.51,0,12.1,7.87,22.64,22.37,22.64,5.47,0,12-2.39,15.59-6.36V213.84H302.92v-2H323v17.31a24.4,24.4,0,0,1-17.78,7.52c-15.87,0-24.56-11.49-24.56-24.69,0-15.32,10.47-24.7,24.56-24.7a23.59,23.59,0,0,1,17,7.12L320.84,196a21.77,21.77,0,0,0-15.59-6.57" style="fill: #008fff"/>
        <path d="M335,205.84l-.21,4.65A12.5,12.5,0,0,1,347,201.88a13.7,13.7,0,0,1,6.58,1.64l-.9,1.71a11.61,11.61,0,0,0-5.68-1.44,12,12,0,0,0-11.83,12v20.18H333V202.15h2Z" style="fill: #008fff"/>
        <path d="M372.61,201.74c9.17,0,17.1,6.84,17.1,17.58,0,11-8.07,17.37-17.16,17.37s-17.1-6.36-17.1-17.37,7.86-17.58,17.16-17.58m-.06,2c-8,0-15.05,5.95-15.05,15.6s7,15.39,15.05,15.39,15.11-5.75,15.11-15.39-6.91-15.6-15.11-15.6" style="fill: #008fff"/>
        <path d="M426.51,235.94l.06-7.66a14.52,14.52,0,0,1-13.33,8.27c-9.38,0-14.57-5.4-14.57-14.5v-19.9h2.05V222c0,8.35,4.58,12.59,12.31,12.59a13.19,13.19,0,0,0,13.48-13.2V202.15h2.05v33.79Z" style="fill: #008fff"/>
        <path d="M442.24,206.46l-.42,4.86c2.4-6.64,9.1-9.58,15.05-9.58,9.3,0,17.1,6.57,17.1,17.3,0,10.4-7.66,17.51-17,17.51-6.23,0-13.34-3.21-15.19-10l.42,5.47v20.45h-2.06V202.15h2.06ZM471.92,219c0-9.78-6.91-15.32-15.12-15.32-10.19,0-14.64,7.46-14.64,15.66,0,7.94,5,15.19,14.92,15.19,8.2,0,14.84-5.95,14.84-15.53" style="fill: #008fff"/>
      </g>
      <g>
        <path d="M68.9,38.47A68.34,68.34,0,0,0,51.51,40.7,67.64,67.64,0,0,0,18,61a68.65,68.65,0,0,0-18,46.4c0,.19,0,.38,0,.57H0V236.55H34.27V166.89A68.88,68.88,0,1,0,68.9,38.47ZM68.9,142a34.62,34.62,0,1,1,34.62-34.62A34.66,34.66,0,0,1,68.9,142Z" style="fill: url(#linear-gradient)"/>
        <path d="M179.42,106V0H147.14V106.42c0,37.41,29.48,67.73,66.89,67.73h.42V141A35,35,0,0,1,179.42,106Z" style="fill: url(#linear-gradient-2)"/>
        <path d="M323.07,106.85h0a35,35,0,0,1-70-.43V47.26H219.93v59.59h0a67.72,67.72,0,0,0,135.44,0h0V47.26H323.07Z" style="fill: url(#linear-gradient-3)"/>
        <path d="M473.89,141.06c-1.86-40.69-73.19-39.12-72.63-55.19.36-10.3,12-12,18.25-12a54.18,54.18,0,0,1,9.69.85c2.46.57,14.51,1.84,22.16,8.64L467.5,58s-15.19-11.26-35.42-14.15l-.5-.07c-.36,0-.71-.12-1.08-.16h0c-2.6-.34-9.93-.35-12.62-.35-27.35,0-49.73,19.07-49.73,43.06,0,39.59,69.78,39.11,71.41,55.2.49,4.91-3.19,10.82-13.7,11.81-12.54,1.18-22.68-1.88-31.47-5.9a139.32,139.32,0,0,1-18.14-10.66l-11.68,27.78c4.88,4,12.71,8.09,21.11,11.81,9.59,4,26,7.23,34.54,7.23C460.21,183.62,474.94,164.07,473.89,141.06Z" style="fill: url(#linear-gradient-4)"/>
      </g>
    </g>
  </g>
</svg>
