<svg width="459" height="523" viewBox="0 0 459 523" fill="none" xmlns="http://www.w3.org/2000/svg">
<g clip-path="url(#clip0)">
<path opacity="0.75" d="M31.2669 212.767C32.0709 122.43 152.661 32.0944 204.112 34.3341C257.976 34.3341 461.37 217.993 443.684 303.849C425.997 389.706 230.642 480.788 155.072 482.281C79.5028 483.775 30.463 303.103 31.2669 212.767Z" fill="url(#paint0_linear)" fill-opacity="0.5"/>
<path d="M26.4237 251.477C10.6377 162.527 112.604 51.597 163.593 44.3576C216.541 34.4739 450.183 177.692 448.551 265.336C446.919 352.98 271.594 478.363 197.582 493.698C123.569 509.032 42.2096 340.426 26.4237 251.477Z" fill="url(#paint1_linear)" fill-opacity="0.5"/>
<g filter="url(#filter0_d)">
<path d="M81.5 91.0026C81.5 82.1661 88.6634 75.0026 97.5 75.0026H361.5C370.337 75.0026 377.5 82.1661 377.5 91.0026V222.973H81.5V91.0026Z" fill="white"/>
<path d="M81.5 223.003H377.5V431.003C377.5 439.839 370.337 447.003 361.5 447.003H97.5C88.6635 447.003 81.5 439.839 81.5 431.003V223.003Z" fill="white"/>
</g>
<path d="M118.024 138.723C117.992 137.219 118.531 135.928 119.64 134.851C120.749 133.773 122.061 133.245 123.576 133.267C124.536 133.267 125.416 133.485 126.216 133.923C127.016 134.36 127.645 134.952 128.104 135.699L126.824 136.643C126.045 135.427 124.968 134.819 123.592 134.819C122.504 134.819 121.597 135.192 120.872 135.939C120.147 136.675 119.784 137.603 119.784 138.723C119.784 139.843 120.147 140.776 120.872 141.523C121.597 142.259 122.504 142.627 123.592 142.627C124.968 142.627 126.045 142.019 126.824 140.803L128.104 141.747C127.645 142.504 127.016 143.101 126.216 143.539C125.427 143.965 124.547 144.179 123.576 144.179C122.061 144.2 120.749 143.672 119.64 142.595C118.531 141.517 117.992 140.227 118.024 138.723ZM130.021 144.003V132.003H131.701V144.003H130.021ZM134.13 144.003V136.147H135.81V144.003H134.13ZM134.162 134.003C133.938 133.789 133.826 133.528 133.826 133.219C133.826 132.909 133.938 132.648 134.162 132.435C134.386 132.211 134.658 132.099 134.978 132.099C135.287 132.099 135.554 132.211 135.778 132.435C136.002 132.648 136.114 132.909 136.114 133.219C136.114 133.528 136.002 133.789 135.778 134.003C135.554 134.216 135.287 134.323 134.978 134.323C134.658 134.323 134.386 134.216 134.162 134.003ZM145.311 140.627H139.455C139.562 141.267 139.845 141.773 140.303 142.147C140.773 142.509 141.343 142.691 142.015 142.691C142.847 142.691 143.61 142.381 144.303 141.763L145.103 142.915C144.218 143.757 143.173 144.179 141.967 144.179C140.773 144.179 139.77 143.789 138.959 143.011C138.149 142.221 137.743 141.245 137.743 140.083C137.722 138.952 138.117 137.981 138.927 137.171C139.738 136.349 140.698 135.949 141.807 135.971C142.842 135.971 143.706 136.317 144.399 137.011C145.093 137.693 145.439 138.547 145.439 139.571C145.439 139.88 145.397 140.232 145.311 140.627ZM139.487 139.315H143.759C143.749 138.728 143.551 138.264 143.167 137.923C142.783 137.571 142.309 137.395 141.743 137.395C141.189 137.395 140.703 137.571 140.287 137.923C139.882 138.264 139.615 138.728 139.487 139.315ZM154.228 139.091V144.003H152.548V139.315C152.548 138.771 152.388 138.333 152.068 138.003C151.759 137.661 151.348 137.491 150.836 137.491C150.314 137.491 149.882 137.661 149.54 138.003C149.21 138.344 149.044 138.781 149.044 139.315V144.003H147.364V136.147H148.932V136.915C149.53 136.285 150.314 135.971 151.284 135.971C152.191 135.971 152.906 136.253 153.428 136.819C153.962 137.384 154.228 138.141 154.228 139.091ZM161.24 142.579V144.003C160.685 144.12 160.221 144.179 159.848 144.179C158.93 144.179 158.216 143.949 157.704 143.491C157.202 143.032 156.952 142.349 156.952 141.443V137.603H155.672V136.147H156.952V134.083H158.648V136.147H160.984V137.603H158.648V141.299C158.648 141.789 158.77 142.141 159.016 142.355C159.272 142.557 159.666 142.659 160.2 142.659C160.381 142.659 160.728 142.632 161.24 142.579ZM162.207 142.659L163.167 141.603C163.881 142.349 164.617 142.723 165.375 142.723C165.748 142.723 166.052 142.648 166.287 142.499C166.521 142.339 166.639 142.12 166.639 141.843C166.639 141.629 166.559 141.459 166.399 141.331C166.239 141.192 165.951 141.037 165.535 140.867L164.735 140.531C164.02 140.232 163.497 139.912 163.167 139.571C162.847 139.219 162.687 138.776 162.687 138.243C162.687 137.549 162.943 137 163.455 136.595C163.977 136.179 164.644 135.971 165.455 135.971C166.585 135.971 167.492 136.376 168.175 137.187L167.263 138.227C166.751 137.693 166.137 137.427 165.423 137.427C164.708 137.427 164.351 137.677 164.351 138.179C164.351 138.371 164.425 138.536 164.575 138.675C164.724 138.803 164.996 138.947 165.391 139.107L166.143 139.411C166.9 139.731 167.444 140.072 167.775 140.435C168.116 140.787 168.287 141.235 168.287 141.779C168.287 142.536 168.009 143.128 167.455 143.555C166.9 143.971 166.207 144.179 165.375 144.179C164.041 144.179 162.985 143.672 162.207 142.659ZM184.576 136.147H186.368L182.88 144.179H182.304L179.84 138.947L177.376 144.179H176.8L173.312 136.147H175.104L177.168 141.283L179.552 135.971H180.128L182.544 141.219L184.576 136.147ZM187.88 144.003V136.147H189.56V144.003H187.88ZM187.912 134.003C187.688 133.789 187.576 133.528 187.576 133.219C187.576 132.909 187.688 132.648 187.912 132.435C188.136 132.211 188.408 132.099 188.728 132.099C189.037 132.099 189.304 132.211 189.528 132.435C189.752 132.648 189.864 132.909 189.864 133.219C189.864 133.528 189.752 133.789 189.528 134.003C189.304 134.216 189.037 134.323 188.728 134.323C188.408 134.323 188.136 134.216 187.912 134.003ZM196.661 142.579V144.003C196.107 144.12 195.643 144.179 195.269 144.179C194.352 144.179 193.637 143.949 193.125 143.491C192.624 143.032 192.373 142.349 192.373 141.443V137.603H191.093V136.147H192.373V134.083H194.069V136.147H196.405V137.603H194.069V141.299C194.069 141.789 194.192 142.141 194.437 142.355C194.693 142.557 195.088 142.659 195.621 142.659C195.803 142.659 196.149 142.632 196.661 142.579ZM205.228 139.091V144.003H203.548V139.331C203.548 138.787 203.394 138.349 203.084 138.019C202.775 137.677 202.359 137.507 201.836 137.507C201.314 137.507 200.882 137.677 200.54 138.019C200.21 138.36 200.044 138.797 200.044 139.331V144.003H198.364V132.003H200.044V136.931C200.588 136.291 201.346 135.971 202.316 135.971C203.202 135.971 203.906 136.259 204.428 136.835C204.962 137.4 205.228 138.152 205.228 139.091ZM214.724 142.547H218.9V144.003H211.62V143.619C212.335 143.117 212.868 142.632 213.22 142.163C213.572 141.683 213.748 141.155 213.748 140.579C213.748 140.408 213.743 140.296 213.732 140.243H211.78V138.787H213.204L212.868 138.163C212.505 137.459 212.324 136.803 212.324 136.195C212.324 135.32 212.628 134.616 213.236 134.083C213.855 133.539 214.639 133.267 215.588 133.267C216.452 133.267 217.183 133.501 217.78 133.971C218.377 134.44 218.799 135.123 219.044 136.019L217.588 136.547C217.236 135.395 216.601 134.819 215.684 134.819C215.183 134.819 214.783 134.973 214.484 135.283C214.196 135.581 214.052 135.976 214.052 136.467C214.052 136.957 214.265 137.56 214.692 138.275C214.863 138.573 214.953 138.744 214.964 138.787H217.508V140.243H215.428C215.439 140.285 215.444 140.392 215.444 140.563C215.444 141.341 215.204 142.003 214.724 142.547ZM223.442 142.531H227.906V144.003H220.338V143.619L224.098 139.571C224.706 138.931 225.138 138.397 225.394 137.971C225.65 137.544 225.778 137.112 225.778 136.675C225.778 136.131 225.618 135.688 225.298 135.347C224.978 134.995 224.551 134.819 224.018 134.819C223.484 134.819 223.052 135 222.722 135.363C222.391 135.725 222.226 136.184 222.226 136.739C222.226 136.931 222.252 137.203 222.306 137.555H220.594C220.519 137.288 220.482 136.984 220.482 136.643C220.482 135.736 220.812 134.947 221.474 134.275C222.135 133.603 222.988 133.267 224.034 133.267C225.036 133.267 225.868 133.581 226.53 134.211C227.202 134.84 227.538 135.619 227.538 136.547C227.538 137.272 227.346 137.928 226.962 138.515C226.62 139.059 226.066 139.741 225.298 140.563L223.442 142.531ZM236.918 140.595C236.918 141.64 236.539 142.499 235.782 143.171C235.024 143.843 234.107 144.179 233.03 144.179C232.176 144.179 231.424 143.976 230.774 143.571C230.123 143.165 229.611 142.611 229.238 141.907L230.422 141.059C231.104 142.104 231.958 142.627 232.982 142.627C233.622 142.627 234.144 142.445 234.55 142.083C234.966 141.709 235.174 141.224 235.174 140.627C235.174 140.029 234.96 139.571 234.534 139.251C234.118 138.92 233.52 138.755 232.742 138.755H230.31V133.443H236.326V134.963H231.974V137.443C232.39 137.347 232.838 137.299 233.318 137.299C234.32 137.299 235.168 137.592 235.862 138.179C236.566 138.765 236.918 139.571 236.918 140.595ZM238.671 138.627C238.671 137.016 239.013 135.725 239.695 134.755C240.378 133.763 241.381 133.267 242.703 133.267C244.026 133.267 245.023 133.757 245.695 134.739C246.378 135.709 246.719 137.005 246.719 138.627C246.719 140.269 246.373 141.608 245.679 142.643C244.997 143.667 244.005 144.179 242.703 144.179C241.402 144.179 240.405 143.661 239.711 142.627C239.018 141.592 238.671 140.259 238.671 138.627ZM244.959 138.643C244.959 136.093 244.207 134.819 242.703 134.819C241.189 134.819 240.431 136.093 240.431 138.643C240.431 141.299 241.189 142.627 242.703 142.627C244.207 142.627 244.959 141.299 244.959 138.643ZM248.771 146.851L248.931 142.307H250.883L250.131 146.851H248.771ZM252.843 138.627C252.843 137.016 253.185 135.725 253.867 134.755C254.55 133.763 255.553 133.267 256.875 133.267C258.198 133.267 259.195 133.757 259.867 134.739C260.55 135.709 260.891 137.005 260.891 138.627C260.891 140.269 260.545 141.608 259.851 142.643C259.169 143.667 258.177 144.179 256.875 144.179C255.574 144.179 254.577 143.661 253.883 142.627C253.19 141.592 252.843 140.259 252.843 138.627ZM259.131 138.643C259.131 136.093 258.379 134.819 256.875 134.819C255.361 134.819 254.603 136.093 254.603 138.643C254.603 141.299 255.361 142.627 256.875 142.627C258.379 142.627 259.131 141.299 259.131 138.643ZM262.843 138.627C262.843 137.016 263.185 135.725 263.867 134.755C264.55 133.763 265.553 133.267 266.875 133.267C268.198 133.267 269.195 133.757 269.867 134.739C270.55 135.709 270.891 137.005 270.891 138.627C270.891 140.269 270.545 141.608 269.851 142.643C269.169 143.667 268.177 144.179 266.875 144.179C265.574 144.179 264.577 143.661 263.883 142.627C263.19 141.592 262.843 140.259 262.843 138.627ZM269.131 138.643C269.131 136.093 268.379 134.819 266.875 134.819C265.361 134.819 264.603 136.093 264.603 138.643C264.603 141.299 265.361 142.627 266.875 142.627C268.379 142.627 269.131 141.299 269.131 138.643ZM275.915 133.443H276.507V144.003H274.811V135.443L272.667 136.131L272.251 134.643L275.915 133.443ZM283.306 140.067C283.285 138.947 283.685 137.981 284.506 137.171C285.338 136.349 286.319 135.949 287.45 135.971C288.591 135.949 289.578 136.349 290.41 137.171C291.242 137.992 291.647 138.957 291.626 140.067C291.647 141.187 291.242 142.157 290.41 142.979C289.578 143.8 288.591 144.2 287.45 144.179C286.319 144.2 285.338 143.8 284.506 142.979C283.685 142.147 283.285 141.176 283.306 140.067ZM289.898 140.083C289.898 139.357 289.663 138.749 289.194 138.259C288.725 137.757 288.149 137.507 287.466 137.507C286.773 137.507 286.191 137.757 285.722 138.259C285.253 138.749 285.018 139.357 285.018 140.083C285.018 140.808 285.247 141.416 285.706 141.907C286.175 142.387 286.757 142.627 287.45 142.627C288.143 142.627 288.725 142.381 289.194 141.891C289.663 141.4 289.898 140.797 289.898 140.083ZM298.048 136.147V137.635H297.536C296.853 137.635 296.299 137.827 295.872 138.211C295.445 138.595 295.232 139.128 295.232 139.811V144.003H293.552V136.147H295.12V137.171C295.707 136.435 296.469 136.067 297.408 136.067C297.621 136.067 297.835 136.093 298.048 136.147ZM315.828 139.091V144.003H314.132V139.331C314.132 138.776 313.983 138.333 313.684 138.003C313.396 137.672 313.002 137.507 312.5 137.507C311.988 137.507 311.572 137.672 311.252 138.003C310.932 138.323 310.772 138.739 310.772 139.251V144.003H309.092V139.331C309.092 138.787 308.943 138.349 308.644 138.019C308.346 137.677 307.946 137.507 307.444 137.507C306.932 137.507 306.516 137.677 306.196 138.019C305.876 138.349 305.716 138.787 305.716 139.331V144.003H304.036V136.147H305.604V136.883C306.191 136.275 306.948 135.971 307.876 135.971C308.964 135.971 309.759 136.381 310.26 137.203C310.89 136.381 311.775 135.971 312.916 135.971C313.812 135.971 314.522 136.259 315.044 136.835C315.567 137.4 315.828 138.152 315.828 139.091ZM317.665 140.067C317.644 138.947 318.044 137.981 318.865 137.171C319.697 136.349 320.679 135.949 321.809 135.971C322.951 135.949 323.937 136.349 324.769 137.171C325.601 137.992 326.007 138.957 325.985 140.067C326.007 141.187 325.601 142.157 324.769 142.979C323.937 143.8 322.951 144.2 321.809 144.179C320.679 144.2 319.697 143.8 318.865 142.979C318.044 142.147 317.644 141.176 317.665 140.067ZM324.257 140.083C324.257 139.357 324.023 138.749 323.553 138.259C323.084 137.757 322.508 137.507 321.825 137.507C321.132 137.507 320.551 137.757 320.081 138.259C319.612 138.749 319.377 139.357 319.377 140.083C319.377 140.808 319.607 141.416 320.065 141.907C320.535 142.387 321.116 142.627 321.809 142.627C322.503 142.627 323.084 142.381 323.553 141.891C324.023 141.4 324.257 140.797 324.257 140.083ZM332.407 136.147V137.635H331.895C331.213 137.635 330.658 137.827 330.231 138.211C329.805 138.595 329.591 139.128 329.591 139.811V144.003H327.911V136.147H329.479V137.171C330.066 136.435 330.829 136.067 331.767 136.067C331.981 136.067 332.194 136.093 332.407 136.147ZM340.827 140.627H334.971C335.078 141.267 335.36 141.773 335.819 142.147C336.288 142.509 336.859 142.691 337.531 142.691C338.363 142.691 339.126 142.381 339.819 141.763L340.619 142.915C339.734 143.757 338.688 144.179 337.483 144.179C336.288 144.179 335.286 143.789 334.475 143.011C333.664 142.221 333.259 141.245 333.259 140.083C333.238 138.952 333.632 137.981 334.443 137.171C335.254 136.349 336.214 135.949 337.323 135.971C338.358 135.971 339.222 136.317 339.915 137.011C340.608 137.693 340.955 138.547 340.955 139.571C340.955 139.88 340.912 140.232 340.827 140.627ZM335.003 139.315H339.275C339.264 138.728 339.067 138.264 338.683 137.923C338.299 137.571 337.824 137.395 337.259 137.395C336.704 137.395 336.219 137.571 335.803 137.923C335.398 138.264 335.131 138.728 335.003 139.315ZM199.06 164.003V156.147H200.74V164.003H199.06ZM199.092 154.003C198.868 153.789 198.756 153.528 198.756 153.219C198.756 152.909 198.868 152.648 199.092 152.435C199.316 152.211 199.588 152.099 199.908 152.099C200.217 152.099 200.484 152.211 200.708 152.435C200.932 152.648 201.044 152.909 201.044 153.219C201.044 153.528 200.932 153.789 200.708 154.003C200.484 154.216 200.217 154.323 199.908 154.323C199.588 154.323 199.316 154.216 199.092 154.003ZM210.033 159.091V164.003H208.353V159.315C208.353 158.771 208.193 158.333 207.873 158.003C207.564 157.661 207.153 157.491 206.641 157.491C206.118 157.491 205.686 157.661 205.345 158.003C205.014 158.344 204.849 158.781 204.849 159.315V164.003H203.169V156.147H204.737V156.915C205.334 156.285 206.118 155.971 207.089 155.971C207.996 155.971 208.71 156.253 209.233 156.819C209.766 157.384 210.033 158.141 210.033 159.091ZM217.532 156.147H219.324L215.532 164.179H214.956L211.148 156.147H212.94L215.244 161.347L217.532 156.147ZM227.601 160.627H221.745C221.851 161.267 222.134 161.773 222.593 162.147C223.062 162.509 223.633 162.691 224.305 162.691C225.137 162.691 225.899 162.381 226.593 161.763L227.392 162.915C226.507 163.757 225.462 164.179 224.257 164.179C223.062 164.179 222.059 163.789 221.249 163.011C220.438 162.221 220.033 161.245 220.033 160.083C220.011 158.952 220.406 157.981 221.217 157.171C222.027 156.349 222.987 155.949 224.097 155.971C225.131 155.971 225.995 156.317 226.689 157.011C227.382 157.693 227.729 158.547 227.729 159.571C227.729 159.88 227.686 160.232 227.601 160.627ZM221.777 159.315H226.049C226.038 158.728 225.841 158.264 225.457 157.923C225.073 157.571 224.598 157.395 224.033 157.395C223.478 157.395 222.993 157.571 222.577 157.923C222.171 158.264 221.905 158.728 221.777 159.315ZM228.918 162.659L229.878 161.603C230.592 162.349 231.328 162.723 232.086 162.723C232.459 162.723 232.763 162.648 232.998 162.499C233.232 162.339 233.35 162.12 233.35 161.843C233.35 161.629 233.27 161.459 233.11 161.331C232.95 161.192 232.662 161.037 232.246 160.867L231.446 160.531C230.731 160.232 230.208 159.912 229.878 159.571C229.558 159.219 229.398 158.776 229.398 158.243C229.398 157.549 229.654 157 230.166 156.595C230.688 156.179 231.355 155.971 232.166 155.971C233.296 155.971 234.203 156.376 234.886 157.187L233.974 158.227C233.462 157.693 232.848 157.427 232.134 157.427C231.419 157.427 231.062 157.677 231.062 158.179C231.062 158.371 231.136 158.536 231.286 158.675C231.435 158.803 231.707 158.947 232.102 159.107L232.854 159.411C233.611 159.731 234.155 160.072 234.486 160.435C234.827 160.787 234.998 161.235 234.998 161.779C234.998 162.536 234.72 163.128 234.166 163.555C233.611 163.971 232.918 164.179 232.086 164.179C230.752 164.179 229.696 163.672 228.918 162.659ZM241.607 162.579V164.003C241.052 164.12 240.588 164.179 240.215 164.179C239.297 164.179 238.583 163.949 238.071 163.491C237.569 163.032 237.319 162.349 237.319 161.443V157.603H236.039V156.147H237.319V154.083H239.015V156.147H241.351V157.603H239.015V161.299C239.015 161.789 239.137 162.141 239.383 162.355C239.639 162.557 240.033 162.659 240.567 162.659C240.748 162.659 241.095 162.632 241.607 162.579ZM250.226 160.627H244.37C244.476 161.267 244.759 161.773 245.218 162.147C245.687 162.509 246.258 162.691 246.93 162.691C247.762 162.691 248.524 162.381 249.218 161.763L250.017 162.915C249.132 163.757 248.087 164.179 246.882 164.179C245.687 164.179 244.684 163.789 243.874 163.011C243.063 162.221 242.658 161.245 242.658 160.083C242.636 158.952 243.031 157.981 243.842 157.171C244.652 156.349 245.612 155.949 246.722 155.971C247.756 155.971 248.62 156.317 249.314 157.011C250.007 157.693 250.354 158.547 250.354 159.571C250.354 159.88 250.311 160.232 250.226 160.627ZM244.402 159.315H248.674C248.663 158.728 248.466 158.264 248.082 157.923C247.698 157.571 247.223 157.395 246.658 157.395C246.103 157.395 245.618 157.571 245.202 157.923C244.796 158.264 244.53 158.728 244.402 159.315ZM258.247 152.003H259.943V164.003H258.375V162.883C257.767 163.747 256.849 164.179 255.623 164.179C254.524 164.179 253.607 163.789 252.871 163.011C252.145 162.221 251.783 161.245 251.783 160.083C251.761 158.931 252.124 157.955 252.871 157.155C253.617 156.344 254.535 155.949 255.623 155.971C256.753 155.971 257.628 156.349 258.247 157.107V152.003ZM257.591 161.971C258.049 161.523 258.279 160.893 258.279 160.083C258.279 159.272 258.044 158.643 257.575 158.195C257.116 157.736 256.561 157.507 255.911 157.507C255.228 157.507 254.652 157.747 254.183 158.227C253.724 158.707 253.495 159.32 253.495 160.067C253.495 160.813 253.724 161.432 254.183 161.923C254.641 162.403 255.217 162.643 255.911 162.643C256.572 162.643 257.132 162.419 257.591 161.971Z" fill="#242424"/>
<path d="M171.727 117.003L170.505 114.143H162.783L161.561 117.003H158.623L166.189 99.5566H167.125L174.691 117.003H171.727ZM169.517 111.777L166.657 104.679L163.771 111.777H169.517ZM188.942 117.003L187.72 114.143H179.998L178.776 117.003H175.838L183.404 99.5566H184.34L191.906 117.003H188.942ZM186.732 111.777L183.872 104.679L180.986 111.777H186.732ZM206.156 117.003L204.934 114.143H197.212L195.99 117.003H193.052L200.618 99.5566H201.554L209.12 117.003H206.156ZM203.946 111.777L201.086 104.679L198.2 111.777H203.946ZM218.1 108.423C218.048 105.979 218.924 103.881 220.726 102.131C222.529 100.38 224.661 99.522 227.122 99.5566C228.682 99.5566 230.112 99.912 231.412 100.623C232.712 101.333 233.735 102.295 234.48 103.509L232.4 105.043C231.135 103.067 229.384 102.079 227.148 102.079C225.38 102.079 223.907 102.685 222.728 103.899C221.55 105.095 220.96 106.603 220.96 108.423C220.96 110.243 221.55 111.759 222.728 112.973C223.907 114.169 225.38 114.767 227.148 114.767C229.384 114.767 231.135 113.779 232.4 111.803L234.48 113.337C233.735 114.567 232.712 115.538 231.412 116.249C230.13 116.942 228.7 117.289 227.122 117.289C224.661 117.323 222.529 116.465 220.726 114.715C218.924 112.964 218.048 110.867 218.1 108.423ZM237.595 117.003V97.5026H240.325V117.003H237.595ZM244.273 117.003V104.237H247.003V117.003H244.273ZM244.325 100.753C243.961 100.406 243.779 99.9813 243.779 99.4786C243.779 98.976 243.961 98.5513 244.325 98.2046C244.689 97.8406 245.131 97.6586 245.651 97.6586C246.154 97.6586 246.587 97.8406 246.951 98.2046C247.315 98.5513 247.497 98.976 247.497 99.4786C247.497 99.9813 247.315 100.406 246.951 100.753C246.587 101.099 246.154 101.273 245.651 101.273C245.131 101.273 244.689 101.099 244.325 100.753ZM262.443 111.517H252.927C253.1 112.557 253.559 113.38 254.305 113.987C255.067 114.576 255.995 114.871 257.087 114.871C258.439 114.871 259.678 114.368 260.805 113.363L262.105 115.235C260.666 116.604 258.967 117.289 257.009 117.289C255.067 117.289 253.438 116.656 252.121 115.391C250.803 114.108 250.145 112.522 250.145 110.633C250.11 108.795 250.751 107.218 252.069 105.901C253.386 104.566 254.946 103.916 256.749 103.951C258.43 103.951 259.834 104.514 260.961 105.641C262.087 106.75 262.651 108.137 262.651 109.801C262.651 110.303 262.581 110.875 262.443 111.517ZM252.979 109.385H259.921C259.903 108.431 259.583 107.677 258.959 107.123C258.335 106.551 257.563 106.265 256.645 106.265C255.743 106.265 254.955 106.551 254.279 107.123C253.62 107.677 253.187 108.431 252.979 109.385ZM276.933 109.021V117.003H274.203V109.385C274.203 108.501 273.943 107.79 273.423 107.253C272.92 106.698 272.253 106.421 271.421 106.421C270.571 106.421 269.869 106.698 269.315 107.253C268.777 107.807 268.509 108.518 268.509 109.385V117.003H265.779V104.237H268.327V105.485C269.297 104.462 270.571 103.951 272.149 103.951C273.622 103.951 274.783 104.41 275.633 105.329C276.499 106.247 276.933 107.478 276.933 109.021ZM288.326 114.689V117.003C287.424 117.193 286.67 117.289 286.064 117.289C284.573 117.289 283.412 116.916 282.58 116.171C281.765 115.425 281.358 114.316 281.358 112.843V106.603H279.278V104.237H281.358V100.883H284.114V104.237H287.91V106.603H284.114V112.609C284.114 113.406 284.313 113.978 284.712 114.325C285.128 114.654 285.769 114.819 286.636 114.819C286.93 114.819 287.494 114.775 288.326 114.689ZM289.897 114.819L291.457 113.103C292.619 114.316 293.815 114.923 295.045 114.923C295.652 114.923 296.146 114.801 296.527 114.559C296.909 114.299 297.099 113.943 297.099 113.493C297.099 113.146 296.969 112.869 296.709 112.661C296.449 112.435 295.981 112.184 295.305 111.907L294.005 111.361C292.844 110.875 291.995 110.355 291.457 109.801C290.937 109.229 290.677 108.509 290.677 107.643C290.677 106.516 291.093 105.623 291.925 104.965C292.775 104.289 293.858 103.951 295.175 103.951C297.013 103.951 298.486 104.609 299.595 105.927L298.113 107.617C297.281 106.75 296.285 106.317 295.123 106.317C293.962 106.317 293.381 106.724 293.381 107.539C293.381 107.851 293.503 108.119 293.745 108.345C293.988 108.553 294.43 108.787 295.071 109.047L296.293 109.541C297.524 110.061 298.408 110.615 298.945 111.205C299.5 111.777 299.777 112.505 299.777 113.389C299.777 114.619 299.327 115.581 298.425 116.275C297.524 116.951 296.397 117.289 295.045 117.289C292.879 117.289 291.163 116.465 289.897 114.819Z" fill="#ED0874"/>
<line x1="103.5" y1="186.503" x2="356.5" y2="186.503" stroke="#E5E5E5"/>
<path d="M119.372 217.443H119.836V228.003H118.588V218.915L116.284 219.635L115.98 218.563L119.372 217.443ZM129.179 228.003H127.755L125.531 224.803L123.323 228.003H121.883L124.779 223.939L122.123 220.211H123.547L125.531 223.075L127.531 220.211H128.955L126.251 223.939L129.179 228.003ZM141.987 228.003L141.091 225.859H135.907L135.011 228.003H133.699L138.275 217.267H138.739L143.315 228.003H141.987ZM140.611 224.739L138.499 219.539L136.387 224.739H140.611ZM151.621 223.107V228.003H150.389V223.251C150.389 222.632 150.213 222.131 149.861 221.747C149.519 221.363 149.05 221.171 148.453 221.171C147.855 221.171 147.365 221.368 146.981 221.763C146.597 222.147 146.405 222.643 146.405 223.251V228.003H145.173V220.211H146.325V221.043C146.933 220.371 147.733 220.035 148.725 220.035C149.621 220.035 150.325 220.317 150.837 220.883C151.359 221.437 151.621 222.179 151.621 223.107ZM160.683 223.107V228.003H159.451V223.251C159.451 222.632 159.275 222.131 158.923 221.747C158.582 221.363 158.112 221.171 157.515 221.171C156.918 221.171 156.427 221.368 156.043 221.763C155.659 222.147 155.467 222.643 155.467 223.251V228.003H154.235V220.211H155.387V221.043C155.995 220.371 156.795 220.035 157.787 220.035C158.683 220.035 159.387 220.317 159.899 220.883C160.422 221.437 160.683 222.179 160.683 223.107ZM163.202 224.899V220.211H164.418V224.979C164.418 225.597 164.604 226.099 164.978 226.483C165.362 226.856 165.847 227.043 166.434 227.043C167.01 227.043 167.484 226.851 167.858 226.467C168.231 226.083 168.418 225.587 168.418 224.979V220.211H169.65V224.899C169.65 225.869 169.34 226.659 168.722 227.267C168.114 227.875 167.351 228.179 166.434 228.179C165.506 228.179 164.732 227.875 164.114 227.267C163.506 226.659 163.202 225.869 163.202 224.899ZM178.091 223.203V228.003H176.939V226.995C176.341 227.784 175.467 228.179 174.315 228.179C173.504 228.179 172.848 227.981 172.347 227.587C171.845 227.181 171.595 226.648 171.595 225.987C171.595 225.325 171.851 224.797 172.363 224.403C172.875 224.008 173.552 223.811 174.395 223.811H176.859V223.139C176.859 222.509 176.688 222.024 176.347 221.683C176.016 221.341 175.557 221.171 174.971 221.171C174.096 221.171 173.339 221.587 172.699 222.419L171.883 221.747C172.576 220.605 173.632 220.035 175.051 220.035C175.989 220.035 176.731 220.312 177.275 220.867C177.819 221.411 178.091 222.189 178.091 223.203ZM176.859 225.011V224.819H174.539C173.419 224.819 172.859 225.187 172.859 225.923C172.859 226.307 173.008 226.611 173.307 226.835C173.616 227.048 174.005 227.155 174.475 227.155C175.125 227.155 175.685 226.947 176.155 226.531C176.624 226.115 176.859 225.608 176.859 225.011ZM180.704 228.003V216.003H181.936V228.003H180.704ZM197.462 228.003H196.006L192.726 223.571H190.47V228.003H189.222V217.443H192.934C193.947 217.443 194.763 217.731 195.382 218.307C196 218.872 196.31 219.603 196.31 220.499C196.31 221.213 196.112 221.832 195.718 222.355C195.323 222.867 194.779 223.224 194.086 223.427L197.462 228.003ZM190.47 218.563V222.451H192.886C193.558 222.451 194.08 222.28 194.454 221.939C194.827 221.587 195.014 221.112 195.014 220.515C195.014 219.928 194.822 219.459 194.438 219.107C194.064 218.744 193.547 218.563 192.886 218.563H190.47ZM205.724 224.483H199.564C199.639 225.251 199.943 225.869 200.476 226.339C201.01 226.808 201.66 227.043 202.428 227.043C203.314 227.043 204.108 226.691 204.812 225.987L205.532 226.819C204.658 227.725 203.618 228.179 202.412 228.179C201.25 228.179 200.268 227.789 199.468 227.011C198.679 226.221 198.284 225.256 198.284 224.115C198.284 222.984 198.668 222.024 199.436 221.235C200.215 220.435 201.159 220.035 202.268 220.035C203.282 220.035 204.124 220.365 204.796 221.027C205.479 221.688 205.82 222.531 205.82 223.555C205.82 223.853 205.788 224.163 205.724 224.483ZM199.612 223.395H204.556C204.546 222.712 204.322 222.168 203.884 221.763C203.447 221.357 202.898 221.155 202.236 221.155C201.586 221.155 201.02 221.363 200.54 221.779C200.06 222.184 199.751 222.723 199.612 223.395ZM213.209 220.211H214.521L210.857 228.179H210.409L206.729 220.211H208.041L210.633 226.083L213.209 220.211ZM216.298 228.003V220.211H217.53V228.003H216.298ZM215.993 217.235C215.993 216.989 216.084 216.781 216.266 216.611C216.447 216.429 216.666 216.339 216.922 216.339C217.167 216.339 217.38 216.429 217.562 216.611C217.743 216.781 217.834 216.989 217.834 217.235C217.834 217.491 217.743 217.704 217.562 217.875C217.391 218.045 217.178 218.131 216.922 218.131C216.666 218.131 216.447 218.045 216.266 217.875C216.084 217.704 215.993 217.491 215.993 217.235ZM227.115 224.483H220.955C221.03 225.251 221.334 225.869 221.867 226.339C222.4 226.808 223.051 227.043 223.819 227.043C224.704 227.043 225.499 226.691 226.203 225.987L226.923 226.819C226.048 227.725 225.008 228.179 223.803 228.179C222.64 228.179 221.659 227.789 220.859 227.011C220.07 226.221 219.675 225.256 219.675 224.115C219.675 222.984 220.059 222.024 220.827 221.235C221.606 220.435 222.55 220.035 223.659 220.035C224.672 220.035 225.515 220.365 226.187 221.027C226.87 221.688 227.211 222.531 227.211 223.555C227.211 223.853 227.179 224.163 227.115 224.483ZM221.003 223.395H225.947C225.936 222.712 225.712 222.168 225.275 221.763C224.838 221.357 224.288 221.155 223.627 221.155C222.976 221.155 222.411 221.363 221.931 221.779C221.451 222.184 221.142 222.723 221.003 223.395ZM239.575 220.211H240.887L237.607 228.179H237.159L234.503 222.291L231.863 228.179H231.431L228.119 220.211H229.431L231.687 225.987L234.279 220.035H234.743L237.367 225.939L239.575 220.211ZM116.956 260.003V249.443H118.204V260.003H116.956ZM127.371 255.107V260.003H126.139V255.251C126.139 254.632 125.963 254.131 125.611 253.747C125.269 253.363 124.8 253.171 124.203 253.171C123.605 253.171 123.115 253.368 122.731 253.763C122.347 254.147 122.155 254.643 122.155 255.251V260.003H120.923V252.211H122.075V253.043C122.683 252.371 123.483 252.035 124.475 252.035C125.371 252.035 126.075 252.317 126.587 252.883C127.109 253.437 127.371 254.179 127.371 255.107ZM135.209 252.211H136.521L132.857 260.179H132.409L128.729 252.211H130.041L132.633 258.083L135.209 252.211ZM144.865 256.483H138.705C138.78 257.251 139.084 257.869 139.617 258.339C140.15 258.808 140.801 259.043 141.569 259.043C142.454 259.043 143.249 258.691 143.953 257.987L144.673 258.819C143.798 259.725 142.758 260.179 141.553 260.179C140.39 260.179 139.409 259.789 138.609 259.011C137.82 258.221 137.425 257.256 137.425 256.115C137.425 254.984 137.809 254.024 138.577 253.235C139.356 252.435 140.3 252.035 141.409 252.035C142.422 252.035 143.265 252.365 143.937 253.027C144.62 253.688 144.961 254.531 144.961 255.555C144.961 255.853 144.929 256.163 144.865 256.483ZM138.753 255.395H143.697C143.686 254.712 143.462 254.168 143.025 253.763C142.588 253.357 142.038 253.155 141.377 253.155C140.726 253.155 140.161 253.363 139.681 253.779C139.201 254.184 138.892 254.723 138.753 255.395ZM146.39 258.659L147.174 257.843C147.579 258.259 147.947 258.563 148.278 258.755C148.619 258.947 148.998 259.043 149.414 259.043C149.851 259.043 150.208 258.947 150.486 258.755C150.763 258.552 150.902 258.28 150.902 257.939C150.902 257.64 150.8 257.411 150.598 257.251C150.406 257.08 150.054 256.893 149.542 256.691L148.79 256.371C148.118 256.093 147.627 255.789 147.318 255.459C147.008 255.128 146.854 254.712 146.854 254.211C146.854 253.549 147.099 253.021 147.59 252.627C148.091 252.232 148.72 252.035 149.478 252.035C150.534 252.035 151.403 252.445 152.086 253.267L151.334 254.035C150.758 253.459 150.118 253.171 149.414 253.171C149.019 253.171 148.704 253.256 148.47 253.427C148.235 253.597 148.118 253.837 148.118 254.147C148.118 254.392 148.203 254.595 148.374 254.755C148.555 254.904 148.891 255.08 149.382 255.283L150.102 255.587C150.848 255.907 151.376 256.243 151.686 256.595C152.006 256.936 152.166 257.368 152.166 257.891C152.166 258.616 151.899 259.181 151.366 259.587C150.843 259.981 150.198 260.179 149.43 260.179C148.182 260.179 147.168 259.672 146.39 258.659ZM158.647 258.963V260.003C158.125 260.12 157.693 260.179 157.351 260.179C156.519 260.179 155.874 259.965 155.415 259.539C154.957 259.112 154.727 258.483 154.727 257.651V253.315H153.415V252.211H154.727V250.083H155.959V252.211H158.391V253.315H155.959V257.571C155.959 258.104 156.093 258.488 156.359 258.723C156.637 258.947 157.053 259.059 157.607 259.059C157.906 259.059 158.253 259.027 158.647 258.963ZM159.769 256.099C159.747 254.989 160.142 254.029 160.953 253.219C161.774 252.408 162.739 252.013 163.849 252.035C164.969 252.013 165.934 252.408 166.745 253.219C167.555 254.029 167.95 254.989 167.929 256.099C167.95 257.197 167.55 258.157 166.729 258.979C165.907 259.789 164.942 260.184 163.833 260.163C162.723 260.184 161.763 259.789 160.953 258.979C160.142 258.157 159.747 257.197 159.769 256.099ZM166.665 256.115C166.665 255.283 166.393 254.584 165.849 254.019C165.315 253.453 164.649 253.171 163.849 253.171C163.049 253.171 162.377 253.453 161.833 254.019C161.299 254.573 161.033 255.272 161.033 256.115C161.033 256.936 161.299 257.629 161.833 258.195C162.377 258.749 163.043 259.027 163.833 259.027C164.622 259.027 165.289 258.744 165.833 258.179C166.387 257.613 166.665 256.925 166.665 256.115ZM174.238 252.211V253.299H173.774C173.092 253.299 172.51 253.507 172.03 253.923C171.561 254.339 171.326 254.893 171.326 255.587V260.003H170.094V252.211H171.246V253.315C171.822 252.536 172.628 252.147 173.662 252.147C173.865 252.147 174.057 252.168 174.238 252.211ZM189.752 249.267H190.184V260.003H188.936V252.435L185.56 257.011H185.112L181.72 252.403V260.003H180.472V249.267H180.92L185.32 255.363L189.752 249.267ZM198.763 255.203V260.003H197.611V258.995C197.013 259.784 196.139 260.179 194.987 260.179C194.176 260.179 193.52 259.981 193.019 259.587C192.517 259.181 192.267 258.648 192.267 257.987C192.267 257.325 192.523 256.797 193.035 256.403C193.547 256.008 194.224 255.811 195.067 255.811H197.531V255.139C197.531 254.509 197.36 254.024 197.019 253.683C196.688 253.341 196.229 253.171 195.643 253.171C194.768 253.171 194.011 253.587 193.371 254.419L192.555 253.747C193.248 252.605 194.304 252.035 195.723 252.035C196.661 252.035 197.403 252.312 197.947 252.867C198.491 253.411 198.763 254.189 198.763 255.203ZM197.531 257.011V256.819H195.211C194.091 256.819 193.531 257.187 193.531 257.923C193.531 258.307 193.68 258.611 193.979 258.835C194.288 259.048 194.677 259.155 195.147 259.155C195.797 259.155 196.357 258.947 196.827 258.531C197.296 258.115 197.531 257.608 197.531 257.011ZM207.696 252.211H208.864V259.251C208.864 260.424 208.522 261.352 207.84 262.035C207.157 262.717 206.234 263.059 205.072 263.059C203.632 263.059 202.41 262.557 201.408 261.555L202.128 260.691C203.066 261.512 204.037 261.923 205.04 261.923C205.85 261.923 206.485 261.693 206.944 261.235C207.402 260.787 207.632 260.147 207.632 259.315V258.627C207.322 259.032 206.906 259.352 206.384 259.587C205.872 259.811 205.322 259.923 204.736 259.923C203.637 259.923 202.725 259.549 202 258.803C201.274 258.056 200.912 257.117 200.912 255.987C200.912 254.867 201.274 253.928 202 253.171C202.736 252.413 203.648 252.035 204.736 252.035C205.354 252.035 205.925 252.163 206.448 252.419C206.981 252.664 207.397 253.011 207.696 253.459V252.211ZM207.648 255.987C207.648 255.101 207.381 254.419 206.848 253.939C206.325 253.448 205.685 253.203 204.928 253.203C204.128 253.203 203.466 253.469 202.944 254.003C202.421 254.525 202.16 255.192 202.16 256.003C202.16 256.824 202.421 257.496 202.944 258.019C203.466 258.531 204.128 258.787 204.928 258.787C205.696 258.787 206.341 258.547 206.864 258.067C207.386 257.576 207.648 256.883 207.648 255.987ZM217.403 255.203V260.003H216.251V258.995C215.654 259.784 214.779 260.179 213.627 260.179C212.816 260.179 212.16 259.981 211.659 259.587C211.158 259.181 210.907 258.648 210.907 257.987C210.907 257.325 211.163 256.797 211.675 256.403C212.187 256.008 212.864 255.811 213.707 255.811H216.171V255.139C216.171 254.509 216 254.024 215.659 253.683C215.328 253.341 214.87 253.171 214.283 253.171C213.408 253.171 212.651 253.587 212.011 254.419L211.195 253.747C211.888 252.605 212.944 252.035 214.363 252.035C215.302 252.035 216.043 252.312 216.587 252.867C217.131 253.411 217.403 254.189 217.403 255.203ZM216.171 257.011V256.819H213.851C212.731 256.819 212.171 257.187 212.171 257.923C212.171 258.307 212.32 258.611 212.619 258.835C212.928 259.048 213.318 259.155 213.787 259.155C214.438 259.155 214.998 258.947 215.467 258.531C215.936 258.115 216.171 257.608 216.171 257.011ZM220.976 258.915H225.488V260.003H219.088V259.635L223.536 253.315H219.456V252.211H225.44V252.579L220.976 258.915ZM227.282 260.003V252.211H228.514V260.003H227.282ZM226.978 249.235C226.978 248.989 227.069 248.781 227.25 248.611C227.431 248.429 227.65 248.339 227.906 248.339C228.151 248.339 228.365 248.429 228.546 248.611C228.727 248.781 228.818 248.989 228.818 249.235C228.818 249.491 228.727 249.704 228.546 249.875C228.375 250.045 228.162 250.131 227.906 250.131C227.65 250.131 227.431 250.045 227.25 249.875C227.069 249.704 226.978 249.491 226.978 249.235ZM237.667 255.107V260.003H236.435V255.251C236.435 254.632 236.259 254.131 235.907 253.747C235.566 253.363 235.097 253.171 234.499 253.171C233.902 253.171 233.411 253.368 233.027 253.763C232.643 254.147 232.451 254.643 232.451 255.251V260.003H231.219V252.211H232.371V253.043C232.979 252.371 233.779 252.035 234.771 252.035C235.667 252.035 236.371 252.317 236.883 252.883C237.406 253.437 237.667 254.179 237.667 255.107ZM247.162 256.483H241.002C241.077 257.251 241.381 257.869 241.914 258.339C242.447 258.808 243.098 259.043 243.866 259.043C244.751 259.043 245.546 258.691 246.25 257.987L246.97 258.819C246.095 259.725 245.055 260.179 243.85 260.179C242.687 260.179 241.706 259.789 240.906 259.011C240.117 258.221 239.722 257.256 239.722 256.115C239.722 254.984 240.106 254.024 240.874 253.235C241.653 252.435 242.597 252.035 243.706 252.035C244.719 252.035 245.562 252.365 246.234 253.027C246.917 253.688 247.258 254.531 247.258 255.555C247.258 255.853 247.226 256.163 247.162 256.483ZM241.05 255.395H245.994C245.983 254.712 245.759 254.168 245.322 253.763C244.885 253.357 244.335 253.155 243.674 253.155C243.023 253.155 242.458 253.363 241.978 253.779C241.498 254.184 241.189 254.723 241.05 255.395ZM124.652 288.963C124.652 289.859 124.348 290.589 123.74 291.155C123.132 291.72 122.321 292.003 121.308 292.003H116.956V281.443H120.588C121.495 281.443 122.225 281.693 122.78 282.195C123.324 282.696 123.596 283.336 123.596 284.115C123.596 284.979 123.26 285.672 122.588 286.195C123.239 286.387 123.745 286.728 124.108 287.219C124.471 287.699 124.652 288.28 124.652 288.963ZM120.46 282.563H118.204V285.843H120.46C121.057 285.843 121.516 285.699 121.836 285.411C122.156 285.112 122.316 284.707 122.316 284.195C122.316 283.683 122.156 283.283 121.836 282.995C121.516 282.707 121.057 282.563 120.46 282.563ZM122.78 290.355C123.175 290.003 123.372 289.528 123.372 288.931C123.372 288.333 123.175 287.859 122.78 287.507C122.396 287.155 121.863 286.979 121.18 286.979H118.204V290.883H121.18C121.863 290.883 122.396 290.707 122.78 290.355ZM126.623 288.899V284.211H127.839V288.979C127.839 289.597 128.026 290.099 128.399 290.483C128.783 290.856 129.269 291.043 129.855 291.043C130.431 291.043 130.906 290.851 131.279 290.467C131.653 290.083 131.839 289.587 131.839 288.979V284.211H133.071V288.899C133.071 289.869 132.762 290.659 132.143 291.267C131.535 291.875 130.773 292.179 129.855 292.179C128.927 292.179 128.154 291.875 127.535 291.267C126.927 290.659 126.623 289.869 126.623 288.899ZM141.849 280.003H143.081V292.003H141.913V290.771C141.614 291.208 141.198 291.555 140.665 291.811C140.142 292.056 139.577 292.179 138.969 292.179C137.87 292.179 136.953 291.789 136.217 291.011C135.481 290.221 135.113 289.256 135.113 288.115C135.113 286.963 135.481 285.997 136.217 285.219C136.963 284.429 137.881 284.035 138.969 284.035C139.555 284.035 140.105 284.152 140.617 284.387C141.129 284.621 141.539 284.947 141.849 285.363V280.003ZM141.865 288.115C141.865 287.176 141.598 286.451 141.065 285.939C140.542 285.427 139.902 285.171 139.145 285.171C138.355 285.171 137.694 285.448 137.161 286.003C136.638 286.557 136.377 287.256 136.377 288.099C136.377 288.941 136.638 289.645 137.161 290.211C137.694 290.765 138.355 291.043 139.145 291.043C139.902 291.043 140.542 290.787 141.065 290.275C141.598 289.763 141.865 289.043 141.865 288.115ZM152.102 284.211H153.27V291.251C153.27 292.424 152.929 293.352 152.246 294.035C151.563 294.717 150.641 295.059 149.478 295.059C148.038 295.059 146.817 294.557 145.814 293.555L146.534 292.691C147.473 293.512 148.443 293.923 149.446 293.923C150.257 293.923 150.891 293.693 151.35 293.235C151.809 292.787 152.038 292.147 152.038 291.315V290.627C151.729 291.032 151.313 291.352 150.79 291.587C150.278 291.811 149.729 291.923 149.142 291.923C148.043 291.923 147.131 291.549 146.406 290.803C145.681 290.056 145.318 289.117 145.318 287.987C145.318 286.867 145.681 285.928 146.406 285.171C147.142 284.413 148.054 284.035 149.142 284.035C149.761 284.035 150.331 284.163 150.854 284.419C151.387 284.664 151.803 285.011 152.102 285.459V284.211ZM152.054 287.987C152.054 287.101 151.787 286.419 151.254 285.939C150.731 285.448 150.091 285.203 149.334 285.203C148.534 285.203 147.873 285.469 147.35 286.003C146.827 286.525 146.566 287.192 146.566 288.003C146.566 288.824 146.827 289.496 147.35 290.019C147.873 290.531 148.534 290.787 149.334 290.787C150.102 290.787 150.747 290.547 151.27 290.067C151.793 289.576 152.054 288.883 152.054 287.987ZM162.849 288.483H156.689C156.764 289.251 157.068 289.869 157.601 290.339C158.135 290.808 158.785 291.043 159.553 291.043C160.439 291.043 161.233 290.691 161.937 289.987L162.657 290.819C161.783 291.725 160.743 292.179 159.537 292.179C158.375 292.179 157.393 291.789 156.593 291.011C155.804 290.221 155.409 289.256 155.409 288.115C155.409 286.984 155.793 286.024 156.561 285.235C157.34 284.435 158.284 284.035 159.393 284.035C160.407 284.035 161.249 284.365 161.921 285.027C162.604 285.688 162.945 286.531 162.945 287.555C162.945 287.853 162.913 288.163 162.849 288.483ZM156.737 287.395H161.681C161.671 286.712 161.447 286.168 161.009 285.763C160.572 285.357 160.023 285.155 159.361 285.155C158.711 285.155 158.145 285.363 157.665 285.779C157.185 286.184 156.876 286.723 156.737 287.395ZM169.366 290.963V292.003C168.843 292.12 168.411 292.179 168.07 292.179C167.238 292.179 166.593 291.965 166.134 291.539C165.675 291.112 165.446 290.483 165.446 289.651V285.315H164.134V284.211H165.446V282.083H166.678V284.211H169.11V285.315H166.678V289.571C166.678 290.104 166.811 290.488 167.078 290.723C167.355 290.947 167.771 291.059 168.326 291.059C168.625 291.059 168.971 291.027 169.366 290.963ZM184.024 292.003H182.568L179.288 287.571H177.032V292.003H175.784V281.443H179.496C180.509 281.443 181.325 281.731 181.944 282.307C182.563 282.872 182.872 283.603 182.872 284.499C182.872 285.213 182.675 285.832 182.28 286.355C181.885 286.867 181.341 287.224 180.648 287.427L184.024 292.003ZM177.032 282.563V286.451H179.448C180.12 286.451 180.643 286.28 181.016 285.939C181.389 285.587 181.576 285.112 181.576 284.515C181.576 283.928 181.384 283.459 181 283.107C180.627 282.744 180.109 282.563 179.448 282.563H177.032ZM192.287 288.483H186.127C186.202 289.251 186.506 289.869 187.039 290.339C187.572 290.808 188.223 291.043 188.991 291.043C189.876 291.043 190.671 290.691 191.375 289.987L192.095 290.819C191.22 291.725 190.18 292.179 188.975 292.179C187.812 292.179 186.831 291.789 186.031 291.011C185.242 290.221 184.847 289.256 184.847 288.115C184.847 286.984 185.231 286.024 185.999 285.235C186.778 284.435 187.722 284.035 188.831 284.035C189.844 284.035 190.687 284.365 191.359 285.027C192.042 285.688 192.383 286.531 192.383 287.555C192.383 287.853 192.351 288.163 192.287 288.483ZM186.175 287.395H191.119C191.108 286.712 190.884 286.168 190.447 285.763C190.01 285.357 189.46 285.155 188.799 285.155C188.148 285.155 187.583 285.363 187.103 285.779C186.623 286.184 186.314 286.723 186.175 287.395ZM201.396 285.203C202.132 285.981 202.5 286.947 202.5 288.099C202.5 289.251 202.126 290.221 201.38 291.011C200.644 291.789 199.732 292.179 198.644 292.179C197.417 292.179 196.462 291.747 195.78 290.883V294.883H194.548V284.211H195.7V285.459C195.998 285.011 196.409 284.664 196.932 284.419C197.454 284.163 198.025 284.035 198.644 284.035C199.753 284.035 200.67 284.424 201.396 285.203ZM200.436 290.211C200.969 289.656 201.236 288.957 201.236 288.115C201.236 287.272 200.969 286.573 200.436 286.019C199.913 285.453 199.257 285.171 198.468 285.171C197.721 285.171 197.081 285.427 196.548 285.939C196.025 286.451 195.764 287.171 195.764 288.099C195.764 289.048 196.02 289.779 196.532 290.291C197.054 290.792 197.7 291.043 198.468 291.043C199.257 291.043 199.913 290.765 200.436 290.211ZM204.097 288.099C204.076 286.989 204.47 286.029 205.281 285.219C206.102 284.408 207.068 284.013 208.177 284.035C209.297 284.013 210.262 284.408 211.073 285.219C211.884 286.029 212.278 286.989 212.257 288.099C212.278 289.197 211.878 290.157 211.057 290.979C210.236 291.789 209.27 292.184 208.161 292.163C207.052 292.184 206.092 291.789 205.281 290.979C204.47 290.157 204.076 289.197 204.097 288.099ZM210.993 288.115C210.993 287.283 210.721 286.584 210.177 286.019C209.644 285.453 208.977 285.171 208.177 285.171C207.377 285.171 206.705 285.453 206.161 286.019C205.628 286.573 205.361 287.272 205.361 288.115C205.361 288.936 205.628 289.629 206.161 290.195C206.705 290.749 207.372 291.027 208.161 291.027C208.95 291.027 209.617 290.744 210.161 290.179C210.716 289.613 210.993 288.925 210.993 288.115ZM218.567 284.211V285.299H218.103C217.42 285.299 216.839 285.507 216.359 285.923C215.889 286.339 215.655 286.893 215.655 287.587V292.003H214.423V284.211H215.575V285.315C216.151 284.536 216.956 284.147 217.991 284.147C218.193 284.147 218.385 284.168 218.567 284.211ZM224.475 290.963V292.003C223.953 292.12 223.521 292.179 223.179 292.179C222.347 292.179 221.702 291.965 221.243 291.539C220.785 291.112 220.555 290.483 220.555 289.651V285.315H219.243V284.211H220.555V282.083H221.787V284.211H224.219V285.315H221.787V289.571C221.787 290.104 221.921 290.488 222.187 290.723C222.465 290.947 222.881 291.059 223.435 291.059C223.734 291.059 224.081 291.027 224.475 290.963ZM124.652 320.963C124.652 321.859 124.348 322.589 123.74 323.155C123.132 323.72 122.321 324.003 121.308 324.003H116.956V313.443H120.588C121.495 313.443 122.225 313.693 122.78 314.195C123.324 314.696 123.596 315.336 123.596 316.115C123.596 316.979 123.26 317.672 122.588 318.195C123.239 318.387 123.745 318.728 124.108 319.219C124.471 319.699 124.652 320.28 124.652 320.963ZM120.46 314.563H118.204V317.843H120.46C121.057 317.843 121.516 317.699 121.836 317.411C122.156 317.112 122.316 316.707 122.316 316.195C122.316 315.683 122.156 315.283 121.836 314.995C121.516 314.707 121.057 314.563 120.46 314.563ZM122.78 322.355C123.175 322.003 123.372 321.528 123.372 320.931C123.372 320.333 123.175 319.859 122.78 319.507C122.396 319.155 121.863 318.979 121.18 318.979H118.204V322.883H121.18C121.863 322.883 122.396 322.707 122.78 322.355ZM126.719 324.003V316.211H127.951V324.003H126.719ZM126.415 313.235C126.415 312.989 126.506 312.781 126.687 312.611C126.869 312.429 127.087 312.339 127.343 312.339C127.589 312.339 127.802 312.429 127.983 312.611C128.165 312.781 128.255 312.989 128.255 313.235C128.255 313.491 128.165 313.704 127.983 313.875C127.813 314.045 127.599 314.131 127.343 314.131C127.087 314.131 126.869 314.045 126.687 313.875C126.506 313.704 126.415 313.491 126.415 313.235ZM134.801 316.211V317.299H134.337C133.654 317.299 133.073 317.507 132.593 317.923C132.124 318.339 131.889 318.893 131.889 319.587V324.003H130.657V316.211H131.809V317.315C132.385 316.536 133.19 316.147 134.225 316.147C134.428 316.147 134.62 316.168 134.801 316.211ZM140.71 322.963V324.003C140.187 324.12 139.755 324.179 139.414 324.179C138.582 324.179 137.936 323.965 137.478 323.539C137.019 323.112 136.79 322.483 136.79 321.651V317.315H135.478V316.211H136.79V314.083H138.022V316.211H140.454V317.315H138.022V321.571C138.022 322.104 138.155 322.488 138.422 322.723C138.699 322.947 139.115 323.059 139.67 323.059C139.968 323.059 140.315 323.027 140.71 322.963ZM148.996 319.107V324.003H147.764V319.267C147.764 318.627 147.588 318.12 147.236 317.747C146.894 317.363 146.425 317.171 145.828 317.171C145.23 317.171 144.74 317.368 144.356 317.763C143.972 318.157 143.78 318.659 143.78 319.267V324.003H142.548V312.003H143.78V317.091C144.345 316.387 145.124 316.035 146.116 316.035C147.001 316.035 147.7 316.317 148.212 316.883C148.734 317.437 148.996 318.179 148.996 319.107ZM157.786 312.003H159.018V324.003H157.85V322.771C157.551 323.208 157.135 323.555 156.602 323.811C156.079 324.056 155.514 324.179 154.906 324.179C153.807 324.179 152.89 323.789 152.154 323.011C151.418 322.221 151.05 321.256 151.05 320.115C151.05 318.963 151.418 317.997 152.154 317.219C152.901 316.429 153.818 316.035 154.906 316.035C155.493 316.035 156.042 316.152 156.554 316.387C157.066 316.621 157.477 316.947 157.786 317.363V312.003ZM157.802 320.115C157.802 319.176 157.535 318.451 157.002 317.939C156.479 317.427 155.839 317.171 155.082 317.171C154.293 317.171 153.631 317.448 153.098 318.003C152.575 318.557 152.314 319.256 152.314 320.099C152.314 320.941 152.575 321.645 153.098 322.211C153.631 322.765 154.293 323.043 155.082 323.043C155.839 323.043 156.479 322.787 157.002 322.275C157.535 321.763 157.802 321.043 157.802 320.115ZM167.559 319.203V324.003H166.407V322.995C165.81 323.784 164.935 324.179 163.783 324.179C162.973 324.179 162.317 323.981 161.815 323.587C161.314 323.181 161.063 322.648 161.063 321.987C161.063 321.325 161.319 320.797 161.831 320.403C162.343 320.008 163.021 319.811 163.863 319.811H166.327V319.139C166.327 318.509 166.157 318.024 165.815 317.683C165.485 317.341 165.026 317.171 164.439 317.171C163.565 317.171 162.807 317.587 162.167 318.419L161.351 317.747C162.045 316.605 163.101 316.035 164.519 316.035C165.458 316.035 166.199 316.312 166.743 316.867C167.287 317.411 167.559 318.189 167.559 319.203ZM166.327 321.011V320.819H164.007C162.887 320.819 162.327 321.187 162.327 321.923C162.327 322.307 162.477 322.611 162.775 322.835C163.085 323.048 163.474 323.155 163.943 323.155C164.594 323.155 165.154 322.947 165.623 322.531C166.093 322.115 166.327 321.608 166.327 321.011ZM175.709 316.211H177.021L173.181 325.091C172.605 326.403 171.725 327.059 170.541 327.059C170.125 327.059 169.725 327.005 169.34 326.899V325.859C169.789 325.912 170.103 325.939 170.285 325.939C170.711 325.939 171.063 325.843 171.341 325.651C171.618 325.469 171.853 325.149 172.045 324.691L172.461 323.763L169.229 316.211H170.557L173.133 322.419L175.709 316.211ZM182.69 318.723C182.658 317.219 183.186 315.928 184.274 314.851C185.373 313.773 186.674 313.245 188.178 313.267C189.106 313.267 189.954 313.469 190.722 313.875C191.501 314.28 192.114 314.835 192.562 315.539L191.634 316.275C190.77 315.037 189.623 314.419 188.194 314.419C186.999 314.419 185.997 314.829 185.186 315.651C184.386 316.472 183.986 317.496 183.986 318.723C183.986 319.949 184.386 320.973 185.186 321.795C185.997 322.616 186.999 323.027 188.194 323.027C189.623 323.027 190.77 322.408 191.634 321.171L192.562 321.907C192.114 322.611 191.501 323.165 190.722 323.571C189.954 323.976 189.106 324.179 188.178 324.179C186.674 324.2 185.373 323.672 184.274 322.595C183.186 321.517 182.658 320.227 182.69 318.723ZM200.481 319.203V324.003H199.329V322.995C198.732 323.784 197.857 324.179 196.705 324.179C195.895 324.179 195.239 323.981 194.737 323.587C194.236 323.181 193.985 322.648 193.985 321.987C193.985 321.325 194.241 320.797 194.753 320.403C195.265 320.008 195.943 319.811 196.785 319.811H199.249V319.139C199.249 318.509 199.079 318.024 198.737 317.683C198.407 317.341 197.948 317.171 197.361 317.171C196.487 317.171 195.729 317.587 195.089 318.419L194.273 317.747C194.967 316.605 196.023 316.035 197.441 316.035C198.38 316.035 199.121 316.312 199.665 316.867C200.209 317.411 200.481 318.189 200.481 319.203ZM199.249 321.011V320.819H196.929C195.809 320.819 195.249 321.187 195.249 321.923C195.249 322.307 195.399 322.611 195.697 322.835C196.007 323.048 196.396 323.155 196.865 323.155C197.516 323.155 198.076 322.947 198.545 322.531C199.015 322.115 199.249 321.608 199.249 321.011ZM207.238 316.211V317.299H206.774C206.092 317.299 205.51 317.507 205.03 317.923C204.561 318.339 204.326 318.893 204.326 319.587V324.003H203.094V316.211H204.246V317.315C204.822 316.536 205.628 316.147 206.662 316.147C206.865 316.147 207.057 316.168 207.238 316.211ZM214.911 312.003H216.143V324.003H214.975V322.771C214.676 323.208 214.26 323.555 213.727 323.811C213.204 324.056 212.639 324.179 212.031 324.179C210.932 324.179 210.015 323.789 209.279 323.011C208.543 322.221 208.175 321.256 208.175 320.115C208.175 318.963 208.543 317.997 209.279 317.219C210.026 316.429 210.943 316.035 212.031 316.035C212.618 316.035 213.167 316.152 213.679 316.387C214.191 316.621 214.602 316.947 214.911 317.363V312.003ZM214.927 320.115C214.927 319.176 214.66 318.451 214.127 317.939C213.604 317.427 212.964 317.171 212.207 317.171C211.418 317.171 210.756 317.448 210.223 318.003C209.7 318.557 209.439 319.256 209.439 320.099C209.439 320.941 209.7 321.645 210.223 322.211C210.756 322.765 211.418 323.043 212.207 323.043C212.964 323.043 213.604 322.787 214.127 322.275C214.66 321.763 214.927 321.043 214.927 320.115ZM116.268 350.723C116.236 349.219 116.764 347.928 117.852 346.851C118.951 345.773 120.252 345.245 121.756 345.267C122.684 345.267 123.532 345.469 124.3 345.875C125.079 346.28 125.692 346.835 126.14 347.539L125.212 348.275C124.348 347.037 123.201 346.419 121.772 346.419C120.577 346.419 119.575 346.829 118.764 347.651C117.964 348.472 117.564 349.496 117.564 350.723C117.564 351.949 117.964 352.973 118.764 353.795C119.575 354.616 120.577 355.027 121.772 355.027C123.201 355.027 124.348 354.408 125.212 353.171L126.14 353.907C125.692 354.611 125.079 355.165 124.3 355.571C123.532 355.976 122.684 356.179 121.756 356.179C120.252 356.2 118.951 355.672 117.852 354.595C116.764 353.517 116.236 352.227 116.268 350.723ZM132.442 348.211V349.299H131.978C131.295 349.299 130.714 349.507 130.234 349.923C129.764 350.339 129.53 350.893 129.53 351.587V356.003H128.298V348.211H129.45V349.315C130.026 348.536 130.831 348.147 131.866 348.147C132.068 348.147 132.26 348.168 132.442 348.211ZM134.094 356.003V348.211H135.326V356.003H134.094ZM133.79 345.235C133.79 344.989 133.881 344.781 134.062 344.611C134.244 344.429 134.462 344.339 134.718 344.339C134.964 344.339 135.177 344.429 135.358 344.611C135.54 344.781 135.63 344.989 135.63 345.235C135.63 345.491 135.54 345.704 135.358 345.875C135.188 346.045 134.974 346.131 134.718 346.131C134.462 346.131 134.244 346.045 134.062 345.875C133.881 345.704 133.79 345.491 133.79 345.235ZM137.296 354.659L138.08 353.843C138.485 354.259 138.853 354.563 139.184 354.755C139.525 354.947 139.904 355.043 140.32 355.043C140.757 355.043 141.115 354.947 141.392 354.755C141.669 354.552 141.808 354.28 141.808 353.939C141.808 353.64 141.707 353.411 141.504 353.251C141.312 353.08 140.96 352.893 140.448 352.691L139.696 352.371C139.024 352.093 138.533 351.789 138.224 351.459C137.915 351.128 137.76 350.712 137.76 350.211C137.76 349.549 138.005 349.021 138.496 348.627C138.997 348.232 139.627 348.035 140.384 348.035C141.44 348.035 142.309 348.445 142.992 349.267L142.24 350.035C141.664 349.459 141.024 349.171 140.32 349.171C139.925 349.171 139.611 349.256 139.376 349.427C139.141 349.597 139.024 349.837 139.024 350.147C139.024 350.392 139.109 350.595 139.28 350.755C139.461 350.904 139.797 351.08 140.288 351.283L141.008 351.587C141.755 351.907 142.283 352.243 142.592 352.595C142.912 352.936 143.072 353.368 143.072 353.891C143.072 354.616 142.805 355.181 142.272 355.587C141.749 355.981 141.104 356.179 140.336 356.179C139.088 356.179 138.075 355.672 137.296 354.659ZM149.554 354.963V356.003C149.031 356.12 148.599 356.179 148.258 356.179C147.426 356.179 146.78 355.965 146.322 355.539C145.863 355.112 145.634 354.483 145.634 353.651V349.315H144.322V348.211H145.634V346.083H146.866V348.211H149.298V349.315H146.866V353.571C146.866 354.104 146.999 354.488 147.266 354.723C147.543 354.947 147.959 355.059 148.514 355.059C148.812 355.059 149.159 355.027 149.554 354.963ZM162.767 351.107V356.003H161.535V351.267C161.535 350.627 161.37 350.12 161.039 349.747C160.719 349.363 160.271 349.171 159.695 349.171C159.119 349.171 158.639 349.363 158.255 349.747C157.882 350.131 157.695 350.6 157.695 351.155V356.003H156.463V351.267C156.463 350.637 156.293 350.131 155.951 349.747C155.621 349.363 155.173 349.171 154.607 349.171C154.021 349.171 153.541 349.368 153.167 349.763C152.805 350.147 152.623 350.648 152.623 351.267V356.003H151.391V348.211H152.543V349.027C153.119 348.365 153.893 348.035 154.863 348.035C155.994 348.035 156.794 348.483 157.263 349.379C157.893 348.483 158.783 348.035 159.935 348.035C160.821 348.035 161.514 348.312 162.015 348.867C162.517 349.421 162.767 350.168 162.767 351.107ZM171.216 351.203V356.003H170.064V354.995C169.466 355.784 168.592 356.179 167.44 356.179C166.629 356.179 165.973 355.981 165.472 355.587C164.97 355.181 164.72 354.648 164.72 353.987C164.72 353.325 164.976 352.797 165.488 352.403C166 352.008 166.677 351.811 167.52 351.811H169.984V351.139C169.984 350.509 169.813 350.024 169.472 349.683C169.141 349.341 168.682 349.171 168.096 349.171C167.221 349.171 166.464 349.587 165.824 350.419L165.008 349.747C165.701 348.605 166.757 348.035 168.176 348.035C169.114 348.035 169.856 348.312 170.4 348.867C170.944 349.411 171.216 350.189 171.216 351.203ZM169.984 353.011V352.819H167.664C166.544 352.819 165.984 353.187 165.984 353.923C165.984 354.307 166.133 354.611 166.432 354.835C166.741 355.048 167.13 355.155 167.6 355.155C168.25 355.155 168.81 354.947 169.28 354.531C169.749 354.115 169.984 353.608 169.984 353.011ZM173.093 354.659L173.877 353.843C174.282 354.259 174.65 354.563 174.981 354.755C175.322 354.947 175.701 355.043 176.117 355.043C176.554 355.043 176.911 354.947 177.189 354.755C177.466 354.552 177.605 354.28 177.605 353.939C177.605 353.64 177.503 353.411 177.301 353.251C177.109 353.08 176.757 352.893 176.245 352.691L175.493 352.371C174.821 352.093 174.33 351.789 174.021 351.459C173.711 351.128 173.557 350.712 173.557 350.211C173.557 349.549 173.802 349.021 174.293 348.627C174.794 348.232 175.423 348.035 176.181 348.035C177.237 348.035 178.106 348.445 178.789 349.267L178.037 350.035C177.461 349.459 176.821 349.171 176.117 349.171C175.722 349.171 175.407 349.256 175.173 349.427C174.938 349.597 174.821 349.837 174.821 350.147C174.821 350.392 174.906 350.595 175.077 350.755C175.258 350.904 175.594 351.08 176.085 351.283L176.805 351.587C177.551 351.907 178.079 352.243 178.389 352.595C178.709 352.936 178.869 353.368 178.869 353.891C178.869 354.616 178.602 355.181 178.069 355.587C177.546 355.981 176.901 356.179 176.133 356.179C174.885 356.179 173.871 355.672 173.093 354.659ZM184.987 350.723C184.955 349.219 185.483 347.928 186.571 346.851C187.669 345.773 188.971 345.245 190.475 345.267C191.403 345.267 192.251 345.469 193.019 345.875C193.797 346.28 194.411 346.835 194.859 347.539L193.931 348.275C193.067 347.037 191.92 346.419 190.491 346.419C189.296 346.419 188.293 346.829 187.483 347.651C186.683 348.472 186.283 349.496 186.283 350.723C186.283 351.949 186.683 352.973 187.483 353.795C188.293 354.616 189.296 355.027 190.491 355.027C191.92 355.027 193.067 354.408 193.931 353.171L194.859 353.907C194.411 354.611 193.797 355.165 193.019 355.571C192.251 355.976 191.403 356.179 190.475 356.179C188.971 356.2 187.669 355.672 186.571 354.595C185.483 353.517 184.955 352.227 184.987 350.723ZM202.778 351.203V356.003H201.626V354.995C201.029 355.784 200.154 356.179 199.002 356.179C198.191 356.179 197.535 355.981 197.034 355.587C196.533 355.181 196.282 354.648 196.282 353.987C196.282 353.325 196.538 352.797 197.05 352.403C197.562 352.008 198.239 351.811 199.082 351.811H201.546V351.139C201.546 350.509 201.375 350.024 201.034 349.683C200.703 349.341 200.245 349.171 199.658 349.171C198.783 349.171 198.026 349.587 197.386 350.419L196.57 349.747C197.263 348.605 198.319 348.035 199.738 348.035C200.677 348.035 201.418 348.312 201.962 348.867C202.506 349.411 202.778 350.189 202.778 351.203ZM201.546 353.011V352.819H199.226C198.106 352.819 197.546 353.187 197.546 353.923C197.546 354.307 197.695 354.611 197.994 354.835C198.303 355.048 198.693 355.155 199.162 355.155C199.813 355.155 200.373 354.947 200.842 354.531C201.311 354.115 201.546 353.608 201.546 353.011ZM209.535 348.211V349.299H209.071C208.389 349.299 207.807 349.507 207.327 349.923C206.858 350.339 206.623 350.893 206.623 351.587V356.003H205.391V348.211H206.543V349.315C207.119 348.536 207.925 348.147 208.959 348.147C209.162 348.147 209.354 348.168 209.535 348.211ZM217.208 344.003H218.44V356.003H217.272V354.771C216.973 355.208 216.557 355.555 216.024 355.811C215.501 356.056 214.936 356.179 214.328 356.179C213.229 356.179 212.312 355.789 211.576 355.011C210.84 354.221 210.472 353.256 210.472 352.115C210.472 350.963 210.84 349.997 211.576 349.219C212.323 348.429 213.24 348.035 214.328 348.035C214.915 348.035 215.464 348.152 215.976 348.387C216.488 348.621 216.899 348.947 217.208 349.363V344.003ZM217.224 352.115C217.224 351.176 216.957 350.451 216.424 349.939C215.901 349.427 215.261 349.171 214.504 349.171C213.715 349.171 213.053 349.448 212.52 350.003C211.997 350.557 211.736 351.256 211.736 352.099C211.736 352.941 211.997 353.645 212.52 354.211C213.053 354.765 213.715 355.043 214.504 355.043C215.261 355.043 215.901 354.787 216.424 354.275C216.957 353.763 217.224 353.043 217.224 352.115ZM119.516 388.003V378.563H115.804V377.443H124.492V378.563H120.764V388.003H119.516ZM130.95 383.203V388.003H129.798V386.995C129.201 387.784 128.326 388.179 127.174 388.179C126.363 388.179 125.707 387.981 125.206 387.587C124.705 387.181 124.454 386.648 124.454 385.987C124.454 385.325 124.71 384.797 125.222 384.403C125.734 384.008 126.411 383.811 127.254 383.811H129.718V383.139C129.718 382.509 129.547 382.024 129.206 381.683C128.875 381.341 128.417 381.171 127.83 381.171C126.955 381.171 126.198 381.587 125.558 382.419L124.742 381.747C125.435 380.605 126.491 380.035 127.91 380.035C128.849 380.035 129.59 380.312 130.134 380.867C130.678 381.411 130.95 382.189 130.95 383.203ZM129.718 385.011V384.819H127.398C126.278 384.819 125.718 385.187 125.718 385.923C125.718 386.307 125.867 386.611 126.166 386.835C126.475 387.048 126.865 387.155 127.334 387.155C127.985 387.155 128.545 386.947 129.014 386.531C129.483 386.115 129.718 385.608 129.718 385.011ZM139.819 388.003H138.395L136.171 384.803L133.963 388.003H132.523L135.419 383.939L132.763 380.211H134.187L136.171 383.075L138.171 380.211H139.595L136.891 383.939L139.819 388.003ZM146.097 388.003V377.443H152.705V378.563H147.345V382.195H151.793V383.331H147.345V388.003H146.097ZM153.347 384.099C153.326 382.989 153.72 382.029 154.531 381.219C155.352 380.408 156.318 380.013 157.427 380.035C158.547 380.013 159.512 380.408 160.323 381.219C161.134 382.029 161.528 382.989 161.507 384.099C161.528 385.197 161.128 386.157 160.307 386.979C159.486 387.789 158.52 388.184 157.411 388.163C156.302 388.184 155.342 387.789 154.531 386.979C153.72 386.157 153.326 385.197 153.347 384.099ZM160.243 384.115C160.243 383.283 159.971 382.584 159.427 382.019C158.894 381.453 158.227 381.171 157.427 381.171C156.627 381.171 155.955 381.453 155.411 382.019C154.878 382.573 154.611 383.272 154.611 384.115C154.611 384.936 154.878 385.629 155.411 386.195C155.955 386.749 156.622 387.027 157.411 387.027C158.2 387.027 158.867 386.744 159.411 386.179C159.966 385.613 160.243 384.925 160.243 384.115ZM163.113 384.099C163.091 382.989 163.486 382.029 164.297 381.219C165.107 380.408 166.073 380.013 167.193 380.035C167.865 380.035 168.478 380.184 169.033 380.483C169.587 380.781 170.046 381.197 170.409 381.731L169.529 382.435C168.91 381.592 168.137 381.171 167.209 381.171C166.409 381.171 165.737 381.459 165.193 382.035C164.649 382.6 164.377 383.288 164.377 384.099C164.377 384.92 164.649 385.619 165.193 386.195C165.737 386.76 166.409 387.043 167.209 387.043C168.126 387.043 168.894 386.627 169.513 385.795L170.392 386.483C169.625 387.613 168.558 388.179 167.193 388.179C166.062 388.179 165.097 387.784 164.297 386.995C163.507 386.195 163.113 385.229 163.113 384.099ZM172.389 384.899V380.211H173.605V384.979C173.605 385.597 173.792 386.099 174.165 386.483C174.549 386.856 175.034 387.043 175.621 387.043C176.197 387.043 176.672 386.851 177.045 386.467C177.418 386.083 177.605 385.587 177.605 384.979V380.211H178.837V384.899C178.837 385.869 178.528 386.659 177.909 387.267C177.301 387.875 176.538 388.179 175.621 388.179C174.693 388.179 173.92 387.875 173.301 387.267C172.693 386.659 172.389 385.869 172.389 384.899ZM180.702 386.659L181.486 385.843C181.891 386.259 182.259 386.563 182.59 386.755C182.931 386.947 183.31 387.043 183.726 387.043C184.163 387.043 184.521 386.947 184.798 386.755C185.075 386.552 185.214 386.28 185.214 385.939C185.214 385.64 185.113 385.411 184.91 385.251C184.718 385.08 184.366 384.893 183.854 384.691L183.102 384.371C182.43 384.093 181.939 383.789 181.63 383.459C181.321 383.128 181.166 382.712 181.166 382.211C181.166 381.549 181.411 381.021 181.902 380.627C182.403 380.232 183.033 380.035 183.79 380.035C184.846 380.035 185.715 380.445 186.398 381.267L185.646 382.035C185.07 381.459 184.43 381.171 183.726 381.171C183.331 381.171 183.017 381.256 182.782 381.427C182.547 381.597 182.43 381.837 182.43 382.147C182.43 382.392 182.515 382.595 182.686 382.755C182.867 382.904 183.203 383.08 183.694 383.283L184.414 383.587C185.161 383.907 185.689 384.243 185.998 384.595C186.318 384.936 186.478 385.368 186.478 385.891C186.478 386.616 186.211 387.181 185.678 387.587C185.155 387.981 184.51 388.179 183.742 388.179C182.494 388.179 181.481 387.672 180.702 386.659ZM192.596 382.723C192.564 381.219 193.092 379.928 194.18 378.851C195.279 377.773 196.58 377.245 198.084 377.267C199.012 377.267 199.86 377.469 200.628 377.875C201.407 378.28 202.02 378.835 202.468 379.539L201.54 380.275C200.676 379.037 199.529 378.419 198.1 378.419C196.905 378.419 195.903 378.829 195.092 379.651C194.292 380.472 193.892 381.496 193.892 382.723C193.892 383.949 194.292 384.973 195.092 385.795C195.903 386.616 196.905 387.027 198.1 387.027C199.529 387.027 200.676 386.408 201.54 385.171L202.468 385.907C202.02 386.611 201.407 387.165 200.628 387.571C199.86 387.976 199.012 388.179 198.084 388.179C196.58 388.2 195.279 387.672 194.18 386.595C193.092 385.517 192.564 384.227 192.596 382.723ZM210.388 383.203V388.003H209.236V386.995C208.638 387.784 207.764 388.179 206.612 388.179C205.801 388.179 205.145 387.981 204.644 387.587C204.142 387.181 203.892 386.648 203.892 385.987C203.892 385.325 204.148 384.797 204.66 384.403C205.172 384.008 205.849 383.811 206.692 383.811H209.156V383.139C209.156 382.509 208.985 382.024 208.644 381.683C208.313 381.341 207.854 381.171 207.268 381.171C206.393 381.171 205.636 381.587 204.996 382.419L204.18 381.747C204.873 380.605 205.929 380.035 207.348 380.035C208.286 380.035 209.028 380.312 209.572 380.867C210.116 381.411 210.388 382.189 210.388 383.203ZM209.156 385.011V384.819H206.836C205.716 384.819 205.156 385.187 205.156 385.923C205.156 386.307 205.305 386.611 205.604 386.835C205.913 387.048 206.302 387.155 206.772 387.155C207.422 387.155 207.982 386.947 208.452 386.531C208.921 386.115 209.156 385.608 209.156 385.011ZM217.145 380.211V381.299H216.681C215.998 381.299 215.417 381.507 214.937 381.923C214.467 382.339 214.233 382.893 214.233 383.587V388.003H213.001V380.211H214.153V381.315C214.729 380.536 215.534 380.147 216.569 380.147C216.771 380.147 216.963 380.168 217.145 380.211ZM224.817 376.003H226.049V388.003H224.881V386.771C224.583 387.208 224.167 387.555 223.633 387.811C223.111 388.056 222.545 388.179 221.937 388.179C220.839 388.179 219.921 387.789 219.185 387.011C218.449 386.221 218.081 385.256 218.081 384.115C218.081 382.963 218.449 381.997 219.185 381.219C219.932 380.429 220.849 380.035 221.937 380.035C222.524 380.035 223.073 380.152 223.585 380.387C224.097 380.621 224.508 380.947 224.817 381.363V376.003ZM224.833 384.115C224.833 383.176 224.567 382.451 224.033 381.939C223.511 381.427 222.871 381.171 222.113 381.171C221.324 381.171 220.663 381.448 220.129 382.003C219.607 382.557 219.345 383.256 219.345 384.099C219.345 384.941 219.607 385.645 220.129 386.211C220.663 386.765 221.324 387.043 222.113 387.043C222.871 387.043 223.511 386.787 224.033 386.275C224.567 385.763 224.833 385.043 224.833 384.115ZM116.268 414.723C116.247 413.208 116.775 411.917 117.852 410.851C118.94 409.773 120.241 409.245 121.756 409.267C122.641 409.267 123.457 409.459 124.204 409.843C124.951 410.216 125.569 410.744 126.06 411.427L125.116 412.163C124.252 411 123.132 410.419 121.756 410.419C120.561 410.397 119.559 410.808 118.748 411.651C117.937 412.493 117.543 413.512 117.564 414.707C117.543 415.923 117.943 416.957 118.764 417.811C119.596 418.664 120.615 419.08 121.82 419.059C122.577 419.059 123.26 418.893 123.868 418.563C124.487 418.221 124.977 417.757 125.34 417.171V415.747H121.74V414.627H126.588V417.443C126.119 418.275 125.452 418.941 124.588 419.443C123.745 419.933 122.801 420.179 121.756 420.179C120.241 420.2 118.94 419.677 117.852 418.611C116.775 417.533 116.247 416.237 116.268 414.723ZM128.238 416.099C128.216 414.989 128.611 414.029 129.422 413.219C130.243 412.408 131.208 412.013 132.318 412.035C133.438 412.013 134.403 412.408 135.214 413.219C136.024 414.029 136.419 414.989 136.398 416.099C136.419 417.197 136.019 418.157 135.198 418.979C134.376 419.789 133.411 420.184 132.302 420.163C131.192 420.184 130.232 419.789 129.422 418.979C128.611 418.157 128.216 417.197 128.238 416.099ZM135.134 416.115C135.134 415.283 134.862 414.584 134.318 414.019C133.784 413.453 133.118 413.171 132.318 413.171C131.518 413.171 130.846 413.453 130.302 414.019C129.768 414.573 129.502 415.272 129.502 416.115C129.502 416.936 129.768 417.629 130.302 418.195C130.846 418.749 131.512 419.027 132.302 419.027C133.091 419.027 133.758 418.744 134.302 418.179C134.856 417.613 135.134 416.925 135.134 416.115ZM138.563 420.003V408.003H139.795V420.003H138.563ZM143.925 410.435V412.211H145.877V413.315H143.925V420.003H142.693V413.315H141.573V412.211H142.693V410.355C142.693 409.523 142.917 408.893 143.365 408.467C143.823 408.04 144.458 407.827 145.269 407.827C145.599 407.827 145.925 407.869 146.245 407.955V408.995C145.989 408.963 145.759 408.947 145.557 408.947C145.013 408.947 144.602 409.064 144.325 409.299C144.058 409.523 143.925 409.901 143.925 410.435ZM151.44 420.003V409.443H154.576C156.326 409.443 157.718 409.933 158.752 410.915C159.798 411.885 160.32 413.149 160.32 414.707C160.32 416.253 159.798 417.523 158.752 418.515C157.707 419.507 156.315 420.003 154.576 420.003H151.44ZM152.688 418.883H154.56C155.926 418.883 157.008 418.493 157.808 417.715C158.619 416.936 159.024 415.933 159.024 414.707C159.024 413.469 158.624 412.472 157.824 411.715C157.024 410.947 155.936 410.563 154.56 410.563H152.688V418.883ZM168.294 415.203V420.003H167.142V418.995C166.544 419.784 165.67 420.179 164.518 420.179C163.707 420.179 163.051 419.981 162.55 419.587C162.048 419.181 161.798 418.648 161.798 417.987C161.798 417.325 162.054 416.797 162.566 416.403C163.078 416.008 163.755 415.811 164.598 415.811H167.062V415.139C167.062 414.509 166.891 414.024 166.55 413.683C166.219 413.341 165.76 413.171 165.174 413.171C164.299 413.171 163.542 413.587 162.902 414.419L162.086 413.747C162.779 412.605 163.835 412.035 165.254 412.035C166.192 412.035 166.934 412.312 167.478 412.867C168.022 413.411 168.294 414.189 168.294 415.203ZM167.062 417.011V416.819H164.742C163.622 416.819 163.062 417.187 163.062 417.923C163.062 418.307 163.211 418.611 163.51 418.835C163.819 419.048 164.208 419.155 164.678 419.155C165.328 419.155 165.888 418.947 166.358 418.531C166.827 418.115 167.062 417.608 167.062 417.011ZM176.443 412.211H177.755L173.915 421.091C173.339 422.403 172.459 423.059 171.275 423.059C170.859 423.059 170.459 423.005 170.075 422.899V421.859C170.523 421.912 170.838 421.939 171.019 421.939C171.446 421.939 171.798 421.843 172.075 421.651C172.352 421.469 172.587 421.149 172.779 420.691L173.195 419.763L169.963 412.211H171.291L173.867 418.419L176.443 412.211ZM184.112 420.003V409.443H185.36V420.003H184.112ZM194.527 415.107V420.003H193.295V415.251C193.295 414.632 193.119 414.131 192.767 413.747C192.425 413.363 191.956 413.171 191.359 413.171C190.761 413.171 190.271 413.368 189.887 413.763C189.503 414.147 189.311 414.643 189.311 415.251V420.003H188.079V412.211H189.231V413.043C189.839 412.371 190.639 412.035 191.631 412.035C192.527 412.035 193.231 412.317 193.743 412.883C194.265 413.437 194.527 414.179 194.527 415.107ZM202.365 412.211H203.677L200.013 420.179H199.565L195.885 412.211H197.197L199.789 418.083L202.365 412.211ZM205.454 420.003V412.211H206.686V420.003H205.454ZM205.15 409.235C205.15 408.989 205.24 408.781 205.422 408.611C205.603 408.429 205.822 408.339 206.078 408.339C206.323 408.339 206.536 408.429 206.718 408.611C206.899 408.781 206.99 408.989 206.99 409.235C206.99 409.491 206.899 409.704 206.718 409.875C206.547 410.045 206.334 410.131 206.078 410.131C205.822 410.131 205.603 410.045 205.422 409.875C205.24 409.704 205.15 409.491 205.15 409.235ZM213.647 418.963V420.003C213.125 420.12 212.693 420.179 212.351 420.179C211.519 420.179 210.874 419.965 210.415 419.539C209.957 419.112 209.727 418.483 209.727 417.651V413.315H208.415V412.211H209.727V410.083H210.959V412.211H213.391V413.315H210.959V417.571C210.959 418.104 211.093 418.488 211.359 418.723C211.637 418.947 212.053 419.059 212.607 419.059C212.906 419.059 213.253 419.027 213.647 418.963ZM221.325 415.203V420.003H220.173V418.995C219.576 419.784 218.701 420.179 217.549 420.179C216.738 420.179 216.082 419.981 215.581 419.587C215.08 419.181 214.829 418.648 214.829 417.987C214.829 417.325 215.085 416.797 215.597 416.403C216.109 416.008 216.786 415.811 217.629 415.811H220.093V415.139C220.093 414.509 219.922 414.024 219.581 413.683C219.25 413.341 218.792 413.171 218.205 413.171C217.33 413.171 216.573 413.587 215.933 414.419L215.117 413.747C215.81 412.605 216.866 412.035 218.285 412.035C219.224 412.035 219.965 412.312 220.509 412.867C221.053 413.411 221.325 414.189 221.325 415.203ZM220.093 417.011V416.819H217.773C216.653 416.819 216.093 417.187 216.093 417.923C216.093 418.307 216.242 418.611 216.541 418.835C216.85 419.048 217.24 419.155 217.709 419.155C218.36 419.155 218.92 418.947 219.389 418.531C219.858 418.115 220.093 417.608 220.093 417.011ZM228.194 418.963V420.003C227.671 420.12 227.239 420.179 226.898 420.179C226.066 420.179 225.421 419.965 224.962 419.539C224.503 419.112 224.274 418.483 224.274 417.651V413.315H222.962V412.211H224.274V410.083H225.506V412.211H227.938V413.315H225.506V417.571C225.506 418.104 225.639 418.488 225.906 418.723C226.183 418.947 226.599 419.059 227.154 419.059C227.453 419.059 227.799 419.027 228.194 418.963ZM230.032 420.003V412.211H231.264V420.003H230.032ZM229.728 409.235C229.728 408.989 229.819 408.781 230 408.611C230.181 408.429 230.4 408.339 230.656 408.339C230.901 408.339 231.115 408.429 231.296 408.611C231.477 408.781 231.568 408.989 231.568 409.235C231.568 409.491 231.477 409.704 231.296 409.875C231.125 410.045 230.912 410.131 230.656 410.131C230.4 410.131 230.181 410.045 230 409.875C229.819 409.704 229.728 409.491 229.728 409.235ZM233.409 416.099C233.388 414.989 233.783 414.029 234.593 413.219C235.415 412.408 236.38 412.013 237.489 412.035C238.609 412.013 239.575 412.408 240.385 413.219C241.196 414.029 241.591 414.989 241.569 416.099C241.591 417.197 241.191 418.157 240.369 418.979C239.548 419.789 238.583 420.184 237.473 420.163C236.364 420.184 235.404 419.789 234.593 418.979C233.783 418.157 233.388 417.197 233.409 416.099ZM240.305 416.115C240.305 415.283 240.033 414.584 239.489 414.019C238.956 413.453 238.289 413.171 237.489 413.171C236.689 413.171 236.017 413.453 235.473 414.019C234.94 414.573 234.673 415.272 234.673 416.115C234.673 416.936 234.94 417.629 235.473 418.195C236.017 418.749 236.684 419.027 237.473 419.027C238.263 419.027 238.929 418.744 239.473 418.179C240.028 417.613 240.305 416.925 240.305 416.115ZM250.183 415.107V420.003H248.951V415.251C248.951 414.632 248.775 414.131 248.423 413.747C248.082 413.363 247.612 413.171 247.015 413.171C246.418 413.171 245.927 413.368 245.543 413.763C245.159 414.147 244.967 414.643 244.967 415.251V420.003H243.735V412.211H244.887V413.043C245.495 412.371 246.295 412.035 247.287 412.035C248.183 412.035 248.887 412.317 249.399 412.883C249.922 413.437 250.183 414.179 250.183 415.107Z" fill="black"/>
</g>
<defs>
<filter id="filter0_d" x="70.5" y="64.0026" width="318" height="394" filterUnits="userSpaceOnUse" color-interpolation-filters="sRGB">
<feFlood flood-opacity="0" result="BackgroundImageFix"/>
<feColorMatrix in="SourceAlpha" type="matrix" values="0 0 0 0 0 0 0 0 0 0 0 0 0 0 0 0 0 0 127 0"/>
<feOffset/>
<feGaussianBlur stdDeviation="5.5"/>
<feColorMatrix type="matrix" values="0 0 0 0 0 0 0 0 0 0 0 0 0 0 0 0 0 0 0.1 0"/>
<feBlend mode="normal" in2="BackgroundImageFix" result="effect1_dropShadow"/>
<feBlend mode="normal" in="SourceGraphic" in2="effect1_dropShadow" result="shape"/>
</filter>
<linearGradient id="paint0_linear" x1="238.014" y1="34.2933" x2="238.014" y2="482.291" gradientUnits="userSpaceOnUse">
<stop stop-color="#ED0874"/>
<stop offset="1" stop-color="#048DFD"/>
</linearGradient>
<linearGradient id="paint1_linear" x1="196.911" y1="38.0967" x2="279.116" y2="478.487" gradientUnits="userSpaceOnUse">
<stop stop-color="#ED0874"/>
<stop offset="1" stop-color="#048DFD"/>
</linearGradient>
<clipPath id="clip0">
<rect width="459" height="523" fill="white"/>
</clipPath>
</defs>
</svg>
