<svg width="459" height="523" viewBox="0 0 459 523" fill="none" xmlns="http://www.w3.org/2000/svg">
<g clip-path="url(#clip0)">
<path opacity="0.75" d="M31.2669 212.767C32.0709 122.43 152.661 32.0944 204.112 34.3341C257.976 34.3341 461.37 217.993 443.684 303.849C425.997 389.706 230.642 480.788 155.072 482.281C79.5028 483.775 30.463 303.103 31.2669 212.767Z" fill="url(#paint0_linear)" fill-opacity="0.5"/>
<path d="M26.4237 251.477C10.6377 162.527 112.604 51.597 163.593 44.3576C216.541 34.4739 450.183 177.692 448.551 265.336C446.919 352.98 271.594 478.363 197.582 493.698C123.569 509.032 42.2096 340.426 26.4237 251.477Z" fill="url(#paint1_linear)" fill-opacity="0.5"/>
<g filter="url(#filter0_d)">
<path d="M81.5 92.0026C81.5 83.1661 88.6634 76.0026 97.5 76.0026H361.5C370.337 76.0026 377.5 83.1661 377.5 92.0026V223.973H81.5V92.0026Z" fill="white"/>
<path d="M81.5 224.003H377.5V432.003C377.5 440.839 370.337 448.003 361.5 448.003H97.5C88.6635 448.003 81.5 440.839 81.5 432.003V224.003Z" fill="white"/>
</g>
<path d="M142.383 139.723C142.351 138.219 142.89 136.928 143.999 135.851C145.109 134.773 146.421 134.245 147.935 134.267C148.895 134.267 149.775 134.485 150.575 134.923C151.375 135.36 152.005 135.952 152.463 136.699L151.183 137.643C150.405 136.427 149.327 135.819 147.951 135.819C146.863 135.819 145.957 136.192 145.231 136.939C144.506 137.675 144.143 138.603 144.143 139.723C144.143 140.843 144.506 141.776 145.231 142.523C145.957 143.259 146.863 143.627 147.951 143.627C149.327 143.627 150.405 143.019 151.183 141.803L152.463 142.747C152.005 143.504 151.375 144.101 150.575 144.539C149.786 144.965 148.906 145.179 147.935 145.179C146.421 145.2 145.109 144.672 143.999 143.595C142.89 142.517 142.351 141.227 142.383 139.723ZM154.38 145.003V133.003H156.06V145.003H154.38ZM158.489 145.003V137.147H160.169V145.003H158.489ZM158.521 135.003C158.297 134.789 158.185 134.528 158.185 134.219C158.185 133.909 158.297 133.648 158.521 133.435C158.745 133.211 159.017 133.099 159.337 133.099C159.647 133.099 159.913 133.211 160.137 133.435C160.361 133.648 160.473 133.909 160.473 134.219C160.473 134.528 160.361 134.789 160.137 135.003C159.913 135.216 159.647 135.323 159.337 135.323C159.017 135.323 158.745 135.216 158.521 135.003ZM169.671 141.627H163.815C163.921 142.267 164.204 142.773 164.663 143.147C165.132 143.509 165.703 143.691 166.375 143.691C167.207 143.691 167.969 143.381 168.663 142.763L169.463 143.915C168.577 144.757 167.532 145.179 166.327 145.179C165.132 145.179 164.129 144.789 163.319 144.011C162.508 143.221 162.103 142.245 162.103 141.083C162.081 139.952 162.476 138.981 163.287 138.171C164.097 137.349 165.057 136.949 166.167 136.971C167.201 136.971 168.065 137.317 168.759 138.011C169.452 138.693 169.799 139.547 169.799 140.571C169.799 140.88 169.756 141.232 169.671 141.627ZM163.847 140.315H168.119C168.108 139.728 167.911 139.264 167.527 138.923C167.143 138.571 166.668 138.395 166.103 138.395C165.548 138.395 165.063 138.571 164.647 138.923C164.241 139.264 163.975 139.728 163.847 140.315ZM178.588 140.091V145.003H176.908V140.315C176.908 139.771 176.748 139.333 176.428 139.003C176.118 138.661 175.708 138.491 175.196 138.491C174.673 138.491 174.241 138.661 173.9 139.003C173.569 139.344 173.404 139.781 173.404 140.315V145.003H171.724V137.147H173.292V137.915C173.889 137.285 174.673 136.971 175.644 136.971C176.55 136.971 177.265 137.253 177.788 137.819C178.321 138.384 178.588 139.141 178.588 140.091ZM185.599 143.579V145.003C185.044 145.12 184.58 145.179 184.207 145.179C183.29 145.179 182.575 144.949 182.063 144.491C181.562 144.032 181.311 143.349 181.311 142.443V138.603H180.031V137.147H181.311V135.083H183.007V137.147H185.343V138.603H183.007V142.299C183.007 142.789 183.13 143.141 183.375 143.355C183.631 143.557 184.026 143.659 184.559 143.659C184.74 143.659 185.087 143.632 185.599 143.579ZM186.566 143.659L187.526 142.603C188.241 143.349 188.977 143.723 189.734 143.723C190.107 143.723 190.411 143.648 190.646 143.499C190.881 143.339 190.998 143.12 190.998 142.843C190.998 142.629 190.918 142.459 190.758 142.331C190.598 142.192 190.31 142.037 189.894 141.867L189.094 141.531C188.379 141.232 187.857 140.912 187.526 140.571C187.206 140.219 187.046 139.776 187.046 139.243C187.046 138.549 187.302 138 187.814 137.595C188.337 137.179 189.003 136.971 189.814 136.971C190.945 136.971 191.851 137.376 192.534 138.187L191.622 139.227C191.11 138.693 190.497 138.427 189.782 138.427C189.067 138.427 188.71 138.677 188.71 139.179C188.71 139.371 188.785 139.536 188.934 139.675C189.083 139.803 189.355 139.947 189.75 140.107L190.502 140.411C191.259 140.731 191.803 141.072 192.134 141.435C192.475 141.787 192.646 142.235 192.646 142.779C192.646 143.536 192.369 144.128 191.814 144.555C191.259 144.971 190.566 145.179 189.734 145.179C188.401 145.179 187.345 144.672 186.566 143.659ZM208.935 137.147H210.727L207.239 145.179H206.663L204.199 139.947L201.735 145.179H201.159L197.671 137.147H199.463L201.527 142.283L203.911 136.971H204.487L206.903 142.219L208.935 137.147ZM212.239 145.003V137.147H213.919V145.003H212.239ZM212.271 135.003C212.047 134.789 211.935 134.528 211.935 134.219C211.935 133.909 212.047 133.648 212.271 133.435C212.495 133.211 212.767 133.099 213.087 133.099C213.397 133.099 213.663 133.211 213.887 133.435C214.111 133.648 214.223 133.909 214.223 134.219C214.223 134.528 214.111 134.789 213.887 135.003C213.663 135.216 213.397 135.323 213.087 135.323C212.767 135.323 212.495 135.216 212.271 135.003ZM221.021 143.579V145.003C220.466 145.12 220.002 145.179 219.629 145.179C218.711 145.179 217.997 144.949 217.485 144.491C216.983 144.032 216.733 143.349 216.733 142.443V138.603H215.453V137.147H216.733V135.083H218.429V137.147H220.765V138.603H218.429V142.299C218.429 142.789 218.551 143.141 218.797 143.355C219.053 143.557 219.447 143.659 219.981 143.659C220.162 143.659 220.509 143.632 221.021 143.579ZM229.588 140.091V145.003H227.908V140.331C227.908 139.787 227.753 139.349 227.444 139.019C227.134 138.677 226.718 138.507 226.196 138.507C225.673 138.507 225.241 138.677 224.9 139.019C224.569 139.36 224.404 139.797 224.404 140.331V145.003H222.724V133.003H224.404V137.931C224.948 137.291 225.705 136.971 226.676 136.971C227.561 136.971 228.265 137.259 228.788 137.835C229.321 138.4 229.588 139.152 229.588 140.091ZM239.083 143.547H243.259V145.003H235.979V144.619C236.694 144.117 237.227 143.632 237.579 143.163C237.931 142.683 238.107 142.155 238.107 141.579C238.107 141.408 238.102 141.296 238.091 141.243H236.139V139.787H237.563L237.227 139.163C236.865 138.459 236.683 137.803 236.683 137.195C236.683 136.32 236.987 135.616 237.595 135.083C238.214 134.539 238.998 134.267 239.947 134.267C240.811 134.267 241.542 134.501 242.139 134.971C242.737 135.44 243.158 136.123 243.403 137.019L241.947 137.547C241.595 136.395 240.961 135.819 240.043 135.819C239.542 135.819 239.142 135.973 238.843 136.283C238.555 136.581 238.411 136.976 238.411 137.467C238.411 137.957 238.625 138.56 239.051 139.275C239.222 139.573 239.313 139.744 239.323 139.787H241.867V141.243H239.787C239.798 141.285 239.803 141.392 239.803 141.563C239.803 142.341 239.563 143.003 239.083 143.547ZM252.121 141.595C252.121 142.64 251.742 143.499 250.985 144.171C250.228 144.843 249.31 145.179 248.233 145.179C247.38 145.179 246.628 144.976 245.977 144.571C245.326 144.165 244.814 143.611 244.441 142.907L245.625 142.059C246.308 143.104 247.161 143.627 248.185 143.627C248.825 143.627 249.348 143.445 249.753 143.083C250.169 142.709 250.377 142.224 250.377 141.627C250.377 141.029 250.164 140.571 249.737 140.251C249.321 139.92 248.724 139.755 247.945 139.755H245.513V134.443H251.529V135.963H247.177V138.443C247.593 138.347 248.041 138.299 248.521 138.299C249.524 138.299 250.372 138.592 251.065 139.179C251.769 139.765 252.121 140.571 252.121 141.595ZM253.874 139.627C253.874 138.016 254.216 136.725 254.898 135.755C255.581 134.763 256.584 134.267 257.906 134.267C259.229 134.267 260.226 134.757 260.898 135.739C261.581 136.709 261.922 138.005 261.922 139.627C261.922 141.269 261.576 142.608 260.882 143.643C260.2 144.667 259.208 145.179 257.906 145.179C256.605 145.179 255.608 144.661 254.914 143.627C254.221 142.592 253.874 141.259 253.874 139.627ZM260.162 139.643C260.162 137.093 259.41 135.819 257.906 135.819C256.392 135.819 255.634 137.093 255.634 139.643C255.634 142.299 256.392 143.627 257.906 143.627C259.41 143.627 260.162 142.299 260.162 139.643ZM263.974 147.851L264.134 143.307H266.086L265.334 147.851H263.974ZM268.046 139.627C268.046 138.016 268.388 136.725 269.07 135.755C269.753 134.763 270.756 134.267 272.078 134.267C273.401 134.267 274.398 134.757 275.07 135.739C275.753 136.709 276.094 138.005 276.094 139.627C276.094 141.269 275.748 142.608 275.054 143.643C274.372 144.667 273.38 145.179 272.078 145.179C270.777 145.179 269.78 144.661 269.086 143.627C268.393 142.592 268.046 141.259 268.046 139.627ZM274.334 139.643C274.334 137.093 273.582 135.819 272.078 135.819C270.564 135.819 269.806 137.093 269.806 139.643C269.806 142.299 270.564 143.627 272.078 143.627C273.582 143.627 274.334 142.299 274.334 139.643ZM278.046 139.627C278.046 138.016 278.388 136.725 279.07 135.755C279.753 134.763 280.756 134.267 282.078 134.267C283.401 134.267 284.398 134.757 285.07 135.739C285.753 136.709 286.094 138.005 286.094 139.627C286.094 141.269 285.748 142.608 285.054 143.643C284.372 144.667 283.38 145.179 282.078 145.179C280.777 145.179 279.78 144.661 279.086 143.627C278.393 142.592 278.046 141.259 278.046 139.627ZM284.334 139.643C284.334 137.093 283.582 135.819 282.078 135.819C280.564 135.819 279.806 137.093 279.806 139.643C279.806 142.299 280.564 143.627 282.078 143.627C283.582 143.627 284.334 142.299 284.334 139.643ZM288.046 139.627C288.046 138.016 288.388 136.725 289.07 135.755C289.753 134.763 290.756 134.267 292.078 134.267C293.401 134.267 294.398 134.757 295.07 135.739C295.753 136.709 296.094 138.005 296.094 139.627C296.094 141.269 295.748 142.608 295.054 143.643C294.372 144.667 293.38 145.179 292.078 145.179C290.777 145.179 289.78 144.661 289.086 143.627C288.393 142.592 288.046 141.259 288.046 139.627ZM294.334 139.643C294.334 137.093 293.582 135.819 292.078 135.819C290.564 135.819 289.806 137.093 289.806 139.643C289.806 142.299 290.564 143.627 292.078 143.627C293.582 143.627 294.334 142.299 294.334 139.643ZM302.275 141.067C302.253 139.947 302.653 138.981 303.475 138.171C304.307 137.349 305.288 136.949 306.419 136.971C307.56 136.949 308.547 137.349 309.379 138.171C310.211 138.992 310.616 139.957 310.595 141.067C310.616 142.187 310.211 143.157 309.379 143.979C308.547 144.8 307.56 145.2 306.419 145.179C305.288 145.2 304.307 144.8 303.475 143.979C302.653 143.147 302.253 142.176 302.275 141.067ZM308.867 141.083C308.867 140.357 308.632 139.749 308.163 139.259C307.693 138.757 307.117 138.507 306.435 138.507C305.741 138.507 305.16 138.757 304.691 139.259C304.221 139.749 303.987 140.357 303.987 141.083C303.987 141.808 304.216 142.416 304.675 142.907C305.144 143.387 305.725 143.627 306.419 143.627C307.112 143.627 307.693 143.381 308.163 142.891C308.632 142.4 308.867 141.797 308.867 141.083ZM317.017 137.147V138.635H316.505C315.822 138.635 315.267 138.827 314.841 139.211C314.414 139.595 314.201 140.128 314.201 140.811V145.003H312.521V137.147H314.089V138.171C314.675 137.435 315.438 137.067 316.377 137.067C316.59 137.067 316.803 137.093 317.017 137.147ZM182.919 165.003V153.003H184.599V165.003H182.919ZM194.101 161.627H188.245C188.351 162.267 188.634 162.773 189.093 163.147C189.562 163.509 190.133 163.691 190.805 163.691C191.637 163.691 192.399 163.381 193.093 162.763L193.892 163.915C193.007 164.757 191.962 165.179 190.757 165.179C189.562 165.179 188.559 164.789 187.749 164.011C186.938 163.221 186.533 162.245 186.533 161.083C186.511 159.952 186.906 158.981 187.717 158.171C188.527 157.349 189.487 156.949 190.597 156.971C191.631 156.971 192.495 157.317 193.189 158.011C193.882 158.693 194.229 159.547 194.229 160.571C194.229 160.88 194.186 161.232 194.101 161.627ZM188.277 160.315H192.549C192.538 159.728 192.341 159.264 191.957 158.923C191.573 158.571 191.098 158.395 190.533 158.395C189.978 158.395 189.493 158.571 189.077 158.923C188.671 159.264 188.405 159.728 188.277 160.315ZM195.418 163.659L196.378 162.603C197.092 163.349 197.828 163.723 198.586 163.723C198.959 163.723 199.263 163.648 199.498 163.499C199.732 163.339 199.85 163.12 199.85 162.843C199.85 162.629 199.77 162.459 199.61 162.331C199.45 162.192 199.162 162.037 198.746 161.867L197.946 161.531C197.231 161.232 196.708 160.912 196.378 160.571C196.058 160.219 195.898 159.776 195.898 159.243C195.898 158.549 196.154 158 196.666 157.595C197.188 157.179 197.855 156.971 198.666 156.971C199.796 156.971 200.703 157.376 201.386 158.187L200.474 159.227C199.962 158.693 199.348 158.427 198.634 158.427C197.919 158.427 197.562 158.677 197.562 159.179C197.562 159.371 197.636 159.536 197.786 159.675C197.935 159.803 198.207 159.947 198.602 160.107L199.354 160.411C200.111 160.731 200.655 161.072 200.986 161.435C201.327 161.787 201.498 162.235 201.498 162.779C201.498 163.536 201.22 164.128 200.666 164.555C200.111 164.971 199.418 165.179 198.586 165.179C197.252 165.179 196.196 164.672 195.418 163.659ZM202.699 163.659L203.659 162.603C204.373 163.349 205.109 163.723 205.867 163.723C206.24 163.723 206.544 163.648 206.779 163.499C207.013 163.339 207.131 163.12 207.131 162.843C207.131 162.629 207.051 162.459 206.891 162.331C206.731 162.192 206.443 162.037 206.027 161.867L205.227 161.531C204.512 161.232 203.989 160.912 203.659 160.571C203.339 160.219 203.179 159.776 203.179 159.243C203.179 158.549 203.435 158 203.947 157.595C204.469 157.179 205.136 156.971 205.947 156.971C207.077 156.971 207.984 157.376 208.667 158.187L207.755 159.227C207.243 158.693 206.629 158.427 205.915 158.427C205.2 158.427 204.843 158.677 204.843 159.179C204.843 159.371 204.917 159.536 205.067 159.675C205.216 159.803 205.488 159.947 205.883 160.107L206.635 160.411C207.392 160.731 207.936 161.072 208.267 161.435C208.608 161.787 208.779 162.235 208.779 162.779C208.779 163.536 208.501 164.128 207.947 164.555C207.392 164.971 206.699 165.179 205.867 165.179C204.533 165.179 203.477 164.672 202.699 163.659ZM215.2 165.003V157.147H216.88V165.003H215.2ZM215.232 155.003C215.008 154.789 214.896 154.528 214.896 154.219C214.896 153.909 215.008 153.648 215.232 153.435C215.456 153.211 215.728 153.099 216.048 153.099C216.358 153.099 216.624 153.211 216.848 153.435C217.072 153.648 217.184 153.909 217.184 154.219C217.184 154.528 217.072 154.789 216.848 155.003C216.624 155.216 216.358 155.323 216.048 155.323C215.728 155.323 215.456 155.216 215.232 155.003ZM226.174 160.091V165.003H224.494V160.315C224.494 159.771 224.334 159.333 224.014 159.003C223.704 158.661 223.294 158.491 222.782 158.491C222.259 158.491 221.827 158.661 221.486 159.003C221.155 159.344 220.99 159.781 220.99 160.315V165.003H219.31V157.147H220.878V157.915C221.475 157.285 222.259 156.971 223.23 156.971C224.136 156.971 224.851 157.253 225.374 157.819C225.907 158.384 226.174 159.141 226.174 160.091ZM233.672 157.147H235.464L231.672 165.179H231.096L227.288 157.147H229.08L231.384 162.347L233.672 157.147ZM243.741 161.627H237.885C237.992 162.267 238.274 162.773 238.733 163.147C239.202 163.509 239.773 163.691 240.445 163.691C241.277 163.691 242.04 163.381 242.733 162.763L243.533 163.915C242.648 164.757 241.602 165.179 240.397 165.179C239.202 165.179 238.2 164.789 237.389 164.011C236.578 163.221 236.173 162.245 236.173 161.083C236.152 159.952 236.546 158.981 237.357 158.171C238.168 157.349 239.128 156.949 240.237 156.971C241.272 156.971 242.136 157.317 242.829 158.011C243.522 158.693 243.869 159.547 243.869 160.571C243.869 160.88 243.826 161.232 243.741 161.627ZM237.917 160.315H242.189C242.178 159.728 241.981 159.264 241.597 158.923C241.213 158.571 240.738 158.395 240.173 158.395C239.618 158.395 239.133 158.571 238.717 158.923C238.312 159.264 238.045 159.728 237.917 160.315ZM245.058 163.659L246.018 162.603C246.733 163.349 247.469 163.723 248.226 163.723C248.599 163.723 248.903 163.648 249.138 163.499C249.373 163.339 249.49 163.12 249.49 162.843C249.49 162.629 249.41 162.459 249.25 162.331C249.09 162.192 248.802 162.037 248.386 161.867L247.586 161.531C246.871 161.232 246.349 160.912 246.018 160.571C245.698 160.219 245.538 159.776 245.538 159.243C245.538 158.549 245.794 158 246.306 157.595C246.829 157.179 247.495 156.971 248.306 156.971C249.437 156.971 250.343 157.376 251.026 158.187L250.114 159.227C249.602 158.693 248.989 158.427 248.274 158.427C247.559 158.427 247.202 158.677 247.202 159.179C247.202 159.371 247.277 159.536 247.426 159.675C247.575 159.803 247.847 159.947 248.242 160.107L248.994 160.411C249.751 160.731 250.295 161.072 250.626 161.435C250.967 161.787 251.138 162.235 251.138 162.779C251.138 163.536 250.861 164.128 250.306 164.555C249.751 164.971 249.058 165.179 248.226 165.179C246.893 165.179 245.837 164.672 245.058 163.659ZM257.747 163.579V165.003C257.193 165.12 256.729 165.179 256.355 165.179C255.438 165.179 254.723 164.949 254.211 164.491C253.71 164.032 253.459 163.349 253.459 162.443V158.603H252.179V157.147H253.459V155.083H255.155V157.147H257.491V158.603H255.155V162.299C255.155 162.789 255.278 163.141 255.523 163.355C255.779 163.557 256.174 163.659 256.707 163.659C256.889 163.659 257.235 163.632 257.747 163.579ZM266.366 161.627H260.51C260.617 162.267 260.899 162.773 261.358 163.147C261.827 163.509 262.398 163.691 263.07 163.691C263.902 163.691 264.665 163.381 265.358 162.763L266.158 163.915C265.273 164.757 264.227 165.179 263.022 165.179C261.827 165.179 260.825 164.789 260.014 164.011C259.203 163.221 258.798 162.245 258.798 161.083C258.777 159.952 259.171 158.981 259.982 158.171C260.793 157.349 261.753 156.949 262.862 156.971C263.897 156.971 264.761 157.317 265.454 158.011C266.147 158.693 266.494 159.547 266.494 160.571C266.494 160.88 266.451 161.232 266.366 161.627ZM260.542 160.315H264.814C264.803 159.728 264.606 159.264 264.222 158.923C263.838 158.571 263.363 158.395 262.798 158.395C262.243 158.395 261.758 158.571 261.342 158.923C260.937 159.264 260.67 159.728 260.542 160.315ZM274.387 153.003H276.083V165.003H274.515V163.883C273.907 164.747 272.99 165.179 271.763 165.179C270.664 165.179 269.747 164.789 269.011 164.011C268.286 163.221 267.923 162.245 267.923 161.083C267.902 159.931 268.264 158.955 269.011 158.155C269.758 157.344 270.675 156.949 271.763 156.971C272.894 156.971 273.768 157.349 274.387 158.107V153.003ZM273.731 162.971C274.19 162.523 274.419 161.893 274.419 161.083C274.419 160.272 274.184 159.643 273.715 159.195C273.256 158.736 272.702 158.507 272.051 158.507C271.368 158.507 270.792 158.747 270.323 159.227C269.864 159.707 269.635 160.32 269.635 161.067C269.635 161.813 269.864 162.432 270.323 162.923C270.782 163.403 271.358 163.643 272.051 163.643C272.712 163.643 273.272 163.419 273.731 162.971Z" fill="#242424"/>
<path d="M188.942 118.003L187.72 115.143H179.998L178.776 118.003H175.838L183.404 100.557H184.34L191.906 118.003H188.942ZM186.732 112.777L183.872 105.679L180.986 112.777H186.732ZM200.886 109.423C200.834 106.979 201.709 104.881 203.512 103.131C205.314 101.38 207.446 100.522 209.908 100.557C211.468 100.557 212.898 100.912 214.198 101.623C215.498 102.333 216.52 103.295 217.266 104.509L215.186 106.043C213.92 104.067 212.17 103.079 209.934 103.079C208.166 103.079 206.692 103.685 205.514 104.899C204.335 106.095 203.746 107.603 203.746 109.423C203.746 111.243 204.335 112.759 205.514 113.973C206.692 115.169 208.166 115.767 209.934 115.767C212.17 115.767 213.92 114.779 215.186 112.803L217.266 114.337C216.52 115.567 215.498 116.538 214.198 117.249C212.915 117.942 211.485 118.289 209.908 118.289C207.446 118.323 205.314 117.465 203.512 115.715C201.709 113.964 200.834 111.867 200.886 109.423ZM220.38 118.003V98.5026H223.11V118.003H220.38ZM227.058 118.003V105.237H229.788V118.003H227.058ZM227.11 101.753C226.746 101.406 226.564 100.981 226.564 100.479C226.564 99.976 226.746 99.5513 227.11 99.2046C227.474 98.8406 227.916 98.6586 228.436 98.6586C228.939 98.6586 229.372 98.8406 229.736 99.2046C230.1 99.5513 230.282 99.976 230.282 100.479C230.282 100.981 230.1 101.406 229.736 101.753C229.372 102.099 228.939 102.273 228.436 102.273C227.916 102.273 227.474 102.099 227.11 101.753ZM245.228 112.517H235.712C235.885 113.557 236.344 114.38 237.09 114.987C237.852 115.576 238.78 115.871 239.872 115.871C241.224 115.871 242.463 115.368 243.59 114.363L244.89 116.235C243.451 117.604 241.752 118.289 239.794 118.289C237.852 118.289 236.223 117.656 234.906 116.391C233.588 115.108 232.93 113.522 232.93 111.633C232.895 109.795 233.536 108.218 234.854 106.901C236.171 105.566 237.731 104.916 239.534 104.951C241.215 104.951 242.619 105.514 243.746 106.641C244.872 107.75 245.436 109.137 245.436 110.801C245.436 111.303 245.366 111.875 245.228 112.517ZM235.764 110.385H242.706C242.688 109.431 242.368 108.677 241.744 108.123C241.12 107.551 240.348 107.265 239.43 107.265C238.528 107.265 237.74 107.551 237.064 108.123C236.405 108.677 235.972 109.431 235.764 110.385ZM259.718 110.021V118.003H256.988V110.385C256.988 109.501 256.728 108.79 256.208 108.253C255.705 107.698 255.038 107.421 254.206 107.421C253.357 107.421 252.655 107.698 252.1 108.253C251.563 108.807 251.294 109.518 251.294 110.385V118.003H248.564V105.237H251.112V106.485C252.083 105.462 253.357 104.951 254.934 104.951C256.407 104.951 257.569 105.41 258.418 106.329C259.285 107.247 259.718 108.478 259.718 110.021ZM271.111 115.689V118.003C270.21 118.193 269.456 118.289 268.849 118.289C267.358 118.289 266.197 117.916 265.365 117.171C264.55 116.425 264.143 115.316 264.143 113.843V107.603H262.063V105.237H264.143V101.883H266.899V105.237H270.695V107.603H266.899V113.609C266.899 114.406 267.098 114.978 267.497 115.325C267.913 115.654 268.554 115.819 269.421 115.819C269.716 115.819 270.279 115.775 271.111 115.689ZM272.682 115.819L274.242 114.103C275.404 115.316 276.6 115.923 277.83 115.923C278.437 115.923 278.931 115.801 279.312 115.559C279.694 115.299 279.884 114.943 279.884 114.493C279.884 114.146 279.754 113.869 279.494 113.661C279.234 113.435 278.766 113.184 278.09 112.907L276.79 112.361C275.629 111.875 274.78 111.355 274.242 110.801C273.722 110.229 273.462 109.509 273.462 108.643C273.462 107.516 273.878 106.623 274.71 105.965C275.56 105.289 276.643 104.951 277.96 104.951C279.798 104.951 281.271 105.609 282.38 106.927L280.898 108.617C280.066 107.75 279.07 107.317 277.908 107.317C276.747 107.317 276.166 107.724 276.166 108.539C276.166 108.851 276.288 109.119 276.53 109.345C276.773 109.553 277.215 109.787 277.856 110.047L279.078 110.541C280.309 111.061 281.193 111.615 281.73 112.205C282.285 112.777 282.562 113.505 282.562 114.389C282.562 115.619 282.112 116.581 281.21 117.275C280.309 117.951 279.182 118.289 277.83 118.289C275.664 118.289 273.948 117.465 272.682 115.819Z" fill="#ED0874"/>
<line x1="103.5" y1="187.503" x2="356.5" y2="187.503" stroke="#E5E5E5"/>
<path d="M119.372 218.443H119.836V229.003H118.588V219.915L116.284 220.635L115.98 219.563L119.372 218.443ZM129.179 229.003H127.755L125.531 225.803L123.323 229.003H121.883L124.779 224.939L122.123 221.211H123.547L125.531 224.075L127.531 221.211H128.955L126.251 224.939L129.179 229.003ZM141.987 229.003L141.091 226.859H135.907L135.011 229.003H133.699L138.275 218.267H138.739L143.315 229.003H141.987ZM140.611 225.739L138.499 220.539L136.387 225.739H140.611ZM151.621 224.107V229.003H150.389V224.251C150.389 223.632 150.213 223.131 149.861 222.747C149.519 222.363 149.05 222.171 148.453 222.171C147.855 222.171 147.365 222.368 146.981 222.763C146.597 223.147 146.405 223.643 146.405 224.251V229.003H145.173V221.211H146.325V222.043C146.933 221.371 147.733 221.035 148.725 221.035C149.621 221.035 150.325 221.317 150.837 221.883C151.359 222.437 151.621 223.179 151.621 224.107ZM160.683 224.107V229.003H159.451V224.251C159.451 223.632 159.275 223.131 158.923 222.747C158.582 222.363 158.112 222.171 157.515 222.171C156.918 222.171 156.427 222.368 156.043 222.763C155.659 223.147 155.467 223.643 155.467 224.251V229.003H154.235V221.211H155.387V222.043C155.995 221.371 156.795 221.035 157.787 221.035C158.683 221.035 159.387 221.317 159.899 221.883C160.422 222.437 160.683 223.179 160.683 224.107ZM163.202 225.899V221.211H164.418V225.979C164.418 226.597 164.604 227.099 164.978 227.483C165.362 227.856 165.847 228.043 166.434 228.043C167.01 228.043 167.484 227.851 167.858 227.467C168.231 227.083 168.418 226.587 168.418 225.979V221.211H169.65V225.899C169.65 226.869 169.34 227.659 168.722 228.267C168.114 228.875 167.351 229.179 166.434 229.179C165.506 229.179 164.732 228.875 164.114 228.267C163.506 227.659 163.202 226.869 163.202 225.899ZM178.091 224.203V229.003H176.939V227.995C176.341 228.784 175.467 229.179 174.315 229.179C173.504 229.179 172.848 228.981 172.347 228.587C171.845 228.181 171.595 227.648 171.595 226.987C171.595 226.325 171.851 225.797 172.363 225.403C172.875 225.008 173.552 224.811 174.395 224.811H176.859V224.139C176.859 223.509 176.688 223.024 176.347 222.683C176.016 222.341 175.557 222.171 174.971 222.171C174.096 222.171 173.339 222.587 172.699 223.419L171.883 222.747C172.576 221.605 173.632 221.035 175.051 221.035C175.989 221.035 176.731 221.312 177.275 221.867C177.819 222.411 178.091 223.189 178.091 224.203ZM176.859 226.011V225.819H174.539C173.419 225.819 172.859 226.187 172.859 226.923C172.859 227.307 173.008 227.611 173.307 227.835C173.616 228.048 174.005 228.155 174.475 228.155C175.125 228.155 175.685 227.947 176.155 227.531C176.624 227.115 176.859 226.608 176.859 226.011ZM180.704 229.003V217.003H181.936V229.003H180.704ZM197.462 229.003H196.006L192.726 224.571H190.47V229.003H189.222V218.443H192.934C193.947 218.443 194.763 218.731 195.382 219.307C196 219.872 196.31 220.603 196.31 221.499C196.31 222.213 196.112 222.832 195.718 223.355C195.323 223.867 194.779 224.224 194.086 224.427L197.462 229.003ZM190.47 219.563V223.451H192.886C193.558 223.451 194.08 223.28 194.454 222.939C194.827 222.587 195.014 222.112 195.014 221.515C195.014 220.928 194.822 220.459 194.438 220.107C194.064 219.744 193.547 219.563 192.886 219.563H190.47ZM205.724 225.483H199.564C199.639 226.251 199.943 226.869 200.476 227.339C201.01 227.808 201.66 228.043 202.428 228.043C203.314 228.043 204.108 227.691 204.812 226.987L205.532 227.819C204.658 228.725 203.618 229.179 202.412 229.179C201.25 229.179 200.268 228.789 199.468 228.011C198.679 227.221 198.284 226.256 198.284 225.115C198.284 223.984 198.668 223.024 199.436 222.235C200.215 221.435 201.159 221.035 202.268 221.035C203.282 221.035 204.124 221.365 204.796 222.027C205.479 222.688 205.82 223.531 205.82 224.555C205.82 224.853 205.788 225.163 205.724 225.483ZM199.612 224.395H204.556C204.546 223.712 204.322 223.168 203.884 222.763C203.447 222.357 202.898 222.155 202.236 222.155C201.586 222.155 201.02 222.363 200.54 222.779C200.06 223.184 199.751 223.723 199.612 224.395ZM213.209 221.211H214.521L210.857 229.179H210.409L206.729 221.211H208.041L210.633 227.083L213.209 221.211ZM216.298 229.003V221.211H217.53V229.003H216.298ZM215.993 218.235C215.993 217.989 216.084 217.781 216.266 217.611C216.447 217.429 216.666 217.339 216.922 217.339C217.167 217.339 217.38 217.429 217.562 217.611C217.743 217.781 217.834 217.989 217.834 218.235C217.834 218.491 217.743 218.704 217.562 218.875C217.391 219.045 217.178 219.131 216.922 219.131C216.666 219.131 216.447 219.045 216.266 218.875C216.084 218.704 215.993 218.491 215.993 218.235ZM227.115 225.483H220.955C221.03 226.251 221.334 226.869 221.867 227.339C222.4 227.808 223.051 228.043 223.819 228.043C224.704 228.043 225.499 227.691 226.203 226.987L226.923 227.819C226.048 228.725 225.008 229.179 223.803 229.179C222.64 229.179 221.659 228.789 220.859 228.011C220.07 227.221 219.675 226.256 219.675 225.115C219.675 223.984 220.059 223.024 220.827 222.235C221.606 221.435 222.55 221.035 223.659 221.035C224.672 221.035 225.515 221.365 226.187 222.027C226.87 222.688 227.211 223.531 227.211 224.555C227.211 224.853 227.179 225.163 227.115 225.483ZM221.003 224.395H225.947C225.936 223.712 225.712 223.168 225.275 222.763C224.838 222.357 224.288 222.155 223.627 222.155C222.976 222.155 222.411 222.363 221.931 222.779C221.451 223.184 221.142 223.723 221.003 224.395ZM239.575 221.211H240.887L237.607 229.179H237.159L234.503 223.291L231.863 229.179H231.431L228.119 221.211H229.431L231.687 226.987L234.279 221.035H234.743L237.367 226.939L239.575 221.211ZM116.956 261.003V250.443H118.204V261.003H116.956ZM127.371 256.107V261.003H126.139V256.251C126.139 255.632 125.963 255.131 125.611 254.747C125.269 254.363 124.8 254.171 124.203 254.171C123.605 254.171 123.115 254.368 122.731 254.763C122.347 255.147 122.155 255.643 122.155 256.251V261.003H120.923V253.211H122.075V254.043C122.683 253.371 123.483 253.035 124.475 253.035C125.371 253.035 126.075 253.317 126.587 253.883C127.109 254.437 127.371 255.179 127.371 256.107ZM135.209 253.211H136.521L132.857 261.179H132.409L128.729 253.211H130.041L132.633 259.083L135.209 253.211ZM144.865 257.483H138.705C138.78 258.251 139.084 258.869 139.617 259.339C140.15 259.808 140.801 260.043 141.569 260.043C142.454 260.043 143.249 259.691 143.953 258.987L144.673 259.819C143.798 260.725 142.758 261.179 141.553 261.179C140.39 261.179 139.409 260.789 138.609 260.011C137.82 259.221 137.425 258.256 137.425 257.115C137.425 255.984 137.809 255.024 138.577 254.235C139.356 253.435 140.3 253.035 141.409 253.035C142.422 253.035 143.265 253.365 143.937 254.027C144.62 254.688 144.961 255.531 144.961 256.555C144.961 256.853 144.929 257.163 144.865 257.483ZM138.753 256.395H143.697C143.686 255.712 143.462 255.168 143.025 254.763C142.588 254.357 142.038 254.155 141.377 254.155C140.726 254.155 140.161 254.363 139.681 254.779C139.201 255.184 138.892 255.723 138.753 256.395ZM146.39 259.659L147.174 258.843C147.579 259.259 147.947 259.563 148.278 259.755C148.619 259.947 148.998 260.043 149.414 260.043C149.851 260.043 150.208 259.947 150.486 259.755C150.763 259.552 150.902 259.28 150.902 258.939C150.902 258.64 150.8 258.411 150.598 258.251C150.406 258.08 150.054 257.893 149.542 257.691L148.79 257.371C148.118 257.093 147.627 256.789 147.318 256.459C147.008 256.128 146.854 255.712 146.854 255.211C146.854 254.549 147.099 254.021 147.59 253.627C148.091 253.232 148.72 253.035 149.478 253.035C150.534 253.035 151.403 253.445 152.086 254.267L151.334 255.035C150.758 254.459 150.118 254.171 149.414 254.171C149.019 254.171 148.704 254.256 148.47 254.427C148.235 254.597 148.118 254.837 148.118 255.147C148.118 255.392 148.203 255.595 148.374 255.755C148.555 255.904 148.891 256.08 149.382 256.283L150.102 256.587C150.848 256.907 151.376 257.243 151.686 257.595C152.006 257.936 152.166 258.368 152.166 258.891C152.166 259.616 151.899 260.181 151.366 260.587C150.843 260.981 150.198 261.179 149.43 261.179C148.182 261.179 147.168 260.672 146.39 259.659ZM158.647 259.963V261.003C158.125 261.12 157.693 261.179 157.351 261.179C156.519 261.179 155.874 260.965 155.415 260.539C154.957 260.112 154.727 259.483 154.727 258.651V254.315H153.415V253.211H154.727V251.083H155.959V253.211H158.391V254.315H155.959V258.571C155.959 259.104 156.093 259.488 156.359 259.723C156.637 259.947 157.053 260.059 157.607 260.059C157.906 260.059 158.253 260.027 158.647 259.963ZM159.769 257.099C159.747 255.989 160.142 255.029 160.953 254.219C161.774 253.408 162.739 253.013 163.849 253.035C164.969 253.013 165.934 253.408 166.745 254.219C167.555 255.029 167.95 255.989 167.929 257.099C167.95 258.197 167.55 259.157 166.729 259.979C165.907 260.789 164.942 261.184 163.833 261.163C162.723 261.184 161.763 260.789 160.953 259.979C160.142 259.157 159.747 258.197 159.769 257.099ZM166.665 257.115C166.665 256.283 166.393 255.584 165.849 255.019C165.315 254.453 164.649 254.171 163.849 254.171C163.049 254.171 162.377 254.453 161.833 255.019C161.299 255.573 161.033 256.272 161.033 257.115C161.033 257.936 161.299 258.629 161.833 259.195C162.377 259.749 163.043 260.027 163.833 260.027C164.622 260.027 165.289 259.744 165.833 259.179C166.387 258.613 166.665 257.925 166.665 257.115ZM174.238 253.211V254.299H173.774C173.092 254.299 172.51 254.507 172.03 254.923C171.561 255.339 171.326 255.893 171.326 256.587V261.003H170.094V253.211H171.246V254.315C171.822 253.536 172.628 253.147 173.662 253.147C173.865 253.147 174.057 253.168 174.238 253.211ZM189.752 250.267H190.184V261.003H188.936V253.435L185.56 258.011H185.112L181.72 253.403V261.003H180.472V250.267H180.92L185.32 256.363L189.752 250.267ZM198.763 256.203V261.003H197.611V259.995C197.013 260.784 196.139 261.179 194.987 261.179C194.176 261.179 193.52 260.981 193.019 260.587C192.517 260.181 192.267 259.648 192.267 258.987C192.267 258.325 192.523 257.797 193.035 257.403C193.547 257.008 194.224 256.811 195.067 256.811H197.531V256.139C197.531 255.509 197.36 255.024 197.019 254.683C196.688 254.341 196.229 254.171 195.643 254.171C194.768 254.171 194.011 254.587 193.371 255.419L192.555 254.747C193.248 253.605 194.304 253.035 195.723 253.035C196.661 253.035 197.403 253.312 197.947 253.867C198.491 254.411 198.763 255.189 198.763 256.203ZM197.531 258.011V257.819H195.211C194.091 257.819 193.531 258.187 193.531 258.923C193.531 259.307 193.68 259.611 193.979 259.835C194.288 260.048 194.677 260.155 195.147 260.155C195.797 260.155 196.357 259.947 196.827 259.531C197.296 259.115 197.531 258.608 197.531 258.011ZM207.696 253.211H208.864V260.251C208.864 261.424 208.522 262.352 207.84 263.035C207.157 263.717 206.234 264.059 205.072 264.059C203.632 264.059 202.41 263.557 201.408 262.555L202.128 261.691C203.066 262.512 204.037 262.923 205.04 262.923C205.85 262.923 206.485 262.693 206.944 262.235C207.402 261.787 207.632 261.147 207.632 260.315V259.627C207.322 260.032 206.906 260.352 206.384 260.587C205.872 260.811 205.322 260.923 204.736 260.923C203.637 260.923 202.725 260.549 202 259.803C201.274 259.056 200.912 258.117 200.912 256.987C200.912 255.867 201.274 254.928 202 254.171C202.736 253.413 203.648 253.035 204.736 253.035C205.354 253.035 205.925 253.163 206.448 253.419C206.981 253.664 207.397 254.011 207.696 254.459V253.211ZM207.648 256.987C207.648 256.101 207.381 255.419 206.848 254.939C206.325 254.448 205.685 254.203 204.928 254.203C204.128 254.203 203.466 254.469 202.944 255.003C202.421 255.525 202.16 256.192 202.16 257.003C202.16 257.824 202.421 258.496 202.944 259.019C203.466 259.531 204.128 259.787 204.928 259.787C205.696 259.787 206.341 259.547 206.864 259.067C207.386 258.576 207.648 257.883 207.648 256.987ZM217.403 256.203V261.003H216.251V259.995C215.654 260.784 214.779 261.179 213.627 261.179C212.816 261.179 212.16 260.981 211.659 260.587C211.158 260.181 210.907 259.648 210.907 258.987C210.907 258.325 211.163 257.797 211.675 257.403C212.187 257.008 212.864 256.811 213.707 256.811H216.171V256.139C216.171 255.509 216 255.024 215.659 254.683C215.328 254.341 214.87 254.171 214.283 254.171C213.408 254.171 212.651 254.587 212.011 255.419L211.195 254.747C211.888 253.605 212.944 253.035 214.363 253.035C215.302 253.035 216.043 253.312 216.587 253.867C217.131 254.411 217.403 255.189 217.403 256.203ZM216.171 258.011V257.819H213.851C212.731 257.819 212.171 258.187 212.171 258.923C212.171 259.307 212.32 259.611 212.619 259.835C212.928 260.048 213.318 260.155 213.787 260.155C214.438 260.155 214.998 259.947 215.467 259.531C215.936 259.115 216.171 258.608 216.171 258.011ZM220.976 259.915H225.488V261.003H219.088V260.635L223.536 254.315H219.456V253.211H225.44V253.579L220.976 259.915ZM227.282 261.003V253.211H228.514V261.003H227.282ZM226.978 250.235C226.978 249.989 227.069 249.781 227.25 249.611C227.431 249.429 227.65 249.339 227.906 249.339C228.151 249.339 228.365 249.429 228.546 249.611C228.727 249.781 228.818 249.989 228.818 250.235C228.818 250.491 228.727 250.704 228.546 250.875C228.375 251.045 228.162 251.131 227.906 251.131C227.65 251.131 227.431 251.045 227.25 250.875C227.069 250.704 226.978 250.491 226.978 250.235ZM237.667 256.107V261.003H236.435V256.251C236.435 255.632 236.259 255.131 235.907 254.747C235.566 254.363 235.097 254.171 234.499 254.171C233.902 254.171 233.411 254.368 233.027 254.763C232.643 255.147 232.451 255.643 232.451 256.251V261.003H231.219V253.211H232.371V254.043C232.979 253.371 233.779 253.035 234.771 253.035C235.667 253.035 236.371 253.317 236.883 253.883C237.406 254.437 237.667 255.179 237.667 256.107ZM247.162 257.483H241.002C241.077 258.251 241.381 258.869 241.914 259.339C242.447 259.808 243.098 260.043 243.866 260.043C244.751 260.043 245.546 259.691 246.25 258.987L246.97 259.819C246.095 260.725 245.055 261.179 243.85 261.179C242.687 261.179 241.706 260.789 240.906 260.011C240.117 259.221 239.722 258.256 239.722 257.115C239.722 255.984 240.106 255.024 240.874 254.235C241.653 253.435 242.597 253.035 243.706 253.035C244.719 253.035 245.562 253.365 246.234 254.027C246.917 254.688 247.258 255.531 247.258 256.555C247.258 256.853 247.226 257.163 247.162 257.483ZM241.05 256.395H245.994C245.983 255.712 245.759 255.168 245.322 254.763C244.885 254.357 244.335 254.155 243.674 254.155C243.023 254.155 242.458 254.363 241.978 254.779C241.498 255.184 241.189 255.723 241.05 256.395ZM124.652 289.963C124.652 290.859 124.348 291.589 123.74 292.155C123.132 292.72 122.321 293.003 121.308 293.003H116.956V282.443H120.588C121.495 282.443 122.225 282.693 122.78 283.195C123.324 283.696 123.596 284.336 123.596 285.115C123.596 285.979 123.26 286.672 122.588 287.195C123.239 287.387 123.745 287.728 124.108 288.219C124.471 288.699 124.652 289.28 124.652 289.963ZM120.46 283.563H118.204V286.843H120.46C121.057 286.843 121.516 286.699 121.836 286.411C122.156 286.112 122.316 285.707 122.316 285.195C122.316 284.683 122.156 284.283 121.836 283.995C121.516 283.707 121.057 283.563 120.46 283.563ZM122.78 291.355C123.175 291.003 123.372 290.528 123.372 289.931C123.372 289.333 123.175 288.859 122.78 288.507C122.396 288.155 121.863 287.979 121.18 287.979H118.204V291.883H121.18C121.863 291.883 122.396 291.707 122.78 291.355ZM126.623 289.899V285.211H127.839V289.979C127.839 290.597 128.026 291.099 128.399 291.483C128.783 291.856 129.269 292.043 129.855 292.043C130.431 292.043 130.906 291.851 131.279 291.467C131.653 291.083 131.839 290.587 131.839 289.979V285.211H133.071V289.899C133.071 290.869 132.762 291.659 132.143 292.267C131.535 292.875 130.773 293.179 129.855 293.179C128.927 293.179 128.154 292.875 127.535 292.267C126.927 291.659 126.623 290.869 126.623 289.899ZM141.849 281.003H143.081V293.003H141.913V291.771C141.614 292.208 141.198 292.555 140.665 292.811C140.142 293.056 139.577 293.179 138.969 293.179C137.87 293.179 136.953 292.789 136.217 292.011C135.481 291.221 135.113 290.256 135.113 289.115C135.113 287.963 135.481 286.997 136.217 286.219C136.963 285.429 137.881 285.035 138.969 285.035C139.555 285.035 140.105 285.152 140.617 285.387C141.129 285.621 141.539 285.947 141.849 286.363V281.003ZM141.865 289.115C141.865 288.176 141.598 287.451 141.065 286.939C140.542 286.427 139.902 286.171 139.145 286.171C138.355 286.171 137.694 286.448 137.161 287.003C136.638 287.557 136.377 288.256 136.377 289.099C136.377 289.941 136.638 290.645 137.161 291.211C137.694 291.765 138.355 292.043 139.145 292.043C139.902 292.043 140.542 291.787 141.065 291.275C141.598 290.763 141.865 290.043 141.865 289.115ZM152.102 285.211H153.27V292.251C153.27 293.424 152.929 294.352 152.246 295.035C151.563 295.717 150.641 296.059 149.478 296.059C148.038 296.059 146.817 295.557 145.814 294.555L146.534 293.691C147.473 294.512 148.443 294.923 149.446 294.923C150.257 294.923 150.891 294.693 151.35 294.235C151.809 293.787 152.038 293.147 152.038 292.315V291.627C151.729 292.032 151.313 292.352 150.79 292.587C150.278 292.811 149.729 292.923 149.142 292.923C148.043 292.923 147.131 292.549 146.406 291.803C145.681 291.056 145.318 290.117 145.318 288.987C145.318 287.867 145.681 286.928 146.406 286.171C147.142 285.413 148.054 285.035 149.142 285.035C149.761 285.035 150.331 285.163 150.854 285.419C151.387 285.664 151.803 286.011 152.102 286.459V285.211ZM152.054 288.987C152.054 288.101 151.787 287.419 151.254 286.939C150.731 286.448 150.091 286.203 149.334 286.203C148.534 286.203 147.873 286.469 147.35 287.003C146.827 287.525 146.566 288.192 146.566 289.003C146.566 289.824 146.827 290.496 147.35 291.019C147.873 291.531 148.534 291.787 149.334 291.787C150.102 291.787 150.747 291.547 151.27 291.067C151.793 290.576 152.054 289.883 152.054 288.987ZM162.849 289.483H156.689C156.764 290.251 157.068 290.869 157.601 291.339C158.135 291.808 158.785 292.043 159.553 292.043C160.439 292.043 161.233 291.691 161.937 290.987L162.657 291.819C161.783 292.725 160.743 293.179 159.537 293.179C158.375 293.179 157.393 292.789 156.593 292.011C155.804 291.221 155.409 290.256 155.409 289.115C155.409 287.984 155.793 287.024 156.561 286.235C157.34 285.435 158.284 285.035 159.393 285.035C160.407 285.035 161.249 285.365 161.921 286.027C162.604 286.688 162.945 287.531 162.945 288.555C162.945 288.853 162.913 289.163 162.849 289.483ZM156.737 288.395H161.681C161.671 287.712 161.447 287.168 161.009 286.763C160.572 286.357 160.023 286.155 159.361 286.155C158.711 286.155 158.145 286.363 157.665 286.779C157.185 287.184 156.876 287.723 156.737 288.395ZM169.366 291.963V293.003C168.843 293.12 168.411 293.179 168.07 293.179C167.238 293.179 166.593 292.965 166.134 292.539C165.675 292.112 165.446 291.483 165.446 290.651V286.315H164.134V285.211H165.446V283.083H166.678V285.211H169.11V286.315H166.678V290.571C166.678 291.104 166.811 291.488 167.078 291.723C167.355 291.947 167.771 292.059 168.326 292.059C168.625 292.059 168.971 292.027 169.366 291.963ZM184.024 293.003H182.568L179.288 288.571H177.032V293.003H175.784V282.443H179.496C180.509 282.443 181.325 282.731 181.944 283.307C182.563 283.872 182.872 284.603 182.872 285.499C182.872 286.213 182.675 286.832 182.28 287.355C181.885 287.867 181.341 288.224 180.648 288.427L184.024 293.003ZM177.032 283.563V287.451H179.448C180.12 287.451 180.643 287.28 181.016 286.939C181.389 286.587 181.576 286.112 181.576 285.515C181.576 284.928 181.384 284.459 181 284.107C180.627 283.744 180.109 283.563 179.448 283.563H177.032ZM192.287 289.483H186.127C186.202 290.251 186.506 290.869 187.039 291.339C187.572 291.808 188.223 292.043 188.991 292.043C189.876 292.043 190.671 291.691 191.375 290.987L192.095 291.819C191.22 292.725 190.18 293.179 188.975 293.179C187.812 293.179 186.831 292.789 186.031 292.011C185.242 291.221 184.847 290.256 184.847 289.115C184.847 287.984 185.231 287.024 185.999 286.235C186.778 285.435 187.722 285.035 188.831 285.035C189.844 285.035 190.687 285.365 191.359 286.027C192.042 286.688 192.383 287.531 192.383 288.555C192.383 288.853 192.351 289.163 192.287 289.483ZM186.175 288.395H191.119C191.108 287.712 190.884 287.168 190.447 286.763C190.01 286.357 189.46 286.155 188.799 286.155C188.148 286.155 187.583 286.363 187.103 286.779C186.623 287.184 186.314 287.723 186.175 288.395ZM201.396 286.203C202.132 286.981 202.5 287.947 202.5 289.099C202.5 290.251 202.126 291.221 201.38 292.011C200.644 292.789 199.732 293.179 198.644 293.179C197.417 293.179 196.462 292.747 195.78 291.883V295.883H194.548V285.211H195.7V286.459C195.998 286.011 196.409 285.664 196.932 285.419C197.454 285.163 198.025 285.035 198.644 285.035C199.753 285.035 200.67 285.424 201.396 286.203ZM200.436 291.211C200.969 290.656 201.236 289.957 201.236 289.115C201.236 288.272 200.969 287.573 200.436 287.019C199.913 286.453 199.257 286.171 198.468 286.171C197.721 286.171 197.081 286.427 196.548 286.939C196.025 287.451 195.764 288.171 195.764 289.099C195.764 290.048 196.02 290.779 196.532 291.291C197.054 291.792 197.7 292.043 198.468 292.043C199.257 292.043 199.913 291.765 200.436 291.211ZM204.097 289.099C204.076 287.989 204.47 287.029 205.281 286.219C206.102 285.408 207.068 285.013 208.177 285.035C209.297 285.013 210.262 285.408 211.073 286.219C211.884 287.029 212.278 287.989 212.257 289.099C212.278 290.197 211.878 291.157 211.057 291.979C210.236 292.789 209.27 293.184 208.161 293.163C207.052 293.184 206.092 292.789 205.281 291.979C204.47 291.157 204.076 290.197 204.097 289.099ZM210.993 289.115C210.993 288.283 210.721 287.584 210.177 287.019C209.644 286.453 208.977 286.171 208.177 286.171C207.377 286.171 206.705 286.453 206.161 287.019C205.628 287.573 205.361 288.272 205.361 289.115C205.361 289.936 205.628 290.629 206.161 291.195C206.705 291.749 207.372 292.027 208.161 292.027C208.95 292.027 209.617 291.744 210.161 291.179C210.716 290.613 210.993 289.925 210.993 289.115ZM218.567 285.211V286.299H218.103C217.42 286.299 216.839 286.507 216.359 286.923C215.889 287.339 215.655 287.893 215.655 288.587V293.003H214.423V285.211H215.575V286.315C216.151 285.536 216.956 285.147 217.991 285.147C218.193 285.147 218.385 285.168 218.567 285.211ZM224.475 291.963V293.003C223.953 293.12 223.521 293.179 223.179 293.179C222.347 293.179 221.702 292.965 221.243 292.539C220.785 292.112 220.555 291.483 220.555 290.651V286.315H219.243V285.211H220.555V283.083H221.787V285.211H224.219V286.315H221.787V290.571C221.787 291.104 221.921 291.488 222.187 291.723C222.465 291.947 222.881 292.059 223.435 292.059C223.734 292.059 224.081 292.027 224.475 291.963Z" fill="black"/>
</g>
<defs>
<filter id="filter0_d" x="70.5" y="65.0026" width="318" height="394" filterUnits="userSpaceOnUse" color-interpolation-filters="sRGB">
<feFlood flood-opacity="0" result="BackgroundImageFix"/>
<feColorMatrix in="SourceAlpha" type="matrix" values="0 0 0 0 0 0 0 0 0 0 0 0 0 0 0 0 0 0 127 0"/>
<feOffset/>
<feGaussianBlur stdDeviation="5.5"/>
<feColorMatrix type="matrix" values="0 0 0 0 0 0 0 0 0 0 0 0 0 0 0 0 0 0 0.1 0"/>
<feBlend mode="normal" in2="BackgroundImageFix" result="effect1_dropShadow"/>
<feBlend mode="normal" in="SourceGraphic" in2="effect1_dropShadow" result="shape"/>
</filter>
<linearGradient id="paint0_linear" x1="238.014" y1="34.2933" x2="238.014" y2="482.291" gradientUnits="userSpaceOnUse">
<stop stop-color="#ED0874"/>
<stop offset="1" stop-color="#048DFD"/>
</linearGradient>
<linearGradient id="paint1_linear" x1="196.911" y1="38.0967" x2="279.116" y2="478.487" gradientUnits="userSpaceOnUse">
<stop stop-color="#ED0874"/>
<stop offset="1" stop-color="#048DFD"/>
</linearGradient>
<clipPath id="clip0">
<rect width="459" height="523" fill="white"/>
</clipPath>
</defs>
</svg>
